<?xml version="1.0" encoding="UTF-8"?>
<svg id="Layer_2" data-name="Layer 2" xmlns="http://www.w3.org/2000/svg" viewBox="0 0 141.76 155.18">
  <defs>
    <style>
      .cls-1 {
        fill: #000;
        stroke-width: 0px;
      }
    </style>
  </defs>
  <g id="Layer_1-2" data-name="Layer 1">
    <g>
      <path class="cls-1" d="M108.53,49.67c-5.19-2.88-9.68-5.37-15.05-8.35,2.03-1.62,3.21-2.92,4.68-3.69,6.74-3.54,13.5-7.05,20.39-10.29,1.42-.67,3.56-.66,5.07-.12,4.42,1.6,8.66,3.7,13.03,5.47,2.74,1.11,4.01,3.31,4.05,5.93.11,6.87-.03,13.75-.29,20.62-.04,1.02-1.04,2.45-1.99,2.93-11.58,5.96-23.14,11.97-34.89,17.59-21.59,10.33-43.31,20.39-64.97,30.58-.44.21-.8.58-1.69,1.23,2.14,1.74,4.1,3.26,5.96,4.89,1.36,1.19,2.8,2.38,3.82,3.84,1.05,1.51.91,3.13-1.14,3.97-5.36,2.2-10.71,4.41-16.09,6.59-2.25.91-4.38,1.04-6.73-.21-3.67-1.94-7.58-3.43-11.36-5.17-3.3-1.52-5.02-4.24-4.99-7.78.07-6.53.31-13.07.65-19.59.13-2.49,1.27-4.24,4.04-5.09,13.39-4.12,26.04-10.04,38.35-16.63,17.14-9.18,34.69-17.36,52.97-23.98,1.82-.66,3.55-1.57,6.17-2.75Z"/>
      <path class="cls-1" d="M27.02,51.18c.58,5.52.95,9.65,1.46,13.76.33,2.63-.46,4.59-2.79,5.92-1.41.8-2.77,1.7-4.2,2.46-4.77,2.57-9.51,5.21-14.38,7.57-1.47.71-3.6,1.16-4.95.6-.94-.39-1.74-2.88-1.45-4.17,2.61-11.41.22-22.73-.64-34.01-.55-7.19,1.6-11.71,7.95-14.74,3.42-1.63,6.58-3.79,9.84-5.74,3.57-2.13,7.14-2.29,10.82-.26,4.75,2.63,9.61,5.06,14.29,7.81,6.24,3.66,12.41,7.46,18.5,11.37,2.98,1.92,6.39,3.61,7.04,7.72-2.49,1.99-4.78,4.3-7.51,5.88-3.26,1.89-6.84,3.3-10.38,4.65-3.38,1.3-6.69.88-9.88-1.03-4.16-2.49-8.43-4.79-13.74-7.78Z"/>
      <path class="cls-1" d="M72.05,109.4c5.84-2.3,11.2-4.37,16.52-6.55,1.32-.54,3.01-1.15,3.63-2.24,1.76-3.11,3.92-2.55,6.42-1.36,4.74,2.26,9.49,4.49,14.24,6.71.8.37,1.65.65,3.26,1.28.08-3.58.16-6.73.22-9.88.16-8.47.18-8.42,7.47-12.3,4.94-2.63,9.79-5.41,15.02-8.32,2.27.48,2.88,2.41,2.88,4.75,0,2.9.13,5.81-.06,8.7-.62,9.4-1.32,18.79-2.09,28.17-.41,5.05-3.07,8.42-8.06,9.73-4.37,1.15-8.71,2.55-13.16,3.18-2.33.33-5.06-.34-7.27-1.32-11.72-5.25-23.35-10.71-34.97-16.18-1.8-.85-4.31-1.34-4.05-4.35Z"/>
      <path class="cls-1" d="M73.35,0c1.65.85,3.11,1.55,4.52,2.35,9.46,5.35,18.92,10.72,28.38,16.08.63.36,1.35.57,1.94.97,2.42,1.64,2.56,3.34.14,5.16-1.87,1.41-3.98,2.54-6.07,3.6-4.04,2.05-8.19,3.88-12.19,6-2.03,1.08-3.7,1.01-5.53-.29-1.77-1.26-3.97-2.06-5.44-3.58-3.35-3.47-6.95-2.96-10.22-.62-4.47,3.2-8.14,2.35-12.33-.54-3.86-2.67-8.22-4.59-12.33-6.9-1.26-.71-2.48-1.52-3.61-2.42-1.68-1.33-1.43-2.82.04-4.12.8-.71,1.76-1.29,2.72-1.76,8.63-4.22,17.26-8.43,25.92-12.58,1.27-.61,2.68-.9,4.05-1.34Z"/>
      <path class="cls-1" d="M105.85,141.2c-8.5,4.71-15.94,9.72-24.08,12.98-4.19,1.68-9.73.88-14.47.1-10.73-1.78-19.52-8.11-29.85-13.28,1.98-1.49,3.12-2.56,4.44-3.3,5.22-2.92,10.54-5.67,15.72-8.65,1.78-1.02,3.41-1.22,5.1-.26,7.37,4.17,14.1,2.25,20.65-2,1.2-.78,2.58-1.46,3.96-1.74,1.1-.22,2.68-.16,3.47.49,5.32,4.37,10.14,9.24,15.06,15.67Z"/>
    </g>
  </g>
</svg>