<svg version="1.2" xmlns="http://www.w3.org/2000/svg" viewBox="0 0 702 269" width="702" height="269">
	<title>6690cf1ed75412ae52ba908c_speechbuble-420-svg</title>
	<style>
		.s0 { fill: #000000 } 
		.s1 { fill: #ffffff } 
	</style>
	<g id="Layer_1-2">
		<g>
			<path fill-rule="evenodd" class="s0" d="m370.4 481.8c3-6.3 5.2-11.9 8.3-17 6.9-11.7 17.7-17.2 31.1-18.1 13.9-0.9 26.6 2.4 37.6 11.3 0.4 0.4 0.9 0.5 1.3 0.7 46.6-28.1 92.7-24.8 138.9 1.3 17.4-14.4 38.1-18.1 60.3-16.8q17.5 1 34 7c7.1 2.6 14.1 5.7 18.9 12 28.7-18.8 78.8-12.6 103 17.5 11.7-5.7 24.3-6.7 37-5.6 44.1 4.2 77.6 24.6 97.5 64.9 6.3 12.7 8.5 26.4 5.6 40.3-4.8 22.9-19.6 37.1-40.9 45-5.7 2.1-11.9 3-18.2 4.5-8.3 20.2-24 33.1-44 41.5-9.2 3.9-18.8 6.6-28.7 8.2-17.1 2.7-34.3 3-51.4-0.7-6.9-1.5-13.7-3.4-19.6-7.2-20.9 13.2-42.2 13-64.1 2.8-1.9 1.7-3.9 3.6-5.9 5.3-14.7 13-32.1 20.1-51.1 24.1-16.2 3.3-32.7 4.7-49.2 5.1-26.5 0.6-51-5.8-73-20.9-0.8-0.5-1.5-1-2.3-1.5-0.2 0-0.4 0-0.6-0.1-26.3 22.5-61.9 22.3-86.6 2.7-7.3 2.4-14.6 5.1-22.1 7.2-15.3 4.4-30.9 6.4-46.8 5.3-28.2-1.9-52.9-12.3-72.9-32.6-20.2-20.5-26.7-45.6-19.9-73.2 12.2-49.4 42.6-83.7 89.4-103.3 9.9-4.1 20.2-7.2 30.8-8.9 1.4-0.2 2.8-0.6 3.6-0.8zm375.5 183.8c7.6 3 15.4 4.4 23.1 4.5 10.7 0.1 21.4 0 32-1.1 14.9-1.6 29.2-6 42.3-13.3 11-6.1 20.1-14.4 26.1-25.6 3.1-5.8 4-11.7-1.6-16.8-1.7-1.6-2.9-3.9-1.5-5.8 1.1-1.6 3.3-3.1 5.2-3.3 2.1-0.3 4.6 0.6 6.6 1.7 3.4 2 5.2 5.5 6.3 9.2 0.5 1.5 0.9 3 1.4 4.7 13-3.3 24-9.2 32.9-18.7 8.6-9.2 12.9-20 12.9-32.6 0-10.7-3.3-20.4-8.3-29.5-12-21.8-30.4-36.4-53.4-45.1-17-6.4-34.7-8.8-52.8-4.8-6.3 1.3-11.4 4.4-15.5 9.4-1 1.2-2 2.8-3.3 3.5-1.5 0.7-3.7 1.1-5 0.4-1.3-0.6-2.3-2.7-2.6-4.2-0.2-1.5 0.4-3.3 1.1-4.7 1.5-3.1 3.4-6 5.4-9.6-4.6-3.2-9.1-6.8-14.1-9.7-10.9-6.5-22.9-9.7-35.6-10.6-11.1-0.8-21.8 0.5-31.9 4.9-7 3-12.8 7.1-12.9 15.9 0 2.4-1.6 4.1-4 4.4-2.5 0.3-4.1-1.2-5-3.4-1.9-4.2-2.3-8.4-0.6-12.7 0.6-1.5 1.3-3 1.9-4.5-3-3.5-7.1-4.7-10.9-6.1-12.2-4.5-24.8-6.9-37.8-7.5-15.4-0.7-30.3 1.8-44 9.6-1.8 1.1-3.5 2.3-4.8 3.2 4.7 6.2 9.1 11.9 13.4 17.8 1 1.4 2.5 3.1 0.7 4.8-1.7 1.5-3.5 0-4.9-1-2.9-2.2-5.7-4.5-8.6-6.8-30.8-24.7-65.8-34.7-104.8-27.7-18.4 3.3-35.3 10.9-48.3 25.3-2.6 2.9-4.8 3.4-7.1 2-2.2-1.5-3-3.8-1.7-7.3 1.2-3 2.9-5.9 4.5-9.1-10.6-5.9-22-8.3-34.3-5.8-11.5 2.3-17.3 10.2-21.2 20.8 1.6 0.2 2.9 0.3 4.1 0.5 3.9 0.8 7.8 1.5 11.6 2.6 3.3 1.1 5.5 3.6 6 7.1 0.1 0.9-0.4 2.3-1.1 2.7-0.6 0.4-2.3 0-2.8-0.6-2-3-5.2-3-8.2-3.3-2-0.2-4-0.2-6 0-27 2.9-52 11.8-74.3 27.1-29 20-48 47.2-56 81.6-5.9 25.2 0.8 47.1 20.1 64.7 7.2 6.7 15.5 12 24.4 16.1 23.6 10.9 48 11.4 72.9 6 15.4-3.3 29.6-9.6 43.9-15.9 1.4-0.7 2.9-1.5 4.5-1.9 2.1-0.5 4 0.4 5.1 2.3 1.1 1.9 0.9 3.9-0.6 5.5-1 1.1-2.2 1.9-3.4 2.7-3 2-6 4-9.1 6 21.9 13.6 52.5 9.9 68.7-6.5-0.6-1-1.6-2-1.9-3.2-0.3-1.3-0.4-3.1 0.3-3.9 0.6-0.7 2.8-0.8 3.7-0.3 4 2.2 10 1 11.6 7 0.1 0.4 0.9 0.6 1.4 0.9 20.8 11.7 43.1 18.1 67.1 17.4 14.3-0.4 28.6-1.7 42.7-4.1 26.4-4.5 49.2-15 65-37.6 1.2-1.8 2.9-3.3 4.5-4.8 1.7-1.7 4-1.8 6.1-0.9 2.2 1.1 3.2 3.2 2.8 5.4-0.7 3-1.7 5.9-2.8 8.7-0.9 2.1-2.3 4-3.7 6.3 14.1 3.8 27.4 4.1 40.7-0.6 6.9-2.4 12.4-6.6 16-13.2 0.6-1.2 1.5-2.4 2.5-3.5 1.3-1.6 3.3-3 5.2-2 1.7 1 3.5 2.9 3.9 4.7 0.4 2.1-0.4 4.6-1.1 6.8-0.6 1.8-1.9 3.4-3 5.4z"/>
			<path class="s1" d="m645.9 554.6c1.2-2 2.4-3.6 3.1-5.4 0.7-2.2 1.5-4.7 1-6.8-0.3-1.8-2.2-3.7-3.9-4.7-1.9-1-3.8 0.4-5.2 2-0.9 1.1-1.8 2.3-2.5 3.5-3.5 6.6-9.1 10.8-16 13.2-13.2 4.7-26.6 4.4-40.6 0.6 1.4-2.3 2.8-4.2 3.6-6.3 1.2-2.8 2.2-5.7 2.8-8.7 0.5-2.3-0.6-4.4-2.8-5.4-2.1-0.9-4.3-0.7-6.1 0.9-1.6 1.5-3.2 3-4.5 4.8-15.8 22.6-38.6 33.1-65 37.6-14.1 2.4-28.4 3.7-42.7 4.1-24 0.7-46.3-5.6-67.1-17.4-0.4-0.3-1.2-0.5-1.3-0.9-1.7-6-7.7-4.8-11.6-7-1-0.5-3.2-0.4-3.8 0.3-0.7 0.8-0.5 2.6-0.3 3.9 0.3 1.2 1.3 2.2 1.9 3.2-16.1 16.4-46.7 20.1-68.7 6.5 3.1-2 6.2-4 9.2-6 1.1-0.8 2.4-1.6 3.4-2.7 1.5-1.6 1.7-3.6 0.5-5.5-1.1-1.9-2.9-2.8-5.1-2.3-1.5 0.4-3 1.2-4.5 1.9-14.2 6.3-28.5 12.6-43.8 15.9-25 5.4-49.4 4.9-72.9-6-9-4.1-17.2-9.4-24.5-16.1-19.3-17.6-25.9-39.5-20.1-64.7 8-34.4 27-61.6 56-81.6 22.4-15.3 47.3-24.2 74.4-27.1 1.9-0.2 4-0.2 5.9 0 3.1 0.3 6.2 0.3 8.3 3.3 0.4 0.6 2.1 1 2.7 0.6 0.7-0.4 1.3-1.8 1.1-2.7-0.5-3.5-2.7-6-6-7.1-3.8-1.1-7.7-1.8-11.6-2.6-1.2-0.2-2.4-0.3-4.1-0.5 3.9-10.6 9.8-18.5 21.2-20.8 12.4-2.5 23.7-0.1 34.3 5.8-1.6 3.2-3.3 6.1-4.4 9.1-1.3 3.5-0.6 5.8 1.7 7.3 2.2 1.4 4.5 0.9 7.1-2 12.9-14.4 29.8-22 48.3-25.3 39-7 74 3 104.8 27.7 2.8 2.3 5.7 4.6 8.6 6.8 1.4 1 3.1 2.5 4.8 1 1.9-1.7 0.4-3.4-0.7-4.8-4.3-5.9-8.7-11.6-13.3-17.8 1.3-0.9 2.9-2.1 4.8-3.2 13.6-7.8 28.5-10.3 44-9.6 12.9 0.6 25.6 3 37.7 7.5 3.9 1.4 7.9 2.6 11 6.1-0.7 1.5-1.4 3-2 4.5-1.6 4.3-1.2 8.5 0.6 12.7 1 2.2 2.6 3.7 5 3.4 2.4-0.3 4.1-2 4.1-4.4 0-8.8 5.9-12.9 12.8-15.9 10.2-4.4 20.9-5.7 31.9-4.9 12.7 0.9 24.7 4.1 35.7 10.6 4.9 2.9 9.5 6.5 14.1 9.7-2.1 3.6-3.9 6.6-5.4 9.6-0.7 1.4-1.4 3.2-1.1 4.7 0.2 1.5 1.3 3.6 2.6 4.2 1.3 0.7 3.5 0.3 4.9-0.4 1.4-0.7 2.3-2.3 3.4-3.5 4-5 9.1-8.1 15.4-9.4 18.2-4 35.8-1.6 52.9 4.8 23 8.7 41.3 23.3 53.3 45.1 5.1 9.1 8.3 18.8 8.3 29.5 0.1 12.6-4.2 23.4-12.8 32.6-8.9 9.5-20 15.3-33 18.7-0.4-1.7-0.9-3.2-1.3-4.7-1.2-3.7-2.9-7.2-6.4-9.2-1.9-1.1-4.4-2-6.6-1.7-1.8 0.2-4 1.7-5.1 3.2-1.5 2-0.3 4.3 1.4 5.9 5.7 5.1 4.8 11 1.6 16.8-6 11.2-15.1 19.5-26 25.6-13.2 7.3-27.4 11.7-42.3 13.3-10.6 1.1-21.4 1.2-32.1 1.1-7.7-0.1-15.4-1.5-23-4.5z"/>
		</g>
	</g>
</svg>