<?xml version="1.0" encoding="UTF-8"?>
<svg id="Layer_2" data-name="Layer 2" xmlns="http://www.w3.org/2000/svg" viewBox="0 0 701.19 268.97">
  <defs>
    <style>
      .cls-1 {
        fill: #000;
      }

      .cls-1, .cls-2 {
        stroke-width: 0px;
      }

      .cls-2 {
        fill: #fff;
      }
    </style>
  </defs>
  <g id="Layer_1-2" data-name="Layer 1">
    <g>
      <path class="cls-1" d="M126.41,42.76c3.01-6.29,5.2-11.9,8.25-16.99,6.98-11.64,17.73-17.21,31.11-18.09,13.96-.91,26.62,2.4,37.6,11.34.4.33.94.5,1.36.72,46.57-28.14,92.7-24.83,138.83,1.29,17.41-14.45,38.15-18.13,60.34-16.83,11.68.68,23,3.04,33.96,7.02,7.18,2.61,14.19,5.63,18.98,11.99,28.69-18.83,78.8-12.61,102.92,17.48,11.69-5.67,24.37-6.73,37.06-5.54,44.04,4.12,77.6,24.51,97.53,64.89,6.25,12.67,8.49,26.31,5.55,40.29-4.82,22.88-19.65,37.03-40.93,44.93-5.71,2.12-11.88,3.02-18.18,4.57-8.26,20.13-23.94,33.08-43.95,41.49-9.24,3.89-18.84,6.58-28.71,8.13-17.14,2.71-34.32,3.07-51.41-.63-6.92-1.5-13.69-3.4-19.6-7.21-20.92,13.21-42.19,12.97-64.12,2.74-1.91,1.74-3.88,3.6-5.91,5.39-14.7,12.96-32.13,20.11-51.09,24.03-16.22,3.36-32.67,4.78-49.18,5.16-26.47.61-51.03-5.82-73.03-20.97-.74-.51-1.54-.95-2.32-1.41-.15-.09-.35-.1-.52-.14-26.3,22.51-61.98,22.24-86.6,2.71-7.38,2.42-14.68,5.07-22.12,7.22-15.29,4.4-30.94,6.32-46.82,5.25-28.23-1.9-52.87-12.31-72.86-32.56C2.25,208.45-4.2,183.42,2.62,155.76c12.19-49.37,42.54-83.64,89.42-103.24,9.89-4.13,20.13-7.19,30.74-8.91,1.42-.23,2.81-.65,3.62-.85ZM501.92,226.59c7.61,3.02,15.33,4.4,23.07,4.5,10.68.14,21.44,0,32.04-1.13,14.88-1.57,29.13-5.93,42.28-13.26,10.99-6.12,20.07-14.36,26.08-25.58,3.14-5.86,4.02-11.7-1.6-16.86-1.72-1.58-2.91-3.83-1.48-5.81,1.14-1.58,3.32-3.08,5.18-3.28,2.14-.23,4.66.61,6.6,1.72,3.46,1.98,5.18,5.47,6.34,9.2.47,1.51.88,3.04,1.36,4.7,12.96-3.33,24.01-9.17,32.95-18.72,8.56-9.15,12.89-19.94,12.86-32.57-.03-10.68-3.29-20.37-8.33-29.53-12-21.8-30.33-36.37-53.33-45.04-17.07-6.43-34.7-8.86-52.86-4.87-6.29,1.38-11.43,4.42-15.47,9.41-1.02,1.27-1.97,2.85-3.33,3.51-1.45.69-3.67,1.09-4.95.44-1.3-.65-2.33-2.67-2.61-4.25-.25-1.45.41-3.24,1.11-4.65,1.52-3.07,3.33-5.99,5.41-9.65-4.6-3.19-9.15-6.78-14.09-9.69-10.97-6.45-22.99-9.65-35.67-10.56-11.03-.79-21.74.51-31.92,4.91-6.94,3.01-12.76,7.09-12.82,15.84-.02,2.48-1.68,4.13-4.07,4.41-2.43.29-4.05-1.19-5.01-3.4-1.82-4.17-2.22-8.4-.55-12.7.58-1.49,1.26-2.94,1.92-4.46-3.02-3.48-7.09-4.67-10.95-6.1-12.16-4.52-24.82-6.93-37.73-7.53-15.47-.71-30.37,1.83-44.04,9.65-1.81,1.04-3.49,2.3-4.79,3.17,4.66,6.19,9.05,11.94,13.35,17.75,1.05,1.42,2.55,3.17.72,4.79-1.7,1.5-3.44.07-4.86-1-2.91-2.17-5.75-4.42-8.58-6.7-30.84-24.78-65.8-34.74-104.83-27.72-18.45,3.32-35.34,10.83-48.28,25.3-2.61,2.92-4.84,3.4-7.12,1.93-2.25-1.45-3-3.77-1.68-7.28,1.14-3.02,2.82-5.84,4.43-9.07-10.6-5.93-21.95-8.34-34.26-5.84-11.49,2.33-17.32,10.22-21.21,20.79,1.64.22,2.87.3,4.08.55,3.88.82,7.83,1.45,11.61,2.62,3.32,1.03,5.47,3.59,6,7.11.13.87-.42,2.3-1.1,2.69-.63.36-2.32-.03-2.74-.64-2.06-3-5.24-3-8.25-3.32-1.97-.21-4-.14-5.98.07-27.03,2.87-51.97,11.74-74.34,27.11-29.01,19.95-48.02,47.17-56,81.54-5.85,25.22.79,47.07,20.08,64.72,7.28,6.67,15.51,11.96,24.47,16.09,23.57,10.86,47.96,11.44,72.9,6.02,15.35-3.34,29.62-9.57,43.84-15.96,1.48-.67,2.96-1.45,4.53-1.82,2.15-.51,3.98.38,5.11,2.27,1.14,1.91.93,3.9-.6,5.52-.98,1.04-2.2,1.88-3.39,2.69-2.98,2.03-6.02,3.98-9.12,6.03,21.93,13.59,52.55,9.87,68.71-6.55-.65-1.04-1.63-2.04-1.9-3.2-.3-1.27-.45-3.14.26-3.93.62-.7,2.8-.8,3.78-.25,3.91,2.22,9.95,1.02,11.58,7.03.1.38.89.57,1.36.84,20.81,11.76,43.09,18.09,67.07,17.41,14.32-.41,28.6-1.7,42.75-4.11,26.35-4.49,49.18-14.96,65-37.63,1.23-1.76,2.86-3.28,4.45-4.76,1.77-1.65,4-1.84,6.1-.86,2.2,1.02,3.28,3.12,2.81,5.4-.62,2.97-1.63,5.9-2.8,8.71-.86,2.06-2.23,3.91-3.63,6.3,14.02,3.71,27.37,4.07,40.65-.61,6.92-2.44,12.44-6.63,15.97-13.22.68-1.27,1.56-2.45,2.5-3.54,1.36-1.59,3.3-3.02,5.21-1.94,1.71.96,3.55,2.88,3.93,4.67.45,2.1-.36,4.6-1.09,6.77-.61,1.82-1.88,3.41-3.03,5.41Z"/>
      <path class="cls-2" d="M501.92,226.59c1.15-2,2.42-3.59,3.03-5.41.73-2.17,1.54-4.68,1.09-6.77-.39-1.8-2.23-3.71-3.93-4.67-1.9-1.07-3.84.36-5.21,1.94-.94,1.09-1.82,2.28-2.5,3.54-3.53,6.59-9.05,10.79-15.97,13.22-13.27,4.68-26.63,4.32-40.65.61,1.4-2.39,2.78-4.24,3.63-6.3,1.17-2.81,2.17-5.74,2.8-8.71.48-2.29-.61-4.39-2.81-5.4-2.1-.97-4.33-.78-6.1.86-1.59,1.48-3.22,3-4.45,4.76-15.82,22.67-38.65,33.14-65,37.63-14.16,2.41-28.43,3.7-42.75,4.11-23.99.68-46.26-5.64-67.07-17.41-.47-.27-1.26-.47-1.36-.84-1.62-6.01-7.66-4.81-11.58-7.03-.97-.55-3.16-.45-3.78.25-.7.79-.56,2.66-.26,3.93.27,1.16,1.25,2.16,1.9,3.2-16.16,16.42-46.78,20.14-68.71,6.55,3.1-2.05,6.14-4,9.12-6.03,1.19-.81,2.41-1.65,3.39-2.69,1.54-1.62,1.74-3.61.6-5.52-1.13-1.89-2.96-2.78-5.11-2.27-1.56.37-3.04,1.15-4.53,1.82-14.22,6.39-28.49,12.62-43.84,15.96-24.94,5.42-49.33,4.84-72.9-6.02-8.96-4.13-17.19-9.42-24.47-16.09-19.28-17.65-25.93-39.5-20.08-64.72,7.97-34.37,26.99-61.59,56-81.54,22.37-15.38,47.32-24.24,74.34-27.11,1.98-.21,4.01-.28,5.98-.07,3.01.32,6.19.32,8.25,3.32.42.61,2.11,1,2.74.64.68-.39,1.23-1.82,1.1-2.69-.53-3.52-2.68-6.08-6-7.11-3.78-1.17-7.73-1.81-11.61-2.62-1.2-.25-2.44-.33-4.08-.55,3.9-10.57,9.72-18.46,21.21-20.79,12.31-2.5,23.66-.09,34.26,5.84-1.61,3.24-3.3,6.05-4.43,9.07-1.32,3.51-.57,5.83,1.68,7.28,2.28,1.46,4.51.98,7.12-1.93,12.94-14.47,29.83-21.98,48.28-25.3,39.03-7.02,73.99,2.94,104.83,27.72,2.83,2.27,5.67,4.53,8.58,6.7,1.43,1.07,3.16,2.5,4.86,1,1.83-1.62.34-3.37-.72-4.79-4.31-5.81-8.69-11.57-13.35-17.75,1.29-.86,2.98-2.13,4.79-3.17,13.66-7.81,28.57-10.36,44.04-9.65,12.91.59,25.57,3.01,37.73,7.53,3.85,1.43,7.93,2.63,10.95,6.1-.66,1.52-1.34,2.97-1.92,4.46-1.67,4.31-1.27,8.53.55,12.7.96,2.21,2.59,3.69,5.01,3.4,2.39-.29,4.05-1.94,4.07-4.41.06-8.75,5.88-12.84,12.82-15.84,10.18-4.41,20.89-5.7,31.92-4.91,12.68.91,24.69,4.11,35.67,10.56,4.94,2.91,9.49,6.49,14.09,9.69-2.08,3.66-3.89,6.59-5.41,9.65-.7,1.42-1.36,3.2-1.11,4.65.27,1.57,1.31,3.59,2.61,4.25,1.29.65,3.51.25,4.95-.44,1.36-.65,2.31-2.24,3.33-3.51,4.03-5,9.18-8.03,15.47-9.41,18.16-3.98,35.8-1.56,52.86,4.87,23,8.67,41.33,23.24,53.33,45.04,5.04,9.16,8.31,18.85,8.33,29.53.03,12.64-4.29,23.42-12.86,32.57-8.93,9.54-19.99,15.38-32.95,18.72-.48-1.66-.89-3.19-1.36-4.7-1.16-3.73-2.88-7.22-6.34-9.2-1.94-1.11-4.46-1.95-6.6-1.72-1.86.2-4.04,1.7-5.18,3.28-1.43,1.98-.24,4.24,1.48,5.81,5.62,5.17,4.74,11,1.6,16.86-6.01,11.22-15.09,19.46-26.08,25.58-13.15,7.32-27.39,11.68-42.28,13.26-10.61,1.12-21.36,1.27-32.04,1.13-7.74-.1-15.46-1.49-23.07-4.5Z"/>
    </g>
  </g>
</svg>