<?xml version="1.0" encoding="UTF-8"?>
<svg id="Layer_2" data-name="Layer 2" xmlns="http://www.w3.org/2000/svg" viewBox="0 0 127.23 129.18">
  <defs>
    <style>
      .cls-1 {
        fill: #000;
        stroke-width: 0px;
      }
    </style>
  </defs>
  <g id="Layer_1-2" data-name="Layer 1">
    <path class="cls-1" d="M56.46,86.23c-5.55,6.48-10.74,12.77-16.19,18.84-6.06,6.75-12.33,13.31-18.57,19.9-1.24,1.3-2.64,2.54-4.18,3.44-1.85,1.08-4.16,1.18-5.44-.64-.89-1.26-1.48-3.59-.91-4.87,1.3-2.93,3.14-5.72,5.21-8.19,9.66-11.55,19.49-22.96,29.23-34.44,1.05-1.24,1.98-2.57,3.26-4.23-1.15-1.59-2.22-3.21-3.43-4.72-12.17-15.13-24.4-30.21-36.5-45.38-2.93-3.67-5.55-7.59-8.14-11.51-1.51-2.29-.82-3.94,1.59-5.29,4.34-2.45,8.92-3.71,13.95-3.53,5.8.21,11.6.18,17.41.16,2.88,0,4.76,1.11,5.81,3.91.55,1.47,1.56,2.84,2.62,4.03,9.16,10.3,18.38,20.54,27.57,30.81.48.54.87,1.15,1.72,2.27,1.58-1.84,2.85-3.26,4.07-4.72,9.39-11.31,18.76-22.63,28.17-33.92,1.62-1.95,3.35-3.82,5.18-5.58,3.08-2.95,6.36-3.35,8.69-1.26,2.17,1.94,2,4.62-.72,8.21-10.76,14.16-21.56,28.28-32.35,42.42-1.31,1.71-2.63,3.42-4.08,5.3.93,1.32,1.72,2.49,2.57,3.61,12.48,16.49,24.98,32.96,37.42,49.49,2.17,2.89,4.1,5.97,6.06,9.01,1.43,2.22.77,4.22-1.84,4.96-1.71.48-3.59.49-5.39.5-7.61.03-15.23-.01-22.84-.03-.36,0-.76-.18-1.08-.08-7.66,2.5-11.04-2.65-14.34-7.97-.48-.77-.95-1.54-1.51-2.25-7.11-8.95-14.23-17.9-21.36-26.83-.32-.41-.8-.69-1.66-1.43ZM63.68,56.8c-11.78-13.35-20.13-28.86-32.88-40.61-4.57.39-8.81.76-13.15,1.13,12.86,16.75,25.34,33.02,38.15,49.71,2.66-3.45,5.06-6.57,7.88-10.23ZM108.62,112.41c-12.51-15.39-24.42-30.05-36.68-45.14-3.05,3.75-5.62,6.91-8.26,10.16,9.29,11.29,18.24,22.22,27.28,33.08.74.89,2.05,1.76,3.14,1.81,4.44.2,8.89.08,14.53.08Z"/>
  </g>
</svg>