<?xml version="1.0" encoding="UTF-8"?>
<svg id="Layer_2" data-name="Layer 2" xmlns="http://www.w3.org/2000/svg" viewBox="0 0 385.54 309.5">
  <defs>
    <style>
      .cls-1 {
        fill: #000;
      }

      .cls-1, .cls-2 {
        stroke-width: 0px;
      }

      .cls-2 {
        fill: #fff;
      }
    </style>
  </defs>
  <g id="Layer_1-2" data-name="Layer 1">
    <g>
      <path class="cls-1" d="M163.43,242.9c-6.67,6.8-14.61,10.98-23.89,12.76-5.83,1.11-11.54,2.94-17.6,2.74-5.48,8.84-12.3,16.39-19.55,23.58-4.01,3.97-8.47,7.32-13.41,10.07-3.64,2.02-7.21,4.16-10.74,6.38-5.74,3.61-11.87,6.27-18.41,7.99-3.04.8-6.11,1.5-9.17,2.25-6.2,1.53-12.27.74-18.4-.62-5.29-1.17-10.68-1.91-16.02-2.85-.83-.15-1.68-.25-2.49-.48-1.05-.3-1.82-.98-1.95-2.11-.14-1.12.42-2.03,1.37-2.54.88-.48,1.85-.91,2.83-1.06,10.1-1.55,19.18-5.64,27.84-10.87,7.18-4.34,13.71-9.5,19.22-15.8,7.78-8.89,12.69-19.23,14.85-30.87.04-.24.01-.49.02-.84-2.67-1.25-5.31-2.6-8.05-3.74-5.33-2.2-10.76-4.17-16.06-6.44"/>
      <g>
        <path class="cls-1" d="M291.45,294.82c-3.38.18-6.79.24-10.17.58-6.59.66-13.15,1.62-19.75,2.18-8.64.74-17.31,1.17-25.96,1.84-14.45,1.12-28.9.62-43.32-.26-13.24-.8-26.45-2.1-39.53-4.41-13.14-2.32-26.3-4.6-39.4-7.16-4.56-.89-9.05-2.36-13.43-3.99-9.79-3.63-19.24-8.07-28.42-13.05-9.32-5.06-17.04-12.04-23.63-20.29-5.48-6.85-8.26-14.95-10.49-23.31-2.71-10.15-2.88-20.36-1.96-30.77,1.1-12.4,4.24-24.19,9.1-35.56,1.49-3.48,3.41-6.77,5.21-10.3-.38-.3-.79-.69-1.26-.98-8.47-5.14-15.92-11.63-23.44-18-13.51-11.43-20.57-26.47-23.99-43.49-3.01-14.98.87-28.69,8.11-41.6,6.56-11.69,15.88-20.96,26.82-28.62,5.29-3.71,11.46-5.29,17.55-7.07,8.95-2.61,18.1-3.78,27.39-4.26,4.48-.23,8.93-.86,13.39-1.31,2.62-.27,5.23-.69,7.86-.78,13.36-.44,26.69-1.77,40.1-1.28,11.41.42,22.85.65,34.26.38,8.66-.2,17.3-1.33,25.96-2.04,5.64-.46,11.28-1.21,16.92-1.25,9.37-.07,18.75.11,28.11.61,7.79.42,15.48,1.98,23.01,4,8.37,2.25,16.7,4.64,24.95,7.29,11.9,3.81,22.19,10.44,31.41,18.8,2.1,1.9,4.2,3.8,6.22,5.79,4.86,4.79,8.54,10.37,11.14,16.69,4.34,10.52,7.68,21.31,8.8,32.66.82,8.28.84,16.6-.49,24.83-.46,2.85-1.68,5.58-2.62,8.35-.53,1.57-1.32,3.06-1.76,4.65-.84,3.02-.29,4.19,2.39,5.8.75.45,1.5.93,2.28,1.31,7.78,3.79,13.12,10.07,17.3,17.38,7.53,13.17,12.56,27.2,14.37,42.37,2.44,20.47.53,40.47-5.24,60.22-3.07,10.5-8.84,19.04-17.28,25.87-5.3,4.29-10.35,5.59-19.69,9.56M339.79,277.5c5.17-4.15,14.8-5.45,19.84-9.75,4.91-4.19,8.48-9.42,10.54-15.59,3.23-9.66,5.35-19.59,6.47-29.69,1.16-10.41.81-20.83-.42-31.25-1.7-14.31-6.62-27.45-13.96-39.72-3.7-6.19-8.5-11.4-15-14.87-1.53-.82-2.95-1.92-4.25-3.08-2.01-1.79-2.97-4.17-2.77-6.82.28-3.59.51-7.23,2.04-10.58,1.87-4.08,2.36-8.42,2.62-12.82.91-15.49-2.19-30.24-7.72-44.64-2.95-7.69-7.51-14.07-13.6-19.48-1.39-1.23-2.8-2.44-4.19-3.67-7.47-6.6-15.81-11.7-25.21-15.08-9.36-3.37-18.89-6.15-28.6-8.33-7.62-1.71-15.29-3.01-23.1-3.49-18.79-1.17-37.43.88-56.1,2.48-9.83.84-19.69,1.13-29.55.8-7.61-.25-15.22-.88-22.83-.8-9.17.09-18.33.74-27.49,1.18-2.73.13-5.46.34-8.17.62-6.4.65-12.78,1.64-19.2,1.97-8.83.45-17.38,2.13-25.83,4.63-4.5,1.33-9.01,2.6-12.92,5.29-10.04,6.91-18.42,15.46-24.35,26.13-6.8,12.22-9.93,25.12-6.26,39.14,3.22,12.3,8.16,23.66,17.66,32.46,7.09,6.57,14.56,12.72,22.69,18,2.21,1.44,4.49,2.76,6.66,4.26,3.19,2.2,3.78,5.06,1.85,8.39-.44.76-1,1.45-1.42,2.22-1.79,3.35-3.8,6.61-5.27,10.09-4.12,9.75-6.87,19.86-8.03,30.44-1.11,10.09-1.08,20.03,1.63,29.9,2.01,7.3,4.42,14.38,9.29,20.34,5.99,7.33,12.89,13.7,21.42,17.91,8.73,4.31,17.63,8.32,26.6,12.13,4.01,1.7,8.31,2.84,12.57,3.81,13.11,3,26.37,5.18,39.67,7.22,12.92,1.99,25.9,3.57,38.93,4.36,11.78.71,23.59,1.28,35.41.36,10.01-.78,20.04-1.23,30.06-1.95,4.95-.36,9.88-1,14.81-1.53,6.32-.69,12.64-.96,18.97-.19"/>
        <path class="cls-2" d="M274.31,288.48c-4.96.28-9.86,1.17-14.81,1.53-10.01.73-20.05,1.17-30.06,1.95-11.82.92-23.63.36-35.41-.36-13.03-.79-26-2.37-38.93-4.36-13.29-2.05-26.56-4.23-39.67-7.22-4.26-.97-8.56-2.11-12.57-3.81-8.97-3.81-17.86-7.82-26.6-12.13-8.53-4.21-15.43-10.58-21.42-17.91-4.87-5.96-7.29-13.04-9.29-20.34-2.72-9.87-2.74-19.81-1.63-29.9,1.16-10.58,3.91-20.69,8.03-30.44,1.47-3.48,3.48-6.74,5.27-10.09.41-.77.98-1.46,1.42-2.22,1.92-3.33,1.33-6.18-1.85-8.39-2.16-1.5-4.45-2.82-6.66-4.26-8.13-5.29-15.59-11.44-22.69-18-9.5-8.8-14.44-20.15-17.66-32.46-3.67-14.01-.54-26.91,6.26-39.14,5.94-10.67,14.31-19.21,24.35-26.13,3.91-2.69,8.43-3.97,12.92-5.29,8.44-2.49,16.99-4.17,25.83-4.63,6.42-.33,12.8-1.32,19.2-1.97,2.72-.28,5.44-.49,8.17-.62,9.16-.45,18.33-1.09,27.49-1.18,7.61-.08,15.22.55,22.83.8,9.87.33,19.72.04,29.55-.8,18.67-1.59,37.31-3.64,56.1-2.48,7.81.48,15.48,1.79,23.1,3.49,9.71,2.18,19.23,4.96,28.6,8.33,9.4,3.38,17.75,8.48,25.21,15.08,1.39,1.23,2.8,2.44,4.19,3.67,6.09,5.4,10.65,11.79,13.6,19.48,5.53,14.4,8.63,29.15,7.72,44.64-.26,4.4-.75,8.74-2.62,12.82-1.53,3.35-1.76,6.99-2.04,10.58-.21,2.66.76,5.04,2.77,6.82,1.3,1.16,2.72,2.26,4.25,3.08,6.49,3.47,11.29,8.68,15,14.87,7.34,12.27,12.26,25.41,13.96,39.72,1.24,10.42,1.59,20.84.42,31.25-1.13,10.1-3.25,20.03-6.47,29.69-2.06,6.16-5.63,11.4-10.54,15.59,0,0-18.31,16.93-85.32,20.73Z"/>
      </g>
      <path class="cls-2" d="M155.89,240.23c-4.11,3.89-9.01,6.43-14.5,7.64-5.64,1.23-11.35,2.14-17.02,3.21-1.75.33-3.52.61-5.24,1.08-1.73.48-2.77,1.87-3.68,3.31-5.48,8.69-12.29,16.25-19.77,23.21-2.84,2.64-6.14,4.81-9.4,6.94-3.98,2.59-8.19,4.84-12.23,7.37-6.96,4.36-14.72,6.48-22.55,8.56-6.21,1.64-12.25,1.5-18.35-.16-.31-.08-.61-.22-1.27-.47,2.16-.96,4.02-1.74,5.84-2.62,11.32-5.42,21.47-12.53,29.64-22.07,7.95-9.29,13.58-19.91,16.1-32.01.14-.66.36-1.31.56-1.96.87-2.87.44-4.17-2-5.88-4.55-3.19-9.51-5.58-14.64-7.65-4.01-1.62-8.05-3.15-12-4.91"/>
    </g>
  </g>
</svg>