<?xml version="1.0" encoding="UTF-8"?>
<svg id="Layer_2" data-name="Layer 2" xmlns="http://www.w3.org/2000/svg" viewBox="0 0 1039.64 378.06">
  <defs>
    <style>
      .cls-1 {
        fill: #dcdbab;
        stroke-width: 0px;
      }
    </style>
  </defs>
  <g id="Layer_1-2" data-name="Layer 1">
    <g>
      <g id="WoPZYv">
        <g>
          <path class="cls-1" d="M783.9,300.68c6.5,3.16,13.37,2.56,20.17,1.14,21.6-4.51,36.23-18.01,46.71-36.66,5.26-9.35,8.22-19.51,9.76-30.1l.02-.22c.19-3.08.42-6.24-3.06-7.8-2.22-1-5.1.83-6.82,4.69-3.88,8.75-8.25,17.15-14.55,24.48-13.61,15.83-37.16,22.68-55.01,15.67-12.79-5.02-19.38-15.04-21.77-28.13-.72-3.95-.88-7.99-1.35-12.55-2.94,4.06-5.48,7.75-8.2,11.31-9.64,12.61-20.58,23.73-35.3,30.48-7.17,3.28-14.68,5.05-22.55,5.38-14.63.61-24.86-6.07-31.45-18.89-5.75-11.19-8.57-23.27-10.88-35.49-1.34-7.07-2.18-14.24-3.6-21.29-.58-2.88-1.65-5.91-3.33-8.28-4.1-5.81-11.16-5.74-15.69-.23-3.87,4.71-4.43,10.4-4.51,16.14-.15,11.29.26,22.61-.33,33.88-.31,5.93-1.51,12.07-3.62,17.61-5.21,13.72-17.6,18.12-30.96,16.17-13.94-2.04-22.01-10.94-23.85-25.99-.94-7.68-.87-15.48-1.27-23.52-2.02,2.31-4.01,4.64-6.07,6.91-15.37,16.94-32.74,31.08-54.85,38.3-17.68,5.77-35.54,6.93-53.36.56-17.73-6.34-29.07-19.12-35.5-36.47-1.96-5.28-3.21-10.82-4.89-16.61-1.87,2.33-3.7,4.65-5.57,6.93-15.22,18.6-32.58,34.55-55.25,43.67-17.05,6.86-34.7,8.94-52.63,4.32-22.63-5.83-36.56-21.03-42.99-43-8.76-29.95-3.73-58.72,9.44-86.3,9.74-20.41,23.83-37.27,43.97-48.17,20.21-10.94,41.58-14.6,63.93-7.44,16.47,5.28,27.58,20.84,29.44,38.06,3.27,30.22-20.56,61.03-53,64.67-13.03,1.46-25.74.7-37.76-5.33-3.71-1.86-6.4-.02-6.57,4.15-.23,5.69,2.63,9.75,7.01,12.89,5.93,4.23,12.78,6.12,19.86,6.96,30.91,3.67,57.01-6.2,78.44-28.53,1.86-1.94,3.08-4.88,3.72-7.56,6.25-26.48,18.01-49.89,38.89-67.79,21.88-18.75,47.15-25.77,75.36-18.16,24.6,6.63,34.14,28,32.21,49.44-1.16,12.89-5.57,24.27-16.2,32.35-9.93,7.55-20.99,9.96-33.03,6.35-1.23-.37-2.41-.85-3.53-1.47-6.09-3.35-7.22-7.72-3.79-12.64,1.65-2.38,3.97-4.61,4.69-7.26,1.13-4.15,2.06-8.72,1.46-12.88-.98-6.84-8.65-10.75-17.02-9.75-7.24.86-12.88,4.31-17.18,10.15-11.97,16.26-10.44,42.39,3.58,55.16,11.09,10.1,24.69,12.61,39.06,10.96,26.11-3,45.92-16.56,60.97-37.64.79-1.11,1.28-2.46,1.75-3.76,12.33-34.53,13.8-44.98,26.73-79.27,5.26-13.94,12.53-27.16,19.39-40.45,3.48-6.73,8.55-12.48,14.88-16.88,5.25-3.64,11.02-5.4,17.46-4.42,8.63,1.31,12.9,6.24,11.7,14.95-.83,6.02-2.3,12.16-4.7,17.72-7.13,16.52-15.02,32.71-22.31,49.16-7.96,17.95-4.56,12.02-8.34,31.4-1.19,6.1,1.94,10.13,8.07,10.19,6.17.06,10.35-2.79,13.3-8.35,5.7-10.76,11.26-21.67,17.97-31.79,7.63-11.51,18.08-19.97,32.07-23.03,7.87-1.72,15.69-1.57,23.42.91,12.64,4.05,20.75,16.14,20.23,29.4-.84,21.25-12.65,33.92-34.04,36.33-5.54.63-11.14.77-16.68,1.41-7.63.88-12.88,5.48-14.36,12.23-1.67,7.63,1,14.05,7.67,18.31,5.64,3.61,12.01,5.1,18.52,5.55,13.54.93,27.02.34,39.85-4.66,3.95-1.54,7.65-3.88,11.17-6.29,4.64-3.17,7.56-7.65,9.28-13.1,5.62-17.85,12.02-35.41,21.02-51.87,5.32-9.74,11.16-19.26,20.95-25.18,3.46-2.09,7.68-3.53,11.69-3.97,7.69-.84,12.19,3.6,12.77,11.37.84,11.27-2.13,21.87-5.49,32.43-3.51,11.05-7.39,22.02-10.1,33.27-1.35,5.59-1.05,11.79-.42,17.59.63,5.82,4.82,9.24,10.6,9.89,12.91,1.45,23.68-2.52,30.35-14.04,3.57-6.16,6.15-12.99,8.49-19.76,5.88-17.03,11.77-34.03,21.14-49.55,4.17-6.91,8.98-13.33,15.96-17.75,5.95-3.77,12.37-4.52,19.08-2.74,5.67,1.51,9,5.9,9.65,12.3.75,7.35-.77,14.38-3.32,21.17-6.57,17.49-13.61,34.8-19.87,52.4-4.35,12.22-7.72,24.8-11.5,37.22-.29.96-.35,1.99-.59,3.41,10.22-3.87,19.45-8.63,27.95-14.78,14.68-10.61,25.65-23.88,29.9-41.92,1.73-7.35,2.08-14.85.26-22.13-.94-3.77-2.8-7.98-5.58-10.5-5.97-5.4-6.31-11.48-4.41-18.41,1.82-6.67,5.75-11.92,11.26-15.93,17.65-12.84,52.67-12.13,69.31,6.95,7.74,8.87,11.31,19.38,12.01,30.92,1.73,28.34-10.23,50.97-29.93,70.12-19.92,19.37-43.89,32.45-69.47,42.47-16.39,6.42-33.32,11.48-50.07,16.97-2.68.88-4.14,2.03-5,4.84-7.49,24.47-16.05,48.52-29.4,70.54-8.05,13.27-17.76,25.07-31.15,33.37-12.98,8.04-27.27,10.91-42.34,10.47-10.65-.32-21.09-1.91-30.81-6.51-18.84-8.92-29.08-23.76-29.79-44.69-.73-21.44,7.18-38.77,25.41-50.79,0,0,16.69-10.96,30.83-.35,4.56,3.42,2.9,11.27,1.68,14.61,0,0-3.37,7.59,4.48,10.4ZM326.9,165.9c11.03.12,20.52-6.78,23.26-16.92,2.32-8.58-2.24-16.61-10.86-18.81-6.54-1.67-12.95-1.07-18.86,2.3-6.04,3.44-10.27,8.47-11.09,15.57-1.25,10.8,5.72,17.74,17.56,17.86Z"/>
          <path class="cls-1" d="M69.14,171.96c.05,4.02,0,7.46.34,11.46,1.24,15.11,4.44,29.64,11.61,43.05,15.1,28.2,47.41,37.01,73.2,19.27,6.29-4.33,11.2-10.85,16.86-16.22,1.06-1,3.34-2.27,3.91-1.82,1.29,1.02,2.12,2.95,2.65,4.68.28.94-.28,2.3-.74,3.33-5.7,12.83-13.53,23.89-25.1,31.56-16.13,10.7-33.83,12.57-52.24,9.22-25.79-4.69-47.87-22.99-48.98-52.13-.15-4.06-2.26-5.74-6.55-5.59-16.5.56-28.14,9.53-35.58,24.21-17.41,34.37-8.77,81.86,31.48,103.87,25.71,14.06,52.99,15.53,80.67,8.43,39.64-10.18,67.42-36.3,87.01-72.86,7.92-14.78,12.96-30.77,17.56-46.91,6.88-24.17,13.61-48.39,20.18-72.65,2.15-7.97-2.09-14.72-9.75-16.29-5.27-1.08-9.95.57-13.44,4.79-11.64,14.07-26.67,18.93-43.93,18.3-16-.58-29.39-10.9-34.27-26.89-4.08-13.36-3.11-26.51,2.79-38.94,9.3-19.6,24.16-30.88,45.63-30.95,10.93-.04,18.77,6.26,20.02,16.86.66,5.58.1,11.9-1.84,17.09-3.25,8.67,1.11,12.81,7.35,13.88,5.5.94,11.43.95,16.92-.11,47.57-9.16,57.71-60.29,40.14-92.28-9.97-18.15-26.64-25.37-45.53-27.53-25.26-2.89-49.37,2.37-71.4,15.15-58.12,33.74-85.51,84.39-88.92,152.76l-.06,3.28Z"/>
        </g>
      </g>
      <g>
        <path class="cls-1" d="M372.53,16.34c.91-1.54,1.86-2.55,2.84-3.03.98-.48,2.07-.71,3.26-.68,2.04.05,3.36.93,3.95,2.61.06.08.02.4-.12.98-.69,2.67-3.31,8.68-7.87,18.04-4.56,9.36-8.3,16.36-11.21,21-3.05,4.86-6.07,7.25-9.05,7.17-2.64-.07-4.92-2.02-6.85-5.85-1.46-3.31-2.7-6.64-3.71-10.01-1.12-3.95-1.98-5.94-2.58-5.95h-.13c-.56.49-2.83,3.34-6.83,8.53-4.35,5.55-7.12,8.63-8.31,9.26-1.12.7-2.41,1.03-3.85.99-1.79-.05-3.05-.63-3.79-1.74-1.74-2.23-2.92-9.45-3.53-21.66-.25-5.02-.67-9.35-1.27-13-.46-2.19-.54-3.9-.22-5.13.37-1.44,1.29-2.51,2.75-3.19.81-.49,1.73-.72,2.75-.69,1.36.04,2.61.69,3.74,1.95,1.56,1.93,2.51,8.53,2.86,19.79.18,4.29.45,6.73.81,7.32.4.45.65.64.75.56s.49-.57,1.16-1.49c1.32-1.78,3.44-4.38,6.38-7.78,2.59-3.05,4.69-5.16,6.32-6.31,1.63-1.16,3.21-1.71,4.74-1.67s2.75.82,3.64,2.33c.89,1.51,2.1,4.8,3.63,9.85,1.94,6.44,3.11,9.67,3.54,9.68.68.02,4.18-6.71,10.49-20.2,2.9-6.24,4.8-10.13,5.71-11.67Z"/>
        <path class="cls-1" d="M398.51,15.78c1.2-.98,2.48-1.46,3.84-1.42,1.45.04,2.55.58,3.31,1.61.51.67.68,1.69.49,3.06-.18,1.38-1.06,5.27-2.63,11.7l-3.47,13.42,6.55.5c.26,0,.7.04,1.33.09.63.05,1.15.08,1.58.1,3.57.1,7.6.02,12.08-.22,4.48-.24,6.92-.51,7.34-.79.14-.21.26-.5.35-.86.37-1.44,1.01-5,1.92-10.68.91-5.68,1.46-8.88,1.64-9.6.26-1.01,1.08-2,2.44-2.99,1.37-.98,2.65-1.46,3.84-1.42,2.98.08,4.33,1.82,4.05,5.23-.09,1.67-1.69,9.18-4.79,22.53l-4.77,19.48-1.87,1.26c-1.35.91-2.66,1.35-3.94,1.31-2.47-.07-3.77-1.33-3.9-3.81-.11-1.24.27-3.51,1.12-6.83.76-2.96.85-4.44.25-4.46-.26,0-.48.02-.67.09-1.08.19-5.87.32-14.37.38h-12.85s-1.33,3.65-1.33,3.65c-1.12,3.02-2.23,5.08-3.33,6.18-1.1,1.1-2.58,1.62-4.45,1.57-.94-.02-1.82-.41-2.66-1.16-.84-.75-1.26-1.59-1.27-2.54-.05-.15.04-.65.26-1.52.41-1.59.98-3.31,1.72-5.18,1.52-3.88,3.6-10.94,6.24-21.19,1.94-7.5,3.19-12.12,3.77-13.84.58-1.73,1.29-2.94,2.16-3.65Z"/>
        <path class="cls-1" d="M478.17,16.48c2.97-.21,4.92-.31,5.86-.28,4.68.12,6.68,1.52,5.99,4.19l-.14.54c-.64,1.8-1.77,2.95-3.4,3.45-1.63.5-5.15.79-10.57.86l-9.28.08-2.02,9.32c-1.24,6.14-1.83,9.25-1.76,9.32h.25c1.19.04,5.71-.2,13.56-.72,1.74-.1,2.69-.15,2.87-.14,1.02.03,1.83.38,2.43,1.05.73.82.95,1.81.65,2.96-.35,1.37-1.14,2.4-2.34,3.1-2.33,1.39-6.96,2.21-13.88,2.46l-5.32.19-1.82,7.03,3.49.42c.66.09,2.1.16,4.31.22,2.47.07,4.31.08,5.52.04,1.12-.04,2.5-.04,4.11,0,1.7.05,2.89.26,3.56.64.67.38,1.13,1.08,1.38,2.11.11.58.09,1.13-.04,1.63-.48,1.88-2.15,3.18-4.99,3.9-1.64.39-4.89.52-9.74.39-8.6-.23-13.86-.77-15.78-1.62l-.23-.11c-1.45-.69-2.27-1.51-2.45-2.46-.38-1.54.85-8.11,3.68-19.73,0-.36.11-.9.29-1.63l.48-1.84c2.44-10.1,3.72-15.41,3.85-15.91,1.1-4.25,2.06-6.66,2.89-7.22,2.24-1.68,5.01-2.48,8.33-2.39.17,0,.42.03.75.07.33.05.62.07.88.08.49.09,1.42.15,2.78.18,2.13.06,4.07,0,5.83-.17Z"/>
        <path class="cls-1" d="M518.72,17.78c2.51-.44,5-.63,7.47-.56,6.38.17,11.75,2.46,16.1,6.86,2.32,2.31,3.74,4.53,4.26,6.65.52,2.12.4,4.99-.36,8.6-.09.36-.2.87-.33,1.52-.13.65-.22,1.08-.27,1.3-.5,1.95-1.46,3.81-2.86,5.59-2.32,2.99-6.2,5.57-11.64,7.75-2.7,1.16-4.09,1.89-4.16,2.18-.13.51.27,1.61,1.21,3.3,1.08,2.14,1.47,3.78,1.17,4.93-.22.87-.82,1.69-1.79,2.46-1.2.99-2.61,1.46-4.22,1.41-1.45-.04-2.51-.41-3.18-1.12-.67-.71-1.71-2.5-3.11-5.37-.78-1.62-1.41-2.67-1.88-3.16-.48-.48-1.1-.74-1.86-.76-1.36-.04-2.61-.18-3.75-.43l-2.09-.38-.72,4.77-.85,4.77-2.49,1.68c-1.58,1.12-2.96,1.66-4.15,1.63-.94-.02-1.87-.41-2.78-1.16-.92-.75-1.06-2.86-.42-6.33.93-4.91,2.14-10.25,3.63-16.03,1.9-7.36,3.55-12.94,4.97-16.75,1.7-4.6,3.55-7.84,5.53-9.71,1.98-1.87,4.85-3.08,8.59-3.64ZM529.75,27.33c-1.84-.85-3.99-1.3-6.46-1.37-3.75-.1-5.99.46-6.73,1.67-.32.57-1.39,3.65-3.22,9.23-1.83,5.58-3.03,9.49-3.61,11.72-.06.22-.09.42-.09.6,0,.18-.02.34-.06.49l-.03.11c.05.15,1.9.27,5.56.37,2.38.06,4.16,0,5.32-.19,1.16-.19,2.82-.65,4.99-1.39,3.5-1.29,5.9-2.42,7.18-3.4,1.47-1.05,2.41-2.37,2.82-3.96l.34-1.3c1.37-5.63-.64-9.82-6.01-12.58Z"/>
        <path class="cls-1" d="M583.38,19.28c2.97-.21,4.92-.31,5.86-.28,4.68.12,6.68,1.52,5.99,4.19l-.14.54c-.64,1.8-1.77,2.95-3.4,3.45-1.63.5-5.15.79-10.57.86l-9.28.08-2.02,9.32c-1.24,6.14-1.83,9.25-1.76,9.32h.25c1.19.04,5.71-.2,13.56-.72,1.74-.1,2.69-.15,2.87-.14,1.02.03,1.83.38,2.43,1.05.73.82.95,1.81.65,2.96-.35,1.37-1.14,2.4-2.34,3.1-2.33,1.39-6.96,2.21-13.88,2.46l-5.32.19-1.82,7.03,3.49.42c.66.09,2.1.16,4.31.22,2.47.07,4.31.08,5.52.04,1.12-.04,2.5-.04,4.11,0,1.7.05,2.89.26,3.56.64.67.38,1.13,1.08,1.38,2.11.11.58.09,1.13-.04,1.63-.48,1.88-2.15,3.18-4.99,3.9-1.64.39-4.89.52-9.74.39-8.6-.23-13.86-.77-15.78-1.62l-.23-.11c-1.45-.69-2.27-1.51-2.45-2.46-.38-1.54.85-8.11,3.68-19.73,0-.36.11-.9.29-1.63l.48-1.84c2.44-10.1,3.72-15.41,3.85-15.91,1.1-4.25,2.06-6.66,2.89-7.22,2.24-1.68,5.01-2.48,8.33-2.39.17,0,.42.03.75.07.33.05.62.07.88.08.49.09,1.42.15,2.78.18,2.13.06,4.07,0,5.83-.17Z"/>
        <g>
          <path class="cls-1" d="M701.54,16.82c1.48-.76,2.48-1.13,2.99-1.12.85.02,1.73.28,2.63.78.9.5,1.45,1,1.67,1.52.45,1.25-.11,7.22-1.67,17.93-1.57,10.71-2.99,18.55-4.28,23.53-.37,1.44-.7,2.38-.98,2.81-1.45,1.63-3.2,2.42-5.24,2.37s-3.31-.81-3.78-2.28c-.34-.66.14-4.35,1.45-11.07.87-4.7,1.84-11.1,2.9-19.21.62-5.72,1.18-9.56,1.69-11.5.47-1.8,1.35-3.05,2.64-3.74Z"/>
          <path class="cls-1" d="M741.21,16.02c1.96-.6,4.08-.87,6.38-.81s4.13.44,5.75,1.13c1.47.62,3.52,2.31,6.15,5.07,1.53,1.71,2.48,2.92,2.86,3.62.38.7.45,1.48.23,2.35-.34,1.3-1.2,2.33-2.6,3.09-1.4.76-2.56,1.13-3.5,1.11-1.53-.04-3.72-1.52-6.57-4.42-1.95-2.08-3.6-3.15-4.96-3.18-2.38-.06-4.61,1.58-6.68,4.94-.44.71-.76,1.43-.94,2.15-.67,2.6,1.28,6.32,5.86,11.16,2.88,3.13,4.73,5.59,5.55,7.39.82,1.8,1,3.75.55,5.84-1.14,4.4-4.99,7.86-11.55,10.37-2.66,1.02-5.4,1.49-8.21,1.42-4-.11-7.19-1.21-9.56-3.3-2.07-1.94-3.11-4.08-3.1-6.4-.01-.29.05-.69.18-1.19.32-1.23,1.05-2.24,2.2-3.05,1.15-.8,2.46-1.22,3.92-1.26.94.02,1.91.49,2.92,1.38,1.01.9,1.43,1.67,1.26,2.32-.13.51.3,1.08,1.29,1.72.99.64,2,.98,3.02,1.01,1.19.03,2.61-.33,4.27-1.08,1.72-.68,2.69-1.45,2.91-2.32.26-1.01-.63-2.52-2.68-4.54-4.74-4.55-7.66-8.34-8.77-11.35-.57-1.47-.84-2.65-.81-3.56.02-.91.35-2.59.98-5.04.97-3.75,2.12-6.37,3.44-7.86,2.98-3.26,6.39-5.5,10.22-6.7Z"/>
        </g>
      </g>
      <g>
        <path class="cls-1" d="M330.31,296.25c1.37-.36,2.47-.53,3.29-.49s1.84.34,3.05.91c1.55.8,2.49,1.78,2.82,2.95.32,1.17-.03,3.36-1.06,6.57-1.2,3.73-4.71,12.31-10.54,25.72-5.17,11.76-9.42,20.04-12.77,24.84-3.75,5.62-8.1,8.33-13.05,8.13-4.54-.19-8.05-2.04-10.55-5.55-2.5-3.51-5.65-11.08-9.45-22.68-1.7-4.69-3.06-8.5-4.07-11.43-1.01-2.93-1.61-4.34-1.77-4.25-.17.1-2.88,6.81-8.13,20.14-3.64,9.62-5.97,15.38-7,17.28-1.03,1.9-2.29,3.24-3.8,4.02-2.12.96-4,1.41-5.65,1.34-3.99-.16-5.97-2.45-5.95-6.86.11-2.09,1.85-8.38,5.2-18.85,3.95-12.33,7.1-21.08,9.45-26.23,3.83-8.03,8.21-12.79,13.14-14.27,2.46-.74,4.45-1.08,5.97-1.01,3.02.12,5.64,2.07,7.85,5.84,2.2,3.77,5.2,11.03,9,21.8,4.58,13.11,7.41,19.68,8.51,19.73.13,0,.32-.14.56-.45,2.73-4.19,7.59-15.44,14.58-33.74,1.84-4.86,3.42-8.18,4.76-9.96,1.33-1.78,3.21-2.94,5.6-3.47Z"/>
        <path class="cls-1" d="M384.26,299.42c4.79-1.48,9.87-2.11,15.23-1.89,4.54.19,8.49.88,11.88,2.06,2.89.96,5.62,1.6,8.16,1.91,3.54.25,7.46,2.57,11.78,6.94,7.3,7.23,9.07,16.71,5.31,28.42l-.75,2.33c-1.37,3.41-2.54,5.86-3.5,7.34-.97,1.48-2.98,3.74-6.03,6.76-12.48,12.4-27.3,18.25-44.49,17.54l-.62-.03c-5.64-.23-10.24-1.1-13.79-2.62-4.42-1.86-8.33-4.99-11.73-9.38-3.4-4.39-5.36-8.81-5.89-13.24-.49-4.12.34-9.54,2.5-16.28.83-2.59,1.72-4.71,2.66-6.35,3.1-5.33,7.33-10.15,12.67-14.44,5.35-4.29,10.88-7.32,16.6-9.08ZM400.62,310.96c-2.66-.84-4.46-1.29-5.43-1.33-.69-.03-2.3.22-4.84.75-2.54.53-5.61,2.08-9.23,4.66-3.62,2.58-6.44,5.3-8.47,8.16-1.59,2.35-2.9,5.13-3.93,8.35-1.96,6.12-2.2,10.78-.72,13.99,2.6,5.78,5.98,9.6,10.12,11.44,2.21.93,4.62,1.45,7.23,1.56,8.11.33,15.12-1.53,21.02-5.59,2.49-1.68,5.05-3.91,7.68-6.69,2.63-2.78,4.5-5.25,5.62-7.41.03-.1.15-.36.35-.77.2-.41.33-.72.4-.93,1.79-5.6,1.54-10.91-.74-15.94-.88-2.03-2.56-3.97-5.04-5.8-2.48-1.83-4.68-2.79-6.6-2.87-1.38-.06-3.86-.58-7.44-1.57Z"/>
        <path class="cls-1" d="M563.79,309.1c1.54-2.19,3.11-3.63,4.72-4.3,1.61-.67,3.37-.96,5.3-.88,3.3.14,5.39,1.43,6.28,3.88.1.11.02.58-.24,1.41-1.23,3.84-5.73,12.45-13.5,25.83-7.77,13.39-14.12,23.39-19.02,30.02-5.15,6.93-10.13,10.29-14.94,10.1-4.26-.18-7.87-3.05-10.81-8.64-2.22-4.82-4.08-9.67-5.57-14.57-1.64-5.74-2.95-8.63-3.91-8.67h-.21c-.92.69-4.73,4.73-11.41,12.12-7.27,7.89-11.87,12.27-13.82,13.14-1.85.98-3.94,1.41-6.27,1.32-2.89-.12-4.91-.99-6.06-2.61-2.72-3.26-4.31-13.73-4.78-31.39-.18-7.25-.68-13.52-1.5-18.81-.65-3.18-.7-5.65-.13-7.41.66-2.07,2.19-3.58,4.59-4.54,1.33-.68,2.82-.99,4.47-.92,2.2.09,4.18,1.07,5.96,2.92,2.43,2.83,3.69,12.39,3.77,28.67.1,6.2.43,9.73.99,10.6.62.66,1.02.94,1.19.84s.81-.81,1.93-2.13c2.2-2.53,5.76-6.22,10.65-11.06,4.31-4.34,7.81-7.32,10.49-8.94,2.68-1.62,5.26-2.38,7.73-2.28s4.4,1.26,5.78,3.47c1.38,2.21,3.19,6.98,5.44,14.32,2.85,9.36,4.62,14.05,5.31,14.08,1.1.05,7.04-9.58,17.82-28.88,4.95-8.93,8.2-14.5,9.74-16.69Z"/>
        <path class="cls-1" d="M622.05,304.65c1.82-.45,4.1-.62,6.85-.51,8.8.36,15.7,2.96,20.7,7.79,2.12,2.08,3.35,4.1,3.7,6.06.35,1.96,0,4.54-1.02,7.76-1.83,5.7-6.76,11.54-14.8,17.51-6.27,4.78-9.87,8.63-10.8,11.53-1.3,4.04-4.49,5.96-9.57,5.75-3.03-.12-5.13-.94-6.31-2.47-1.19-1.52-1.38-3.52-.58-6.01,1.33-4.15,6.25-9.51,14.77-16.09,6.54-5.19,10.18-8.93,10.91-11.21.66-2.07-.54-3.96-3.62-5.66-2.49-1.36-4.63-2.08-6.41-2.16-2.2-.09-5.13.79-8.78,2.63-3.96,1.94-6.77,3.08-8.41,3.43-.45.09-1.01.12-1.7.09-1.51-.06-2.91-.49-4.19-1.27-1.28-.79-2.1-1.71-2.45-2.78-.18-.74-.16-1.48.08-2.2.76-2.38,3.14-4.7,7.14-6.95,3.99-2.25,8.83-3.99,14.53-5.23ZM612.02,367.25c1.84-1.39,4.07-2.04,6.68-1.93,2.06.08,3.72.68,4.97,1.78,1.25,1.1,1.59,2.53,1.02,4.3-.43,1.35-1.77,2.71-4.03,4.09-2.25,1.38-4.2,2.03-5.85,1.96-1.38-.06-2.84-.9-4.41-2.54s-2.18-2.98-1.85-4.01c.3-.93,1.45-2.15,3.47-3.64Z"/>
      </g>
    </g>
  </g>
</svg>