<?xml version="1.0" encoding="UTF-8"?>
<svg id="Layer_2" data-name="Layer 2" xmlns="http://www.w3.org/2000/svg" viewBox="0 0 142.62 131.92">
  <defs>
    <style>
      .cls-1 {
        fill: #ddd9a8;
        stroke-width: 0px;
      }
    </style>
  </defs>
  <g id="Layer_1-2" data-name="Layer 1">
    <path class="cls-1" d="M80.59,63.76c-1.33.4-1.86.44-2.24.69-13.46,8.91-27.32,17.3-39.17,28.39-4.58,4.28-8.64,4.53-13.81.31-4.12-3.36-9.39-5.34-14.19-7.86-2.88-1.51-6.01-2.62-8.71-4.4-3.28-2.17-3.21-4.14-.24-6.84,1.2-1.09,2.4-2.27,3.81-3.01,28.3-14.79,55.74-31.08,83.38-47.02,13.03-7.52,26.4-14.45,39.62-21.64,3.4-1.85,6.92-3.77,10.64-.99,3.66,2.74,3.29,6.61,2.17,10.42-3.37,11.48-6.7,22.97-10.28,34.38-7.64,24.32-12.18,49.26-15.12,74.53-.25,2.16-.47,4.36-1.08,6.43-1.32,4.49-5.5,6.08-9.43,3.55-1.81-1.17-3.33-2.79-4.91-4.29-10.64-10.1-22.39-18.44-36.56-22.91-.86-.27-1.72-.6-2.52-1.01-4.51-2.34-5.32-6.33-2.06-10.33,1.03-1.26,2.27-2.35,3.44-3.48,7.24-6.99,11.87-15.72,17.26-24.93Z"/>
  </g>
</svg>