<?xml version="1.0" encoding="UTF-8"?>
<svg id="Layer_2" data-name="Layer 2" xmlns="http://www.w3.org/2000/svg" viewBox="0 0 125.14 38.77">
  <defs>
    <style>
      .cls-1 {
        fill: #dcdaab;
        stroke-width: 0px;
      }
    </style>
  </defs>
  <g id="Layer_1-2" data-name="Layer 1">
    <g>
      <path class="cls-1" d="M35.24,8.49c-1.3-.57-2.9-.85-4.8-.85-1.13,0-1.98.12-2.55.35-2.23.83-4.07,2.42-5.52,4.75-1.45,2.33-2.17,4.85-2.17,7.55,0,.97.17,2.08.5,3.33.33,1.25.73,2.23,1.2,2.92.9,1.4,2.26,2.55,4.08,3.45,1.82.9,3.66,1.35,5.52,1.35.5,0,.87-.02,1.1-.05,2.03-.23,3.28-.62,3.75-1.15.47-.53.7-1.83.7-3.9,0-1.6-.08-2.67-.25-3.23-.17-.55-.55-1.06-1.15-1.52-.7-.5-1.92-.75-3.65-.75-.53,0-.97.05-1.3.15-1.1.27-1.65.93-1.65,2,0,.57.2,1.05.6,1.45.4.4.87.6,1.4.6.07,0,.17,0,.3-.03.13-.02.25-.02.35-.02l1.3-.1.1,1.05v.35c0,.43-.12.72-.38.88-.25.15-.73.22-1.42.22-1.23,0-2.47-.35-3.7-1.05-1.23-.7-2.07-1.52-2.5-2.45-.6-1.37-.9-2.52-.9-3.45,0-.5.08-1.08.25-1.75.8-3.4,2.35-5.62,4.65-6.65.67-.3,1.2-.45,1.6-.45.5,0,1.43.27,2.8.8,1.37.53,2.3.8,2.8.8.53,0,.97-.18,1.3-.52.33-.35.5-.81.5-1.38s-.19-1.03-.58-1.4c-.38-.37-1.14-.8-2.27-1.3Z"/>
      <path class="cls-1" d="M55.99,28.09c-.3-.17-.78-.25-1.45-.25s-1.17.02-1.6.05c-.47.03-1.18.05-2.15.05-.87,0-1.43-.02-1.7-.05l-1.4-.15v-3.25l2.05-.15c2.67-.2,4.38-.63,5.15-1.3.4-.33.6-.82.6-1.45,0-.53-.18-.98-.55-1.35-.3-.3-.65-.45-1.05-.45-.07,0-.43.03-1.1.1-3,.33-4.73.5-5.2.5h-.1s-.12-1.47-.25-4.3l-.15-4.3,3.6-.15c2.1-.1,3.44-.27,4.02-.52.58-.25.91-.79.98-1.62v-.25c0-1.23-.92-1.85-2.75-1.85-.37,0-1.12.07-2.25.2-.67.1-1.42.15-2.25.15-.53,0-.9-.02-1.1-.05-.1,0-.22,0-.35-.03-.13-.02-.23-.02-.3-.02-1.3,0-2.3.4-3,1.2-.27.27-.4,1.38-.4,3.35,0,.23.03,2.68.1,7.35v.85c0,.33.02.58.05.75.07,5.37.25,8.4.55,9.1.17.43.57.8,1.2,1.1l.1.05c.83.37,2.93.55,6.3.55,1.9,0,3.15-.1,3.75-.3,1.03-.37,1.55-.98,1.55-1.85,0-.23-.05-.48-.15-.75-.2-.47-.45-.78-.75-.95Z"/>
      <path class="cls-1" d="M79.34,25.24c-.2-.1-.38-.15-.55-.15-.53,0-1.87.6-4,1.8-.73.43-1.72.65-2.95.65-.83,0-1.53-.12-2.1-.35-.53-.23-1.08-.66-1.65-1.28-.57-.62-.97-1.21-1.2-1.77-.37-.87-.55-1.95-.55-3.25,0-1.6.29-3.17.88-4.7.58-1.53,1.34-2.65,2.27-3.35.73-.53,1.33-.8,1.8-.8.5,0,1.22.33,2.15,1,.93.7,1.77,1.05,2.5,1.05,1.1,0,1.65-.63,1.65-1.9,0-.6-.37-1.23-1.1-1.9-.93-.87-1.73-1.47-2.38-1.8-.65-.33-1.41-.52-2.27-.55-.1,0-.22,0-.35-.03-.13-.02-.23-.02-.3-.02-.7,0-1.37.13-2,.4-1.33.57-2.41,1.24-3.23,2.03-.82.78-1.51,1.81-2.08,3.07-1.07,2.4-1.6,4.77-1.6,7.1,0,.1,0,.27.03.5.02.23.02.42.02.55.07,1.8.38,3.3.95,4.5,1.6,3.4,4.22,5.25,7.85,5.55.1,0,.26,0,.48.02.22.02.38.02.48.02,2.07,0,4.13-.67,6.2-2,1.6-1.03,2.4-1.9,2.4-2.6,0-.27-.08-.53-.25-.8-.23-.43-.6-.77-1.1-1Z"/>
      <path class="cls-1" d="M90.41,29.49c.1-.62.27-1.65.27-3.15,0-1.97.07-2.95.2-2.95.17,0,.8.4,1.9,1.2,2.37,1.7,4.68,3.13,6.95,4.3.4.2.78.3,1.15.3.5,0,.91-.18,1.23-.53.32-.35.48-.81.48-1.38s-.23-1.09-.7-1.57c-.47-.48-1.35-1.11-2.65-1.88-1.5-.83-2.83-1.67-4-2.5l-2.05-1.45,1.15-1c.8-.73,2.25-1.92,4.35-3.55,2.43-1.93,3.87-3.12,4.3-3.55.43-.43.65-.87.65-1.3,0-.5-.21-.93-.62-1.3-.42-.37-.88-.55-1.38-.55-.53,0-1.22.27-2.05.8-.7.47-1.92,1.4-3.67,2.8s-3.09,2.52-4.03,3.35c-.7.63-1.15.95-1.35.95h-.05c-.27-.27-.45-2.8-.55-7.6-.03-.9-.23-1.57-.6-2-.5-.53-1.03-.8-1.6-.8-.3,0-.6.1-.9.3-.4.3-.67.6-.8.9-.13.3-.2.82-.2,1.55s.05,1.77.15,3.2c.2,2.93.38,6.57.55,10.9.2,4.53.5,6.88.7,7.2.42.65.97.65,1.6.65,0,0,1.36,0,1.58-1.35Z"/>
      <path class="cls-1" d="M125.09,9.49c-.13-.33-.4-.66-.8-.98-.4-.32-.75-.48-1.05-.48s-.65.17-1.05.5c-.47.37-1.1,1.75-1.9,4.15l-1.2,3.6-.9-.75c-.6-.43-1.8-1.58-3.6-3.45-1.83-1.83-2.95-2.8-3.35-2.9-.07-.03-.18-.05-.35-.05-.47,0-.88.2-1.22.6-.35.4-.53.9-.53,1.5,0,.67.41,1.48,1.23,2.42.82.95,2.54,2.64,5.18,5.08l1.85,1.75-1.6,4.35c-.97,2.63-1.45,4.23-1.45,4.8,0,.03,0,.08.02.15.02.07.02.12.02.15.23,1.03.88,1.55,1.95,1.55.47,0,.87-.15,1.2-.45.33-.3,1.08-2,2.25-5.1,1.17-3.1,2.17-5.77,3-8,1.57-4.17,2.35-6.83,2.35-8,0-.23-.02-.38-.05-.45Z"/>
      <path class="cls-1" d="M4.39,14.35s-.01,0-.02-.01c-.02-.01-.01,0-.02-.02-.02,0,0,.02.04.06,0,.01,0,.02,0,.03,0,0,0,0,0,0,0,0,0-.02,0-.03,0,0,0,.01.02.02,0-.02,0-.03,0-.05,0,0,0,0,0,0,0,0,0,0,0,0,0,0,0,0,0,0,0,0,0,0,0,0Z"/>
      <path class="cls-1" d="M10.64,17.07c-.5-.38-1.04-.65-1.59-.88.11-1.39.24-2.77.39-4.16.78-.14,1.56-.28,2.33-.5,1.04-.3,1.49-1.66,1.13-2.6-.43-1.09-1.55-1.43-2.6-1.13-.04.01-.06.02-.09.03-.11.02-.21.05-.32.07-.02,0-.03,0-.05,0,.18-2.04.3-4.08.27-6.13-.02-1.08-1.2-1.88-2.2-1.78-1.16.12-1.79,1.12-1.78,2.2.04,2.17-.11,4.33-.31,6.49-.88.23-1.73.52-2.53.97-2.58,1.44-4.05,5.05-1.79,7.46.87.93,2.04,1.46,3.24,1.85.06.02.12.04.18.06,0,.14-.02.28-.02.43-.06,2.56-.06,5.13-.02,7.71-1-.02-1.98-.08-3.1-.1-1.08-.02-1.88,1.22-1.78,2.2.13,1.18,1.12,1.76,2.2,1.78.05,0,.08,0,.11,0,.02,0,.02,0,.05,0,.18,0,.36.01.54.02.31.01.61.03.92.04.38.01.76.02,1.14.03.06,1.97.13,3.95.22,5.91.12,2.57,4.09,2.14,3.98-.43-.09-1.92-.16-3.85-.22-5.79.85-.19,1.67-.48,2.43-.93,3.07-1.81,3.45-5.81,2.2-8.86-.62-1.51-1.62-2.97-2.93-3.97ZM4.9,14.74s-.12-.07-.18-.1c-.09-.07-.19-.13-.27-.21,0-.04-.01-.06-.02-.08.02-.02,0-.08-.02-.02,0,0,0,0,0,0,0,0,0,0,0,.01,0,0,0,0,0,0,0,0,0,0,0,0,0,0,0,0,0,0,.02.02.03.05.04.07,0,0-.02-.01-.02-.02,0,0,0,0-.01-.01,0,.03.02.07.05.11-.01-.02-.04-.06-.08-.11,0,.02,0,.03-.01.05,0-.01,0-.03,0-.05-.06-.08-.1-.15-.03-.09.01,0,.02.01.04.03.03-.14.07-.33.07-.39.03-.06.07-.14.09-.2.06-.08.18-.24.21-.27.01-.01.01-.01.02-.02.02-.01.04-.02.06-.05.13-.09.25-.18.38-.26,0,.01.06-.02.15-.06-.06.59-.12,1.19-.18,1.79-.1-.04-.2-.09-.3-.13ZM9.87,25.97c-.2.32-.58.57-1.02.74,0,0,0,0-.01,0-.03-1.95-.03-3.9,0-5.84.01.02.02.02.03.04.44.54.71.99.96,1.6.47,1.15.69,2.41.03,3.45Z"/>
    </g>
  </g>
</svg>