<?xml version="1.0" encoding="UTF-8"?>
<svg id="Layer_2" data-name="Layer 2" xmlns="http://www.w3.org/2000/svg" viewBox="0 0 899.06 327.48">
  <defs>
    <style>
      .cls-1 {
        fill: #dcdbab;
        stroke-width: 0px;
      }
    </style>
  </defs>
  <g id="Layer_1-2" data-name="Layer 1">
    <g>
      <path class="cls-1" d="M656.83,196.24c-4.76,6.29-9.1,12.44-13.87,18.22-7.5,9.1-16.51,16.37-27.75,20.35-9.51,3.37-19.21,5.02-28.89.54-7.32-3.39-11.69-9.57-15.03-16.58-4.61-9.69-7.3-19.98-9.4-30.46-1.15-5.77-2.37-11.54-3.99-17.19-1.09-3.79-3.05-7.32-7.64-7.94-4.32-.58-7.32,1.7-8.92,5.31-1.25,2.82-2.16,6.06-2.15,9.12,0,9.17.71,18.33.8,27.51.07,7.53-.56,15.01-3.4,22.17-3.75,9.46-12.95,14.04-22.29,13.73-3.75-.12-7.67-.77-11.15-2.1-9.5-3.64-13.12-11.72-14.46-21.07-.71-4.94-.96-9.94-1.45-14.91-.08-.84-.33-1.67-.64-3.19-1.43,1.66-2.43,2.78-3.38,3.94-10.53,12.91-22.54,24.14-37.5,31.77-12.12,6.18-24.94,10.06-38.69,9.54-16.06-.6-30.25-5.74-40.88-18.45-5.36-6.41-8.84-13.84-11.29-21.79-.65-2.1-1.44-4.15-2.4-6.87-2.67,3.42-4.83,6.27-7.07,9.06-9.71,12.11-20.48,23.06-34.01,30.99-12.91,7.57-26.67,12.44-41.79,12.17-12.56-.22-24.42-3.15-34.65-11.03-8.4-6.47-13.85-14.99-17.39-24.83-5-13.9-6.93-28.23-4.86-42.86,3.36-23.76,11.74-45.45,28.31-63.3,11-11.85,24.56-19.76,40.23-23.68,13.11-3.29,26.22-2.79,38.66,2.78,10.64,4.77,17.17,13.42,20.34,24.53,6.12,21.4-4.64,43.74-21.34,55.17-12.52,8.56-26.33,10.79-40.98,8.91-4.62-.59-9.13-2.18-13.61-3.58-3.5-1.1-5.29-.04-5.26,3.67.05,6.41,4.23,10.08,9.41,12.12,5.07,2,10.57,3.55,15.98,3.9,26.06,1.71,47.79-7.49,65.11-27.04,3.27-3.69,3.45-8.49,4.54-12.93,6.44-26.36,19.33-48.48,42.56-63.45,18.93-12.19,39.34-14.42,60.37-6.32,11.23,4.33,17.89,13.27,20.82,24.9,2.65,10.53,2.03,20.87-2.15,30.92-4.63,11.12-17.5,21.52-32.56,20.13-2.93-.27-5.92-1-8.63-2.12-5.65-2.32-7.17-7-3.54-11.78,2.92-3.85,3.95-8.05,4.42-12.62.73-7.05-3.84-11.99-10.99-12.24-10.2-.35-17.53,5.82-21.21,14.48-4.44,10.44-4.59,20.98-.24,31.43,4.14,9.94,11.98,15.89,22.17,18.4,14.92,3.67,28.97.17,42.34-6.59,11.61-5.87,20.72-14.7,27.71-25.52,2.49-3.84,3.72-8.57,5.15-13.01,5.06-15.75,9.93-31.56,14.94-47.32,3.74-11.79,7.3-23.66,11.46-35.3,5.24-14.67,11.24-29.07,19.43-42.38,3.57-5.79,8.74-10.2,15.36-12.48,4.44-1.53,8.95-1.45,13.33.27,4.03,1.58,6.35,5.43,6.07,10.01-.42,7-2,13.73-4.65,20.25-7.73,19.03-15.77,37.96-22.84,57.24-3.69,10.05-5.69,20.73-8.26,31.18-.73,2.97-.57,6.17,2.46,8.03,3.57,2.19,7.33,1.53,10.54-.65,1.93-1.31,3.59-3.36,4.72-5.43,5.32-9.77,10.04-19.88,15.68-29.46,7.11-12.08,17.88-19.51,31.92-21.21,10.93-1.32,21.11.66,28.33,10.09,4.55,5.95,6.23,12.73,5.29,20.24-.79,6.23-2.27,12.15-6.3,17.11-5.94,7.32-14.03,10.49-23.11,11.75-5.73.79-11.57,1.31-17.13,2.8-5.63,1.51-7.99,6.19-8.4,11.8-.42,5.71,2.03,10.01,6.83,12.97,6.77,4.18,14.35,4.73,22.03,4.56,11.06-.24,21.89-1.59,31.9-6.81,8.1-4.22,12.98-10.58,15.32-19.61,4.68-18.09,11-35.64,20.77-51.73,4.13-6.8,9.39-12.56,17.09-15.31,2.81-1,6.02-1.43,9.01-1.29,4.13.2,6.35,3.25,7.28,7.02,1.4,5.74,1.22,11.58-.16,17.27-3.15,13-6.57,25.94-9.81,38.92-.87,3.46-2.22,7-2.08,10.46.16,4.1,1.33,8.26,2.71,12.17,1.04,2.93,4.08,4.25,7.04,4.45,7.96.54,15.9-.04,21.61-6.47,3.06-3.45,5.75-7.56,7.41-11.84,3.29-8.5,5.54-17.4,8.62-25.99,4.95-13.8,9.56-27.82,19.06-39.4,5.77-7.03,12.78-11.16,22.54-9.62,4.74.75,9.67,6.78,10.05,11.26.71,8.36-1.55,16.07-4.22,23.81-4.39,12.73-8.58,25.52-12.81,38.3-1.98,5.98-4.05,11.94-5.73,18-1.59,5.73-2.75,11.58-4.06,17.39-.09.41.07.87.17,1.96,3.64-1.83,7.04-3.41,10.31-5.21,11.85-6.53,22.17-14.85,29.51-26.36,6.15-9.64,9.32-20.21,8.41-31.75-.44-5.62-1.91-11.08-6.18-15.01-6.4-5.88-6.28-12.7-3.45-19.92,3.03-7.73,9.03-12.71,16.58-15.55,14.99-5.63,29.9-5.5,44.16,2.31,9.4,5.14,15.33,13.42,17.87,23.66,5.47,22.01.56,42.07-12.69,60.19-10.15,13.88-23.06,24.79-37.46,34.02-12.24,7.85-25.23,14.22-38.8,19.41-11.38,4.35-22.82,8.55-34.24,12.8-2.62.98-4.37,2.63-5.15,5.47-4.9,17.77-10.14,35.43-18.26,52.07-5.27,10.8-11.24,21.14-19.66,29.87-13.51,13.99-30.05,20.21-49.41,19.87-10.71-.19-20.93-1.79-30.4-7.02-13.71-7.57-21.11-19.13-22.36-34.75-1.07-13.34,1.32-25.66,9.96-36.29,5.07-6.23,10.99-11.56,18.88-13.61,5.9-1.53,12.03-1.73,17.6,1.91,3.27,2.14,4.45,5.15,3.97,8.87-.25,1.97-.78,3.91-1.18,5.86-.67,3.31.59,5.46,3.6,7.02,5.28,2.73,10.82,2.31,16.23,1.15,19.12-4.11,31.95-16.03,40.8-33.02,4.22-8.11,6.4-16.71,7.77-25.61.15-.98.12-1.99.12-2.99,0-2.41-.84-4.45-3.37-4.93-2.43-.46-3.51,1.56-4.4,3.33-2.51,5-4.6,10.23-7.39,15.07-9.25,16.06-23.16,24.66-41.81,24.84-5.53.05-10.97-1.32-15.84-4.23-8.34-5-13.09-12.44-14.84-21.91-.54-2.92-1.1-5.83-1.68-8.91ZM300.31,132.83c.06-5.02-2.74-9.46-7.26-11.49-8.99-4.03-21.31.06-26.08,8.68-3.84,6.93-2.23,15.58,3.88,18.97,2.29,1.27,5.09,1.95,7.73,2.21,11.25,1.11,21.59-7.75,21.73-18.38Z"/>
      <path class="cls-1" d="M56.51,159.97c.34-27.79,6.07-58.44,23.62-85.87,15.96-24.95,37.61-43.61,64.61-55.72,16.7-7.49,34.45-9.16,52.53-6.61,7.32,1.03,14.27,3.4,20.5,7.55,10.16,6.75,16.23,16.43,19.38,27.95,3.23,11.81,3.29,23.72-.78,35.39-5.5,15.79-16.36,26.21-32.28,31.36-6.48,2.1-13.02,2.88-19.86,1.97-5.77-.77-8.55-5.86-7.36-10.42,1.28-4.92,1.99-10.24,1.62-15.28-.79-10.79-8.69-15.54-18.35-14.99-17.73,1.01-29.58,10.54-36.95,26.27-4.66,9.96-6.02,20.32-3.38,31.02,3.3,13.37,11.08,22.72,24.88,25.99,6.73,1.59,13.6.84,20.27-.74,9.68-2.28,17.67-7.34,23.66-15.38,5.84-7.85,16.41-5.72,20.02.02,2.52,4.01,1.59,8.04.67,12.08-2.09,9.16-4.36,18.28-6.54,27.42-1.72,7.21-3.38,14.43-5.13,21.63-1.87,7.72-3.63,15.48-5.77,23.13-4.77,17.06-11.08,33.53-21.39,48.08-5.12,7.23-10.7,14.24-16.82,20.62-12,12.49-26.59,21.06-43.09,26.44-11.85,3.86-23.95,6.05-36.4,5.57-20.5-.8-39.05-6.99-54.14-21.41C6.94,293.48.53,277.84.03,259.8c-.42-15.32,3.06-29.56,12.81-41.73,6.07-7.57,14.35-11.18,23.92-11.85,3.87-.27,5.43,1.14,5.79,4.87,2.16,22.44,17.04,36.61,36.68,41.92,11.24,3.04,22.63,3.61,33.93.62,13.77-3.64,24.83-11.39,32.37-23.6,2.6-4.21,4.5-8.85,6.69-13.31.27-.55.61-1.33.42-1.8-.57-1.45-1.19-3.01-2.24-4.08-.29-.29-2.44.76-3.3,1.62-3.77,3.8-7.18,7.97-11.08,11.62-15.85,14.86-40.06,15.38-56.75.83-8.26-7.2-13.34-16.41-16.83-26.55-3.81-11.04-5.84-22.45-5.93-38.38Z"/>
    </g>
  </g>
</svg>