<?xml version="1.0" encoding="UTF-8"?>
<svg id="Layer_2" data-name="Layer 2" xmlns="http://www.w3.org/2000/svg" viewBox="0 0 697.64 550.26">
  <defs>
    <style>
      .cls-1 {
        stroke-linecap: round;
      }

      .cls-1, .cls-2 {
        fill: #fff;
        stroke: #000;
        stroke-miterlimit: 10;
        stroke-width: 3px;
      }
    </style>
  </defs>
  <g id="Layer_1-2" data-name="Layer 1">
    <g>
      <path class="cls-2" d="M388.18,3.07c-14.07,1.03-28.18.92-42.24-.2-13.88-1.11-33.31-1.95-55.13-.85-43.13,2.18-49.29,5.92-96.59,11.92-47.3,6-145.01,20.88-142.51,127.08s5.34,177.46,10.59,195.15c5.26,17.69,2.65,55.62,2.76,76.64s-17.22,77.99,50.95,120.27c36.69,22.75,44.54,11.9,82.63,10.51s74.93,3.13,94.87,5c19.94,1.87,75.52-10.79,106.54-10.47s211.02,3.94,233.26-1.12,35.34-54.55,39.74-87.4,22.78-65.09,23.09-96.11c.31-31.01-13.82-122.7-12.63-150.67,1.19-27.97-2.08-136.19-54.8-167.45s-87.39-16.27-116.02-25.71C488.72,1.73,428.01.14,388.18,3.07Z"/>
      <path class="cls-1" d="M61.94,250.08s-32.06.16-57.48,16.47c-1.67,1.07-3.66-.79-2.72-2.53,5.4-10.01,36.52-35.93,54.56-45.22"/>
    </g>
  </g>
</svg>