<?xml version="1.0" encoding="UTF-8"?>
<svg id="Layer_2" data-name="Layer 2" xmlns="http://www.w3.org/2000/svg" viewBox="0 0 137.61 154.12">
  <defs>
    <style>
      .cls-1 {
        fill: #ddd9a8;
        stroke-width: 0px;
      }
    </style>
  </defs>
  <g id="Layer_1-2" data-name="Layer 1">
    <g>
      <path class="cls-1" d="M35.78,82.61c2.38,2.03,4.61,4.09,7.02,5.94,2.44,1.88,4.97,3.68,7.61,5.26,4.49,2.69,6.89,6.18,7.54,11.7,1.56,13.37,5.76,25.97,10.93,35.69.64-1.73,1.24-3.07,1.65-4.48,3.38-11.59,8.48-22.37,15.21-32.39,4.35-6.48,8.48-13.11,12.96-19.5,2.57-3.67,3.61-7.4,2.09-12.17-1.29.23-2.63.46-3.97.7-3.81.66-5.39-.59-6.63-5.27-1.13-4.26-.45-6.06,3.36-7.2,4.49-1.34,9.09-2.3,13.95-3.5,1.94-9.3,2.93-18.83,5.51-27.93,7.25,1.02,8.97,2.06,9.55,8.49,1.04,11.37,1.45,22.8,1.97,34.21.3,6.53.26,13.07.43,19.6.09,3.54,1.21,6.7,3.36,9.59,4.41,5.92,6.75,12.79,8.87,19.76.63,2.09.78,4.05-1.09,5.43-2.14,1.58-4.09.51-5.92-.9-3.71-2.85-7.46-5.66-11.8-8.95-.94,2.4-1.64,4.19-2.35,5.98-.93,2.36-1.76,4.77-2.81,7.08-2.64,5.79-5.32,6.28-9.79,1.94-2.08-2.02-4.19-4.02-6.6-6.34-.78.87-1.74,1.83-2.57,2.89-5.17,6.56-10.3,13.15-15.46,19.72-.78,1-1.63,1.95-2.52,2.86-4.54,4.64-8.77,4.47-12.7-.82-4.01-5.39-7.69-11.02-11.59-16.49-1.47-2.06-3.13-3.97-5.05-6.38-.87,1.34-1.59,2.26-2.1,3.29-.89,1.78-1.57,3.67-2.48,5.45-3.08,5.97-6.78,6.2-10.37.58-3.43-5.35-6.72-10.78-10.11-16.16-.76-1.2-1.64-2.32-2.59-3.66-3.39,3.03-6.49,5.98-9.8,8.68-2.17,1.78-4.84,3-7.5,1.19-2.5-1.7-2.24-4.45-1.38-6.94,7.97-23.04,9.11-47.31,12.9-71.1.83-5.19,1.86-10.35,2.81-15.52.1-.53.31-1.04.47-1.56.57-1.84,1.43-3.53,3.67-3.33,2.4.22,4.13,1.69,4.42,4.08.21,1.74-.1,3.62-.54,5.34-.85,3.34-2.06,6.58-2.91,9.92-1.08,4.25-.78,4.88,3.35,6.62,6.51,2.75,13.08,5.35,19.63,8.01.33.14.64.35.96.51,7.05,3.38,7.69,6.71,1.78,11.98-3.32,2.96-7.26,5.22-11.37,8.12Z"/>
      <path class="cls-1" d="M28.1,11.58c23.63-18.35,58.31-12.59,73.55,1.37,2.41-2.36,4.81-4.76,7.27-7.1,1.18-1.12,2.34-2.41,3.77-3.05,1.14-.51,3.13-.69,3.91-.03,1.04.87,1.91,2.82,1.68,4.09-.3,1.61-1.6,3.16-2.78,4.46-4.86,5.36-10.03,10.45-14.7,15.97-5.56,6.56-11.71,12.31-19.02,16.9-2.74,1.72-5.48,2.54-8.65,2.61-5.78.12-11.56.41-17.33.75-2.47.15-4.59-.32-6.54-1.97-7.2-6.1-14.19-12.39-20.14-19.78-3.52-4.37-7.46-8.4-11.15-12.64-1.18-1.35-2.49-2.75-3.14-4.36-.45-1.13-.36-3.13.38-3.89.63-.66,2.82-.61,3.78-.01,3.05,1.92,5.85,4.25,9.1,6.69Z"/>
      <path class="cls-1" d="M48.78,85.01c.99-5.06,5.06-5.37,8.8-7.01-.77-3.83-1.34-7.73-2.38-11.49-1.42-5.12,1.73-9.01,3.57-13.07.65-1.44,4.01-1.99,6.22-2.31,2.66-.38,5.42-.09,7.6-.09,8.18,6.01,14.1,12.79,12.49,23.21,3.03.77,5.54,1.41,8.83,2.24-1.59,3.38-2.76,6.14-4.15,8.79-4.88,9.29-9.85,18.53-14.74,27.82-1.17,2.23-1.92,5.33-4.87,5.19-3.3-.15-3.63-3.51-4.44-6.04-1.16-3.62-2.23-7.26-3.4-10.88-1.96-6.07-5.29-11.08-11.02-14.26-.91-.51-1.63-1.36-2.52-2.12Z"/>
      <path class="cls-1" d="M52.36,52.76c-.58,2.11-1,3.67-1.58,5.81-7.9-1.26-15.18-4.22-23.2-6.34,1.14-4.86,2.19-9.31,3.45-14.7,7.35,5.25,14.18,10.12,21.33,15.23Z"/>
      <path class="cls-1" d="M103.58,36.21c.16,1.96.52,3.05.29,3.99-1.03,4.2-2.31,8.33-3.35,12.53-.61,2.44-2.06,3.75-4.48,3.96-3.22.29-6.46.66-9.68.6-1.21-.02-3.1-.9-3.43-1.83-.47-1.29,0-3.09.54-4.49.34-.9,1.49-1.52,2.33-2.19,4.25-3.35,8.48-6.73,12.81-9.97,1.31-.98,2.93-1.55,4.97-2.6Z"/>
    </g>
  </g>
</svg>