<?xml version="1.0" encoding="UTF-8"?>
<svg id="Layer_2" data-name="Layer 2" xmlns="http://www.w3.org/2000/svg" viewBox="0 0 641.06 644.09">
  <defs>
    <style>
      .cls-1 {
        stroke-linecap: round;
      }

      .cls-1, .cls-2 {
        fill: #fff;
        stroke: #000;
        stroke-miterlimit: 10;
        stroke-width: 3px;
      }
    </style>
  </defs>
  <g id="Layer_1-2" data-name="Layer 1">
    <g>
      <path class="cls-2" d="M331.31,4.21c-14.03,1.41-28.15,1.68-42.23.94s-33.35-1.05-55.13.64c-43.06,3.34-49.12,7.25-96.23,14.53S-3.66,43.15,1.72,149.25c5.38,106.09-1.98,215.44,3.75,232.98s4.15,55.52,4.83,76.54c.68,21.01-15.11,78.43,54.19,118.84,37.3,21.75,44.84,10.69,82.88,8.27,38.04-2.42,74.99,1.1,94.97,2.43s75.21-12.83,106.22-13.35,211.05-1.77,233.14-7.43c22.09-5.66,33.85-55.49,37.36-88.44,3.5-32.95,21.01-65.69,20.48-96.7-.53-31.01-8.58-178.5-8.16-206.5s-5.22-116.09-58.77-145.92c-53.55-29.82-87.8-13.9-116.67-22.57C431.77.15,371.04.2,331.31,4.21Z"/>
      <path class="cls-1" d="M184.29,583.14c2.48,16.49,7.23,37.19,16.1,54.67,1.53,3.02-1.98,6.1-4.78,4.2-12-8.13-28.61-28.12-45.63-58.28"/>
    </g>
  </g>
</svg>