<?xml version="1.0" encoding="UTF-8"?>
<svg id="Layer_2" data-name="Layer 2" xmlns="http://www.w3.org/2000/svg" viewBox="0 0 1042.64 381.06">
  <defs>
    <style>
      .cls-1 {
        stroke: #000;
        stroke-miterlimit: 10;
        stroke-width: 3px;
      }

      .cls-1, .cls-2 {
        fill: #dcdbab;
      }

      .cls-2 {
        stroke-width: 0px;
      }
    </style>
  </defs>
  <g id="Layer_1-2" data-name="Layer 1">
    <g>
      <g id="WoPZYv">
        <g>
          <path class="cls-1" d="M785.4,302.18c6.5,3.16,13.37,2.56,20.17,1.14,21.6-4.51,36.23-18.01,46.71-36.66,5.26-9.35,8.22-19.51,9.76-30.1l.02-.22c.19-3.08.42-6.24-3.06-7.8-2.22-1-5.1.83-6.82,4.69-3.88,8.75-8.25,17.15-14.55,24.48-13.61,15.83-37.16,22.68-55.01,15.67-12.79-5.02-19.38-15.04-21.77-28.13-.72-3.95-.88-7.99-1.35-12.55-2.94,4.06-5.48,7.75-8.2,11.31-9.64,12.61-20.58,23.73-35.3,30.48-7.17,3.28-14.68,5.05-22.55,5.38-14.63.61-24.86-6.07-31.45-18.89-5.75-11.19-8.57-23.27-10.88-35.49-1.34-7.07-2.18-14.24-3.6-21.29-.58-2.88-1.65-5.91-3.33-8.28-4.1-5.81-11.16-5.74-15.69-.23-3.87,4.71-4.43,10.4-4.51,16.14-.15,11.29.26,22.61-.33,33.88-.31,5.93-1.51,12.07-3.62,17.61-5.21,13.72-17.6,18.12-30.96,16.17-13.94-2.04-22.01-10.94-23.85-25.99-.94-7.68-.87-15.48-1.27-23.52-2.02,2.31-4.01,4.64-6.07,6.91-15.37,16.94-32.74,31.08-54.85,38.3-17.68,5.77-35.54,6.93-53.36.56-17.73-6.34-29.07-19.12-35.5-36.47-1.96-5.28-3.21-10.82-4.89-16.61-1.87,2.33-3.7,4.65-5.57,6.93-15.22,18.6-32.58,34.55-55.25,43.67-17.05,6.86-34.7,8.94-52.63,4.32-22.63-5.83-36.56-21.03-42.99-43-8.76-29.95-3.73-58.72,9.44-86.3,9.74-20.41,23.83-37.27,43.97-48.17,20.21-10.94,41.58-14.6,63.93-7.44,16.47,5.28,27.58,20.84,29.44,38.06,3.27,30.22-20.56,61.03-53,64.67-13.03,1.46-25.74.7-37.76-5.33-3.71-1.86-6.4-.02-6.57,4.15-.23,5.69,2.63,9.75,7.01,12.89,5.93,4.23,12.78,6.12,19.86,6.96,30.91,3.67,57.01-6.2,78.44-28.53,1.86-1.94,3.08-4.88,3.72-7.56,6.25-26.48,18.01-49.89,38.89-67.79,21.88-18.75,47.15-25.77,75.36-18.16,24.6,6.63,34.14,28,32.21,49.44-1.16,12.89-5.57,24.27-16.2,32.35-9.93,7.55-20.99,9.96-33.03,6.35-1.23-.37-2.41-.85-3.53-1.47-6.09-3.35-7.22-7.72-3.79-12.64,1.65-2.38,3.97-4.61,4.69-7.26,1.13-4.15,2.06-8.72,1.46-12.88-.98-6.84-8.65-10.75-17.02-9.75-7.24.86-12.88,4.31-17.18,10.15-11.97,16.26-10.44,42.39,3.58,55.16,11.09,10.1,24.69,12.61,39.06,10.96,26.11-3,45.92-16.56,60.97-37.64.79-1.11,1.28-2.46,1.75-3.76,12.33-34.53,24.21-69.22,37.14-103.52,5.26-13.94,12.53-27.16,19.39-40.45,3.48-6.73,8.55-12.48,14.88-16.88,5.25-3.64,11.02-5.4,17.46-4.42,8.63,1.31,12.9,6.24,11.7,14.95-.83,6.02-2.3,12.16-4.7,17.72-7.13,16.52-15.02,32.71-22.31,49.16-7.96,17.95-14.96,36.26-18.74,55.64-1.19,6.1,1.94,10.13,8.07,10.19,6.17.06,10.35-2.79,13.3-8.35,5.7-10.76,11.26-21.67,17.97-31.79,7.63-11.51,18.08-19.97,32.07-23.03,7.87-1.72,15.69-1.57,23.42.91,12.64,4.05,20.75,16.14,20.23,29.4-.84,21.25-12.65,33.92-34.04,36.33-5.54.63-11.14.77-16.68,1.41-7.63.88-12.88,5.48-14.36,12.23-1.67,7.63,1,14.05,7.67,18.31,5.64,3.61,12.01,5.1,18.52,5.55,13.54.93,27.02.34,39.85-4.66,3.95-1.54,7.65-3.88,11.17-6.29,4.64-3.17,7.56-7.65,9.28-13.1,5.62-17.85,12.02-35.41,21.02-51.87,5.32-9.74,11.16-19.26,20.95-25.18,3.46-2.09,7.68-3.53,11.69-3.97,7.69-.84,12.19,3.6,12.77,11.37.84,11.27-2.13,21.87-5.49,32.43-3.51,11.05-7.39,22.02-10.1,33.27-1.35,5.59-1.05,11.79-.42,17.59.63,5.82,4.82,9.24,10.6,9.89,12.91,1.45,23.68-2.52,30.35-14.04,3.57-6.16,6.15-12.99,8.49-19.76,5.88-17.03,11.77-34.03,21.14-49.55,4.17-6.91,8.98-13.33,15.96-17.75,5.95-3.77,12.37-4.52,19.08-2.74,5.67,1.51,9,5.9,9.65,12.3.75,7.35-.77,14.38-3.32,21.17-6.57,17.49-13.61,34.8-19.87,52.4-4.35,12.22-7.72,24.8-11.5,37.22-.29.96-.35,1.99-.59,3.41,10.22-3.87,19.45-8.63,27.95-14.78,14.68-10.61,25.65-23.88,29.9-41.92,1.73-7.35,2.08-14.85.26-22.13-.94-3.77-2.8-7.98-5.58-10.5-5.97-5.4-6.31-11.48-4.41-18.41,1.82-6.67,5.75-11.92,11.26-15.93,17.65-12.84,52.67-12.13,69.31,6.95,7.74,8.87,11.31,19.38,12.01,30.92,1.73,28.34-10.23,50.97-29.93,70.12-19.92,19.37-43.89,32.45-69.47,42.47-16.39,6.42-33.32,11.48-50.07,16.97-2.68.88-4.14,2.03-5,4.84-7.49,24.47-16.05,48.52-29.4,70.54-8.05,13.27-17.76,25.07-31.15,33.37-12.98,8.04-27.27,10.91-42.34,10.47-10.65-.32-21.09-1.91-30.81-6.51-18.84-8.92-29.08-23.76-29.79-44.69-.73-21.44,7.18-38.77,25.41-50.79,0,0,16.69-10.96,30.83-.35,4.56,3.42,2.9,11.27,1.68,14.61,0,0-3.37,7.59,4.48,10.4ZM328.4,167.4c11.03.12,20.52-6.78,23.26-16.92,2.32-8.58-2.24-16.61-10.86-18.81-6.54-1.67-12.95-1.07-18.86,2.3-6.04,3.44-10.27,8.47-11.09,15.57-1.25,10.8,5.72,17.74,17.56,17.86Z"/>
          <path class="cls-1" d="M70.64,173.46c.05,4.02,0,7.46.34,11.46,1.24,15.11,4.44,29.64,11.61,43.05,15.1,28.2,47.41,37.01,73.2,19.27,6.29-4.33,11.2-10.85,16.86-16.22,1.06-1,3.34-2.27,3.91-1.82,1.29,1.02,2.12,2.95,2.65,4.68.28.94-.28,2.3-.74,3.33-5.7,12.83-13.53,23.89-25.1,31.56-16.13,10.7-33.83,12.57-52.24,9.22-25.79-4.69-47.87-22.99-48.98-52.13-.15-4.06-2.26-5.74-6.55-5.59-16.5.56-28.14,9.53-35.58,24.21-17.41,34.37-8.77,81.86,31.48,103.87,25.71,14.06,52.99,15.53,80.67,8.43,39.64-10.18,67.42-36.3,87.01-72.86,7.92-14.78,12.96-30.77,17.56-46.91,6.88-24.17,13.61-48.39,20.18-72.65,2.15-7.97-2.09-14.72-9.75-16.29-5.27-1.08-9.95.57-13.44,4.79-11.64,14.07-26.67,18.93-43.93,18.3-16-.58-29.39-10.9-34.27-26.89-4.08-13.36-3.11-26.51,2.79-38.94,9.3-19.6,24.16-30.88,45.63-30.95,10.93-.04,18.77,6.26,20.02,16.86.66,5.58.1,11.9-1.84,17.09-3.25,8.67,1.11,12.81,7.35,13.88,5.5.94,11.43.95,16.92-.11,47.57-9.16,57.71-60.29,40.14-92.28-9.97-18.15-26.64-25.37-45.53-27.53-25.26-2.89-49.37,2.37-71.4,15.15-58.12,33.74-85.51,84.39-88.92,152.76l-.06,3.28Z"/>
        </g>
      </g>
      <g>
        <path class="cls-2" d="M354.86,15.67c.5-1.81,1.18-3,2.02-3.59.84-.59,1.85-.88,3.03-.88,2.02,0,3.53.97,4.54,2.9.08.08.13.46.13,1.13,0,3.11-1.05,10.15-3.15,21.12-2.1,10.97-3.99,19.19-5.67,24.65-1.76,5.72-4.12,8.57-7.06,8.57-2.61,0-5.34-2.18-8.2-6.56-2.27-3.78-4.33-7.61-6.18-11.47-2.1-4.54-3.45-6.81-4.03-6.81h-.13c-.42.59-1.93,3.95-4.54,10.09-2.86,6.56-4.79,10.21-5.8,10.97-.93.84-2.1,1.26-3.53,1.26-1.76,0-3.15-.63-4.16-1.89-2.27-2.52-5.25-10.84-8.95-24.96-1.51-5.8-3.03-10.8-4.54-15-1.01-2.52-1.51-4.5-1.51-5.93,0-1.68.63-2.94,1.89-3.78.67-.59,1.51-.88,2.52-.88,1.34,0,2.73.72,4.16,2.14,2.02,2.19,4.62,9.79,7.82,22.82,1.26,4.96,2.14,7.78,2.65,8.45.5.5.8.72.88.63s.33-.67.76-1.76c.84-2.1,2.27-5.17,4.29-9.2,1.76-3.61,3.3-6.11,4.6-7.5,1.3-1.39,2.71-2.08,4.22-2.08s2.9.86,4.16,2.58c1.26,1.72,3.28,5.48,6.05,11.28,3.53,7.4,5.5,11.09,5.93,11.09.67,0,2.39-7.9,5.17-23.7,1.26-7.31,2.14-11.87,2.65-13.68Z"/>
        <path class="cls-2" d="M380.2,14.22c.92-1.18,2.06-1.76,3.4-1.76,1.43,0,2.65.59,3.66,1.76.67.76,1.09,1.93,1.26,3.53.17,1.6.29,6.14.38,13.62v15.63l6.56.38c.25,0,.69.02,1.32.06.63.04,1.15.06,1.58.06,3.53,0,7.46-.21,11.79-.63,4.33-.42,6.66-.8,7-1.13.08-.25.13-.59.13-1.01,0-1.68-.27-5.82-.82-12.42-.55-6.6-.82-10.32-.82-11.16,0-1.18.55-2.35,1.64-3.53,1.09-1.18,2.23-1.77,3.4-1.77,2.94,0,4.71,1.98,5.3,5.93.33,1.93.67,10.68,1.01,26.22l.25,22.69-1.51,1.51c-1.09,1.09-2.27,1.64-3.53,1.64-2.44,0-4.03-1.43-4.79-4.29-.42-1.43-.63-4.08-.63-7.94,0-3.45-.3-5.17-.88-5.17-.25,0-.46.04-.63.13-1.01.25-5.67.55-13.99.88l-12.61.38-.38,4.29c-.34,3.53-.9,5.95-1.7,7.25-.8,1.3-2.12,1.95-3.97,1.95-.93,0-1.89-.42-2.9-1.26-1.01-.84-1.64-1.81-1.89-2.9-.08-.17-.13-.76-.13-1.76,0-1.85.13-3.87.38-6.05.5-4.54.76-12.78.76-24.71,0-8.74.06-14.12.19-16.14.13-2.02.52-3.45,1.2-4.29Z"/>
        <path class="cls-2" d="M453.58,13.85c2.6-1.34,5.55-2.02,8.83-2.02,2.77,0,5.29.42,7.56,1.26,1.93.67,3.7,1.09,5.29,1.26,2.19.08,5,1.81,8.45,5.17,5.8,5.55,8.7,13.07,8.7,22.57v1.89c-.17,2.77-.4,4.77-.69,5.99-.3,1.22-1.07,3.09-2.33,5.61-5.13,10.34-12.94,15.51-23.45,15.51h-.38c-3.45,0-6.39-.55-8.83-1.64-3.03-1.34-5.99-3.72-8.89-7.12-2.9-3.4-4.94-6.87-6.11-10.4-1.09-3.28-1.64-7.65-1.64-13.11,0-2.1.13-3.82.38-5.17.84-4.37,2.46-8.36,4.85-11.98,2.4-3.61,5.15-6.22,8.26-7.82ZM465.68,22.55c-1.77-.59-2.94-.88-3.53-.88-.42,0-1.35.25-2.77.76-1.43.5-2.98,1.85-4.67,4.03-1.68,2.19-2.86,4.46-3.53,6.81-.5,1.93-.76,4.2-.76,6.81,0,4.96.76,8.7,2.27,11.22,2.69,4.54,5.46,7.48,8.32,8.83,1.51.67,3.07,1.01,4.67,1.01,4.96,0,8.83-1.72,11.6-5.17,1.18-1.43,2.29-3.3,3.34-5.61,1.05-2.31,1.7-4.35,1.96-6.11,0-.08.02-.29.06-.63.04-.33.06-.59.06-.76,0-4.54-1.18-8.78-3.53-12.73-.93-1.6-2.31-3.09-4.16-4.48-1.85-1.39-3.36-2.08-4.54-2.08-.84,0-2.44-.33-4.79-1.01Z"/>
        <path class="cls-2" d="M538.55,15.23c1.26-.92,2.14-1.39,2.65-1.39.84,0,1.77.27,2.77.82,1.01.55,1.68,1.11,2.02,1.7.76,1.43,1.72,8.36,2.9,20.8,1.18,12.44,1.77,21.56,1.77,27.36,0,1.68-.08,2.77-.25,3.28-1.01,1.93-2.52,2.9-4.54,2.9s-3.45-.84-4.29-2.52c-.5-.76-.97-5.04-1.39-12.86-.34-5.46-1.01-12.9-2.02-22.32-.84-6.64-1.26-11.09-1.26-13.36,0-2.1.55-3.57,1.64-4.41Z"/>
        <path class="cls-2" d="M577.26,13.09c1.77-.76,3.78-1.13,6.05-1.13s4.16.38,5.92,1.13c1.6.67,4.03,2.56,7.31,5.67,1.93,1.93,3.17,3.3,3.72,4.1.55.8.82,1.7.82,2.71,0,1.51-.59,2.73-1.77,3.66-1.18.93-2.23,1.39-3.15,1.39-1.51,0-4.03-1.64-7.56-4.92-2.44-2.35-4.33-3.53-5.67-3.53-2.35,0-4.12,1.98-5.29,5.93-.25.84-.38,1.68-.38,2.52,0,3.03,2.86,7.27,8.57,12.73,3.61,3.53,6.05,6.33,7.31,8.38,1.26,2.06,1.93,4.31,2.02,6.75,0,5.13-2.9,9.25-8.7,12.36-2.35,1.26-4.92,1.89-7.69,1.89-3.95,0-7.36-1.18-10.21-3.53-2.52-2.18-4.08-4.62-4.67-7.31-.08-.33-.13-.8-.13-1.39,0-1.43.46-2.63,1.39-3.59.92-.97,2.1-1.49,3.53-1.58.92,0,2,.5,3.21,1.51,1.22,1.01,1.83,1.89,1.83,2.65,0,.59.57,1.24,1.7,1.95,1.13.71,2.21,1.07,3.21,1.07,1.18,0,2.48-.46,3.91-1.39,1.51-.84,2.27-1.77,2.27-2.77,0-1.18-1.26-2.9-3.78-5.17-5.8-5.13-9.62-9.41-11.47-12.86-.93-1.68-1.49-3.05-1.7-4.1-.21-1.05-.32-3-.32-5.86,0-4.37.46-7.44,1.39-9.2,2.1-3.86,4.87-6.56,8.32-8.07Z"/>
      </g>
    </g>
  </g>
</svg>