<?xml version="1.0" encoding="UTF-8"?>
<svg xmlns="http://www.w3.org/2000/svg" viewBox="0 0 1123.05 572.81">
  <defs>
    <style>
      .cls-1 {
        fill: #accc78;
      }

      .cls-2 {
        stroke: #fff;
        stroke-linecap: round;
        stroke-linejoin: round;
        stroke-width: 10px;
      }

      .cls-2, .cls-3 {
        fill: #fff;
      }

      .cls-4 {
        fill: #231f20;
      }

      .cls-5 {
        fill: #171717;
      }

      .cls-6 {
        fill: #cbdd64;
      }

      .cls-7 {
        fill: #e41e26;
      }

      .cls-8 {
        opacity: .2;
      }
    </style>
  </defs>
  <g id="Type">
    <path class="cls-2" d="M797.66,250.54c-.42-2.3-1.14-4.31-2.14-6.04h0s-8.02-13.8-8.02-13.8c-.9-2.35-2.24-4.24-4.04-5.62-1.43-1.09-3.08-1.67-4.78-1.67-2.65,0-5.12,1.37-6.95,3.86-.63.85-1.12,1.73-1.56,2.51-.3.52-.57,1.01-.86,1.44-.36.54-.71,1.1-1.06,1.67-.8,1.29-1.56,2.51-2.38,3.3-.62.6-1.26,1.11-1.9,1.55.56-1.92,1.16-3.86,1.74-5.75.68-2.18,1.37-4.43,2.02-6.68,3.47-12.08,1.69-24.93-5.16-30.84,0,0-9.85-7.05-13.07-8.19-.26-.09-.47-.15-.66-.19-5.05-2.49-10.71-3.75-16.88-3.75-.44,0-.88,0-1.32.02-3,.08-6.21.31-9.36,1.38-6.63,2.25-12.15,10.14-12.57,17.96-.29,5.43,1.04,9.23,3.96,11.34-.25.67-.49,1.34-.74,2.01-.59,1.6-1.19,3.24-1.8,4.87-.3-.35-.61-.69-.94-1.03-.9-.93-1.88-1.74-2.92-2.44-.37-5.12-2.29-9.5-5.77-13.06-3.33-3.41-7.75-5.14-13.12-5.14-1.34,0-2.77.11-4.26.32-10.62,1.53-19.96,6.99-27.78,16.24-5.02,5.94-8.89,12.72-11.57,20.19-.21-.48-.43-.96-.67-1.41h0s-8.72-15.3-8.72-15.3c-.3-.63-.64-1.23-1.02-1.79l-.05-.09v.02c-2.46-3.65-6.41-5.91-11.16-6.08.36-1.46.63-2.88.79-4.27.41-3.65-.49-6.21-1.59-7.93h0s-8.33-14.62-8.33-14.62c-.4-.93-.89-1.66-1.37-2.2-1.5-1.68-3.71-2.61-6.21-2.61-.57,0-1.17.05-1.78.14-3.53.55-6.65,2.27-9.02,4.99-1.88,2.15-3.39,4.2-4.61,6.25-4.28,7.18-6.95,14.72-8.8,20.49-2.9,9.05-5.77,18.23-8.56,27.22l-5.82-11.15c-1.12-3.03-3.69-4.83-7.16-4.85h-.01s-.06,0-.06,0c-3.63,0-7,1.45-10.04,4.3-.6.57-1.18,1.14-1.73,1.7-.66.67-1.29,1.3-1.92,1.87-.4.36-.76.55-.97.61-2.53-2.26-5.71-3.5-9.21-3.61-.28,0-.56-.01-.84-.01-3.38,0-6.93.64-10.55,1.91-4.22,1.48-8.16,3.74-11.81,6.72.09-1.08.12-2.18.08-3.32-.07-2.18-.5-4.16-1.22-5.92,0-.02,0-.03,0-.05-.03-.07-.08-.19-.14-.32-.21-.46-.43-.9-.68-1.33-1.82-3.39-6.14-10.8-8.35-14.58-1.58-3.63-4.7-6.05-8.86-6.65-1.11-.16-2.25-.24-3.37-.24-4.18,0-8.4,1.12-12.55,3.32-2.66,1.41-4.79,3.31-6.37,5.59-1.56-6.89-6.36-11-12.93-11-.18,0-.37,0-.56,0-5.74.2-10.98,2.53-15.56,6.92-4.97,4.77-8.18,10.65-10.42,15.23-2.16,4.43-4.01,8.94-5.67,13.39-1.4-2.29-3.5-4.39-6.63-5.89.28-9.8-4.88-13.89-9.26-15.6-2.51-.98-5.29-1.46-8.5-1.46-1.07,0-2.19.05-3.41.16-6.45.56-13.13,2.23-19.86,4.98-14.42,5.88-25.82,15.21-33.89,27.72-8.12,12.6-11.21,25.46-9.18,38.23.69,4.37,2.3,8.08,4.7,11,0,.26.01.52.03.78-.37-.06-.74-.1-1.1-.1-.73,0-1.48.11-2.3.33-5.86,1.58-10.74,5.11-14.5,10.47-5.14,7.35-7.52,15.4-7.1,23.96-.1.11-.15.36-.17.79-.12,4.81,4.48,18.12,6.78,24.47.36,1.2.79,2.35,1.28,3.45h0s0,0,0,0c.62,1.39,1.34,2.7,2.15,3.92h0s0,0,0,0c4.6,6.91,12.15,11.06,21.21,11.06.68,0,1.38-.02,2.08-.07,10.46-.73,20.31-4.94,29.27-12.52,7.36-6.23,13.57-14.16,19.52-24.95,3.52-6.38,6.38-13.01,8.93-19.52l6.57,21.26c.1.35.21.7.32,1.04v.03s0,0,0,0c1.85,5.54,5.65,9.49,11.05,11.31,2.36.8,4.83,1.2,7.33,1.2,4.75,0,9.76-1.46,14.88-4.32,5.57-3.12,9.88-7.45,13.17-11.54,2.88,5.13,7.76,8.05,13.76,8.05.95,0,1.94-.08,2.94-.23l-.09.02s5.79,23.33,11.38,27.69c0,0,0,0,0,0,2.46,2.71,5.6,4.74,9.37,5.98,2.69.89,5.54,1.32,8.71,1.32,1.3,0,2.68-.08,4.1-.23,8.23-.88,15.15-3.81,21.16-8.97,5.21-4.47,9.49-10.24,13.48-18.15,3.73-7.41,6.41-14.98,8.64-22.27.2.01.4.02.6.02,1.25,0,2.55-.2,3.88-.6,3.74-1.13,7.13-3.08,10.08-5.8,1.31-1.21,2.49-2.49,3.56-3.8,2.21,2.69,5.57,4.79,10.66,4.79.36,0,.73-.01,1.1-.03,8.97-.55,15.62-6.04,17.8-14.68.91-3.63,1.16-7.19,1.27-9.89.07-1.71.07-3.37.06-4.98,0-.5,0-.99,0-1.48l3.64,11.32c.23.89.49,1.74.82,2.55h0s0,0,0,0c2.49,6.19,7.76,9.87,14.53,9.87,1.25,0,2.55-.12,3.88-.37,6.88-1.27,12.99-4.98,18.69-11.34,2.61-2.92,4.84-6.01,6.78-9.1,2.1,3.29,4.77,5.87,8.06,7.79,3.9,2.28,8.27,3.43,13.01,3.43,3.73,0,7.67-.69,12.02-2.12,6.83-2.23,13.4-6.33,19.53-12.17,7.01-6.69,13-14.57,18.65-24.64l5.13,14.05c.73,3.29,1.83,6.27,3.27,8.95v.02s0,0,0,0c3.08,5.72,7.72,9.99,13.78,12.57,3.82,1.63,7.95,2.45,12.27,2.45,3.66,0,7.56-.59,11.58-1.77,8.72-2.54,15.78-7.53,20.98-14.82,8.63-12.12,11.71-25.38,9.15-39.41ZM496.67,256.7s-.03-.07-.05-.11h.1s-.03.07-.05.11ZM612.86,193.59s-.03,0-.05,0c0-.02.01-.05.02-.07l.03.07ZM497.26,255.43l.08-.47c.07-.02.14-.06.21-.08-.09.19-.19.37-.29.56Z"/>
    <path class="cls-4" d="M797.66,250.54c-.42-2.3-1.14-4.31-2.14-6.04h0s-10.26-17.66-10.26-17.66l1.92,11.56c-.41-.05-.82-.09-1.23-.09-3.26,0-6.38,1.71-8.56,4.68-.69.95-1.22,1.88-1.69,2.7-.28.49-.54.95-.78,1.32-.37.56-.73,1.14-1.09,1.72-.73,1.18-1.43,2.3-2.07,2.92-1.91,1.84-3.79,2.7-5.92,2.7-.81,0-1.68-.13-2.59-.38-.03-.01-.08-.09-.14-.24-.49-1.35-.8-2.73-.89-3.98-.22-3.16.26-6.78,1.48-11.06.63-2.22,1.34-4.5,2.02-6.7.68-2.18,1.37-4.43,2.02-6.68,3.47-12.08,1.69-24.93-5.16-30.84,0,0-9.85-7.05-13.07-8.19-3.21-1.14-1.14,1.97-1.14,1.97l10.78,9.95-19.93-.97c-.46,0-.91,0-1.37.02-3.16.09-6.55.33-9.95,1.49-7.47,2.54-13.46,11.03-13.93,19.74-.33,6.09,1.27,9.82,3.59,12.08-.08.23-.17.46-.25.69-.57,1.56-1.15,3.15-1.75,4.74.13-5.63-1.28-11.89-6.38-17.11-3.72-3.81-8.62-5.74-14.55-5.74-1.43,0-2.96.12-4.54.34-11.11,1.6-20.88,7.3-29.02,16.93-6.47,7.65-11.1,16.62-13.78,26.66-.46,1.72-1.24,3.39-2.47,5.25-1.86,2.82-3.09,3.69-4.1,3.98-.12-3.06.93-6.45,2.11-9.94,1.27-3.74,2.69-8.73,2.51-14.11-.11-3.26-.91-6.2-2.25-8.68h0s-9.79-17.18-9.79-17.18l1.12,9.74c-1.73-.6-3.61-.94-5.61-.94-1,0-2.02.08-3.04.24-3.95.61-7.75,2.08-11.36,4.39.65-1.53,1.3-3.04,1.94-4.54,1.21-2.83,2.41-5.65,3.6-8.49,1.62-3.88,2.6-7.39,2.97-10.74.41-3.65-.49-6.21-1.59-7.93h0s-8.78-15.43-8.78-15.43l-1.72,5.96,1.98,4.95s-.08,0-.12,0c-.68,0-1.38.06-2.09.17-4,.62-7.53,2.57-10.22,5.65-1.96,2.24-3.54,4.38-4.82,6.54-4.39,7.36-7.11,15.03-8.99,20.9-3.4,10.61-6.76,21.4-10,31.84-1.42,4.58-2.84,9.15-4.27,13.73-.07.21-.13.42-.19.64-.01.04-.02.08-.03.12-.49.74-.98,1.49-1.47,2.23-1.96,2.97-3.81,5.78-5.83,8.45,1.22-4.21,2.69-8.66,4.37-13.25,1.17-3.2,2.49-6.48,3.76-9.65.76-1.89,1.55-3.84,2.31-5.79,1.21-3.09,1.7-6.14,1.47-9.07-.25-3.11-1.5-5.62-3.47-7.26l-7.01-13.43-1.08,11.38c-3.46.41-6.77,2.02-9.66,4.73-.63.59-1.21,1.18-1.78,1.75-.48.49-.94.95-1.39,1.38-2.64-1.93-5.8-2.99-9.22-3.1-.3,0-.6-.01-.9-.01-3.61,0-7.38.68-11.21,2.02-7.82,2.74-14.74,7.95-20.58,15.49-6.07,7.84-10.46,16.9-13.43,27.68-.57,2.06-1.58,3.82-3.19,5.54-.61.65-1.37,1.24-2.02,1.56-.07.04-.15.07-.21.1,0-.02,0-.04,0-.07.03-1.95.33-4.07.87-6.15.67-2.59,1.46-5.16,2.29-7.88.56-1.84,1.15-3.74,1.69-5.64,1.44-5.06,1.9-9.29,1.45-13.31-.18-1.59-.62-3.02-1.27-4.28h.46s.27-1.64.27-1.64c6.94-2.36,11.61-6.82,13.91-13.28,1.08-3.03,1.55-6.22,1.44-9.74-.07-2.18-.5-4.16-1.22-5.92,0-.02,0-.03,0-.05-.03-.07-.08-.19-.14-.32-.21-.46-.43-.9-.68-1.33-2.5-4.65-9.7-16.88-9.7-16.88l.45,10.65c-.14-.02-.27-.06-.41-.08-1.21-.18-2.44-.26-3.66-.26h0c-4.51,0-9.05,1.2-13.49,3.55-1.74.93-3.28,2.08-4.64,3.38-2.49-5.65-7.48-9.02-13.72-9.02-.21,0-.42,0-.63.01-6.25.22-11.93,2.73-16.88,7.48-5.2,4.99-8.52,11.06-10.83,15.79-5.01,10.25-8.38,20.86-11.36,30.22l-.4,1.27c-.89,2.81-1.81,5.71-2.78,8.52-.03.08-.06.16-.08.22-.99.27-1.92.52-2.8.74.53-1.64,1.06-3.27,1.59-4.91,1.38-4.25,2.8-8.64,4.14-13l.39-1.24c1.31-4.2,2.66-8.54,2.81-13.34.15-4.97-1.02-13.85-10.53-17.56-2.75-1.07-5.77-1.59-9.23-1.59-1.13,0-2.3.05-3.58.16-6.65.58-13.53,2.3-20.45,5.12-14.81,6.04-26.52,15.63-34.81,28.49-8.4,13.02-11.59,26.36-9.47,39.63.58,3.63,1.74,6.86,3.43,9.6-.22.05-.44.1-.66.16-6.33,1.71-11.58,5.5-15.61,11.26-4.22,6.04-6.66,12.53-7.32,19.38-2.83-7.21-5.48-13.62-5.56-10.38-.12,4.81,4.48,18.12,6.78,24.47.36,1.2.79,2.35,1.28,3.45h0s0,0,0,0c.62,1.39,1.34,2.7,2.15,3.92h0s0,0,0,0c4.6,6.91,12.15,11.06,21.21,11.06.68,0,1.38-.02,2.08-.07,10.46-.73,20.31-4.94,29.27-12.52,7.36-6.23,13.57-14.16,19.52-24.95,3.52-6.38,6.38-13.01,8.93-19.52l6.57,21.26c.1.35.21.7.32,1.04v.03s0,0,0,0c1.85,5.54,5.65,9.49,11.05,11.31,2.36.8,4.83,1.2,7.33,1.2,4.75,0,9.76-1.46,14.88-4.32,5.57-3.12,9.88-7.45,13.17-11.54,2.88,5.13,7.76,8.05,13.76,8.05.95,0,1.94-.08,2.94-.23l-.09.02s5.79,23.33,11.38,27.69c0,0,0,0,0,0,2.46,2.71,5.6,4.74,9.37,5.98,2.69.89,5.54,1.32,8.71,1.32,1.3,0,2.68-.08,4.1-.23,8.23-.88,15.15-3.81,21.16-8.97,5.21-4.47,9.49-10.24,13.48-18.15,3.73-7.41,6.41-14.98,8.64-22.27.2.01.4.02.6.02,1.25,0,2.55-.2,3.88-.6,3.74-1.13,7.13-3.08,10.08-5.8,1.31-1.21,2.49-2.49,3.56-3.8,2.21,2.69,5.57,4.79,10.66,4.79.36,0,.73-.01,1.1-.03,8.97-.55,15.62-6.04,17.8-14.68.91-3.63,1.16-7.19,1.27-9.89.07-1.71.07-3.37.06-4.98,0-.5,0-.99,0-1.48l3.64,11.32c.23.89.49,1.74.82,2.55h0s0,0,0,0c2.49,6.19,7.76,9.87,14.53,9.87,1.25,0,2.55-.12,3.88-.37,6.88-1.27,12.99-4.98,18.69-11.34,2.61-2.92,4.84-6.01,6.78-9.1,2.1,3.29,4.77,5.87,8.06,7.79,3.9,2.28,8.27,3.43,13.01,3.43,3.73,0,7.67-.69,12.02-2.12,6.83-2.23,13.4-6.33,19.53-12.17,7.01-6.69,13-14.57,18.65-24.64l5.13,14.05c.73,3.29,1.83,6.27,3.27,8.95v.02s0,0,0,0c3.08,5.72,7.72,9.99,13.78,12.57,3.82,1.63,7.95,2.45,12.27,2.45,3.66,0,7.56-.59,11.58-1.77,8.72-2.54,15.78-7.53,20.98-14.82,8.63-12.12,11.71-25.38,9.15-39.41ZM681.98,247.24c-.34.13-.69.23-1.02.31.54-1.81,2.04-3.23,3.91-3.71-.42,1.46-1.64,2.93-2.89,3.4ZM479.4,254.42c-1.1.79-2.14,1.71-3.11,2.76.52-1.28,1.01-2.58,1.47-3.9.51.42,1.05.79,1.63,1.13ZM446.08,295.27c.14-1.42.63-2.21,1.85-3.02,7.34-4.87,13.59-10.8,18.72-17.75-2.69,6.94-4.73,13.98-6.41,19.81-.06.21-.16.44-.26.6-1.82,2.9-4.26,4.99-7.26,6.22-1.74.71-2.86.86-3.49.86-.76,0-1.22-.18-1.74-.7-.45-.45-1.83-1.83-1.41-6.01ZM511.58,335.54c-.3.02-.6.03-.91.03-.42,0-.85-.02-1.28-.05-2.34-.19-3.68-.8-4.49-1.81,2.04,1.02,4.28,1.65,6.68,1.84ZM529.72,289.37c-.48.2-1.05.33-1.6.38-.03-.13-.06-.28-.09-.46-.54-3.4,1.99-8.78,5.12-10.85,1.01-.67,1.96-.99,2.93-.99.06,0,.12,0,.17,0,.05.22.09.56.09,1.02-.05,4.38-3.14,9.47-6.63,10.9ZM384.4,284.71c-.2-.73-.18-1.86.05-3.34.88-5.77,5.12-11.89,11.15-14.52-.12.33-.23.65-.35.98-2.24,6.28-4.55,12.76-6.8,19.18-1.01-1.17-2.39-2.05-4.06-2.3ZM364.28,320.77c-.34.13-.69.25-1.04.36-1.53.49-2.94.74-4.2.74-1.36,0-2.54-.29-3.63-.88-.84-.45-1.09-.84-1.17-1.21,2.16.8,4.46,1.2,6.88,1.2,1.03,0,2.08-.07,3.15-.22ZM409.06,309.72c.5-1.35,1.14-2.79,1.95-4.4,1.42-.31,2.75-.59,4-.82-.02.06-.03.12-.05.17-1.82,6.68-2.9,12.86-3.29,18.69l-4.69-8.17c.71-1.84,1.4-3.66,2.07-5.46ZM482.29,342.62c-.55,2.02-.93,4.08-1.13,6.16l-2.58-4.9c1.25-.32,2.49-.74,3.71-1.26ZM602.39,285.84c.96-5.27,2.52-9.38,4.91-12.95,1.32-1.97,2.54-3.3,3.77-4.1-1.11,3.7-2.26,7.35-3.42,11.07-1.03,3.28-2.09,7.15-2.63,11.35l-3.02-1.89c.07-1.18.18-2.34.39-3.48ZM722.04,267.52c2.11-3.83,4.18-7.97,6.24-12.49.59-1.29,1.16-2.59,1.72-3.88-.28.94-.56,1.89-.85,2.84-1.6,5.18-3.25,11.55-3.45,18.32l-.56-.86-3.09-3.93Z"/>
    <g id="idz9rG">
      <g>
        <g>
          <path class="cls-1" d="M498.22,358.48c-2.73,0-5.17-.37-7.45-1.12-6.82-2.25-11.01-7.37-12.44-15.22-1.36-7.45-.43-14.6,2.76-21.25.91-1.9,2.15-3.61,3.35-5.26.25-.34.5-.69.74-1.03.67-.94,1.61-1.64,2.44-2.19.56-.38,1.32-.81,2.19-.81s2.32.38,2.76,2.91c.87,5.08,3.81,7.66,9.24,8.1.54.04,1.08.07,1.61.07,6.24,0,11.96-2.97,17.48-9.07,5.59-6.18,8.97-13.14,10.04-20.67.05-.37.09-.73.12-1.1-.11.24-.22.48-.32.74-2.23,5.85-5.15,10.59-8.93,14.5-3.98,4.1-7.95,6.48-12.16,7.28-1.29.24-2.54.37-3.73.37-5.67,0-10.17-2.82-13.02-8.15-.55-1.04-.99-2.13-1.37-3.22-2.56,4.48-5.74,9.29-10.05,13.32-3.51,3.28-7.26,5.45-11.16,6.44-1.54.39-3.03.59-4.42.59-6.03,0-10.27-3.63-11.92-10.23-.21-.83-.38-1.68-.52-2.53-.13.21-.27.42-.41.62-5.12,7.75-10.21,12.88-16.04,16.14-4.52,2.53-8.87,3.81-12.93,3.81-2.07,0-4.11-.33-6.05-.99-5.48-1.85-8.75-6.39-9.47-13.13-.91-8.51.07-17.85,2.99-28.56.53-1.94.85-3.61.97-5.09.05-.56-.05-.84-.09-.89,0,0,0,0-.01,0-.03,0-.1-.01-.21-.01-.09,0-.19,0-.29.02-2.94.41-6.09,1-9.92,1.86-.62.14-1.29.82-1.79,1.82-.9,1.78-1.61,3.38-2.17,4.9-3.27,8.78-6.86,18.08-11.68,26.83-5.71,10.36-11.61,17.93-18.6,23.83-8.3,7.02-17.38,10.92-26.97,11.58-.61.04-1.21.06-1.8.06-11.78,0-20.57-8.37-21.85-20.83-.92-8.89,1.3-17.24,6.59-24.8,3.48-4.97,7.98-8.23,13.38-9.69.65-.18,1.24-.26,1.78-.26.91,0,3.89.32,4.05,4.47.08,2.2,1.16,3.84,3.3,5,1.67.9,3.53,1.36,5.54,1.36,1.67,0,3.5-.32,5.42-.94,8.28-2.67,14.87-8.75,20.74-19.12,2.53-4.47,4.14-9.16,5.85-14.12l.77-2.23c2.36-6.77,4.81-13.64,7.18-20.28.91-2.55,1.82-5.11,2.73-7.66-9.03.08-19.41,7.26-21.25,19.23-.41,2.7-.28,4.58.44,6.08.72,1.5,1.48,1.8,2.41,1.8,1.65,0,2.68,1.53,2.9,2.62.68,3.21.05,6.63-1.91,10.45-3.79,7.38-9.6,12.22-17.26,14.4-2.08.59-4.08.89-5.95.89-2.89,0-5.56-.71-7.93-2.11-4.75-2.8-7.67-7.45-8.68-13.83-1.95-12.27,1.04-24.67,8.89-36.84,7.84-12.16,18.93-21.23,32.96-26.95,6.54-2.67,13.03-4.3,19.28-4.84,1.17-.1,2.23-.15,3.24-.15,2.96,0,5.5.43,7.78,1.32,5.51,2.15,8.19,6.77,7.98,13.72-.13,4.25-1.4,8.33-2.63,12.27l-.39,1.25c-1.33,4.33-2.75,8.71-4.12,12.94-.79,2.43-1.58,4.87-2.35,7.3-.32,1-.53,1.87-.66,2.67-.13.81,0,1.2.05,1.27,0,0,0,0,0,0,.02,0,.1.02.23.02.12,0,.25-.01.39-.04,2.63-.47,5.43-1.13,9.08-2.14,1.14-.32,1.79-1.59,2.14-2.59.98-2.86,1.91-5.79,2.81-8.62l.4-1.26c2.94-9.23,6.26-19.69,11.14-29.68,2.17-4.43,5.26-10.11,10.01-14.66,4.22-4.04,9.01-6.19,14.25-6.37.16,0,.33,0,.49,0,5.74,0,9.77,3.55,11.05,9.74,1.21,5.81.73,12.26-1.4,19.16-5.37,17.38-15.26,30.96-29.41,40.35-2.2,1.46-3.35,3.35-3.62,5.95-.42,4.09.42,7.11,2.56,9.25,1.26,1.26,2.76,1.87,4.56,1.87,1.44,0,3.13-.39,5.01-1.16,3.79-1.55,6.86-4.18,9.13-7.8.3-.47.55-1.05.71-1.61,1.95-6.73,4.37-15.11,7.71-22.94,1.76-4.13,3.84-8.47,7.15-12.24,1.76-2,3.77-3.45,5.98-4.3,1.04-.4,2.06-.6,3.01-.6,3.28,0,5.57,2.29,5.98,5.99.39,3.48-.03,7.22-1.33,11.77-.53,1.86-1.09,3.71-1.66,5.56-.81,2.64-1.65,5.37-2.34,8.06-.61,2.38-.96,4.83-.99,7.08-.03,1.56.36,2.83,1.09,3.57.52.53,1.23.8,2.09.8s1.82-.27,2.82-.77c1.07-.53,2.21-1.41,3.15-2.41,2.04-2.18,3.39-4.54,4.12-7.21,2.83-10.28,7-18.88,12.74-26.3,5.35-6.92,11.66-11.68,18.73-14.16,3.4-1.19,6.73-1.8,9.88-1.8.26,0,.52,0,.77.01,3.11.1,5.81,1.16,8.02,3.17.35.32.71.47,1.13.47.72,0,1.62-.43,2.43-1.15.67-.6,1.32-1.26,2-1.94.55-.56,1.11-1.12,1.68-1.65,2.65-2.49,5.57-3.76,8.67-3.76,3.38.02,5.54,2.16,5.82,5.74.18,2.32-.22,4.78-1.21,7.3-.75,1.92-1.52,3.84-2.29,5.75-1.29,3.2-2.62,6.5-3.81,9.76-1.84,5.05-3.44,9.94-4.75,14.54-.5,1.76-.41,3.8-.29,5.17.05.56.28,1.85,1.49,1.85.43,0,.93-.16,1.45-.46,1.83-1.07,3.41-2.41,4.45-3.76,2.19-2.86,4.24-5.97,6.22-8.97.57-.86,1.13-1.72,1.71-2.58.11-.16.21-.54.31-.89.05-.18.1-.36.16-.53,1.43-4.57,2.85-9.14,4.27-13.71,3.24-10.44,6.6-21.23,10-31.83,1.82-5.66,4.44-13.06,8.62-20.07,1.14-1.92,2.62-3.92,4.4-5.95,2.09-2.39,4.72-3.84,7.82-4.33.51-.08,1-.12,1.47-.12,1.95,0,3.58.67,4.72,1.94.9,1.01,1.9,2.88,1.54,6.08-.33,2.97-1.21,6.12-2.69,9.64-1.18,2.82-2.38,5.63-3.59,8.45-1.56,3.66-3.18,7.44-4.72,11.17-.99,2.39-2.14,5.52-2.46,8.75.71-.76,1.37-1.5,2.02-2.24.98-1.1,1.99-2.24,3.06-3.31,4.95-4.95,10.12-7.79,15.8-8.68.82-.13,1.64-.19,2.43-.19,7.22,0,12.26,5.3,12.52,13.19.16,4.74-1.15,9.28-2.31,12.7-1.36,4.02-2.56,7.94-2.29,11.82.22,3.26,1.69,3.54,3.05,3.54.26,0,.53-.02.82-.05,2.8-.32,5.06-2.08,7.55-5.87,1.47-2.23,2.42-4.27,2.99-6.42,2.53-9.47,6.89-17.92,12.97-25.11,7.49-8.86,16.42-14.09,26.54-15.55,1.39-.2,2.73-.3,3.97-.3,4.81,0,8.74,1.53,11.69,4.54,4.92,5.03,6.4,11.93,4.41,20.5-2.79,11.98-13.03,22.25-24.35,24.41-2.52.48-4.59.71-6.51.71-2.29,0-4.33-.32-6.25-.98-.02.08-.04.18-.04.31-.01.95.27,1.66.89,2.25,1.22,1.15,2.95,1.72,5.43,1.78.29,0,.59.01.88.01,9.56,0,18.56-4.16,26.74-12.35,3.83-3.84,6.93-8.64,9.22-14.29,1.52-3.76,2.95-7.64,4.32-11.39.44-1.2.88-2.4,1.33-3.61-4.87-2.19-4.55-7.98-4.43-10.33.38-7.06,5.31-14.16,11.22-16.17,2.9-.99,5.93-1.2,8.78-1.28.42-.01.84-.02,1.26-.02,6.84,0,13.01,1.62,18.35,4.81.41.25.81.51,1.21.78l.5.34c5.3,3.49,6.85,9.22,4.6,17.03-.64,2.21-1.33,4.44-2,6.59-.69,2.23-1.41,4.54-2.05,6.8-1.35,4.74-1.89,8.81-1.63,12.44.12,1.64.49,3.34,1.12,5.06.51,1.42,1.5,2.36,2.84,2.73,1.25.34,2.48.52,3.66.52,3.19,0,6.04-1.25,8.7-3.83.99-.96,1.81-2.28,2.68-3.68.34-.55.68-1.09,1.03-1.62.32-.48.62-1,.93-1.56.43-.76.88-1.55,1.44-2.31,1.44-1.96,3.33-3.04,5.33-3.04,1.25,0,2.49.44,3.56,1.26,2.19,1.68,3.57,4.19,4.21,7.69,2.36,12.93-.49,25.17-8.47,36.37-4.66,6.54-11,11.02-18.84,13.3-3.66,1.07-7.18,1.61-10.46,1.61-3.79,0-7.39-.72-10.71-2.13-8.27-3.52-13.35-10.44-15.09-20.56-1.53-8.89.69-17.86,2.8-24.68,1.62-5.27,3-10.49,4.1-15.52.79-3.63-.58-7.05-3.2-8.51-.3.75-.61,1.51-.92,2.26-.84,2.04-1.66,4.08-2.48,6.12-1.84,4.56-3.73,9.27-5.82,13.85-7.5,16.45-15.07,27.82-24.56,36.87-5.69,5.43-11.75,9.22-18.01,11.26-3.95,1.29-7.47,1.92-10.78,1.92-4.02,0-7.72-.97-11-2.89-4.57-2.67-7.75-6.96-9.7-13.06-2.62,5.01-5.85,10.37-10.14,15.16-5.09,5.68-10.47,8.98-16.44,10.08-1.09.2-2.15.3-3.15.3-6.43,0-10.75-4.08-11.85-11.2-1.19-7.65.69-15.1,2.46-20.74,1.25-3.97,2.46-7.86,3.63-11.76.19-.63.25-1.38.29-2.02.08-1.35-.14-2.37-.62-2.87-.11-.12-.45-.48-1.44-.48-.45,0-.96.07-1.52.22-2.89.75-5.3,2.76-7.82,6.52-2.71,4.04-4.46,8.63-5.53,14.46-.59,3.21-.58,6.33-.57,9.63,0,1.57,0,3.19-.06,4.81-.1,2.51-.33,5.8-1.15,9.08-1.76,6.97-6.92,11.22-14.16,11.66-.29.02-.58.03-.86.03-3.67,0-8.22-1.54-10.17-8.44-1.79,2.92-3.97,5.93-6.78,8.52-2.5,2.31-5.36,3.96-8.52,4.91-.96.29-1.88.43-2.73.43-1.22,0-2.33-.28-3.33-.84-2.41,8.23-5.26,16.91-9.48,25.3-3.74,7.43-7.72,12.81-12.51,16.92-5.37,4.61-11.58,7.24-18.98,8.03-1.28.14-2.51.21-3.68.21ZM528.82,256.55c-1.75,0-3.48.56-5.14,1.66-4.45,2.95-7.65,9.87-6.86,14.82.54,3.34,1.98,3.83,3.47,3.85h.12c1.19,0,2.46-.25,3.56-.7,4.96-2.03,9.04-8.56,9.11-14.56.02-1.73-.38-4.67-3.26-5.01-.33-.04-.67-.06-1-.06ZM447.08,238.02c-.41,0-.89.25-1.35.7-.94.92-1.78,2.03-2.35,3.1-1.79,3.37-2.71,6.92-3.72,11.2-.16.67-.29,1.39-.4,2.16.28-.2.54-.41.77-.63,2.76-2.61,4.88-5.89,6.5-10.02.45-1.15.77-2.35,1.11-3.63.12-.45.24-.9.37-1.35-.15-.82-.28-1.34-.51-1.44-.14-.06-.27-.09-.41-.09ZM678.6,222.77c-.41,0-.87.05-1.34.15-3.63.69-6.55,3.38-7.48,6.88-.43,1.64-.3,3.08.37,3.96.5.66,1.3,1.01,2.37,1.02h.11c1.07,0,2.31-.25,3.5-.7,2.78-1.05,5.17-4.16,5.57-7.24.17-1.3-.1-2.45-.72-3.16-.53-.6-1.33-.91-2.38-.91Z"/>
          <path class="cls-4" d="M605.48,182.69c3.05,0,4.68,2.14,4.27,5.79-.35,3.11-1.31,6.13-2.55,9.1-2.74,6.55-5.6,13.06-8.31,19.62-1.32,3.2-2.4,6.48-2.64,9.84-.07.97-.27,2.16.73,2.53.16.06.32.09.48.09.82,0,1.52-.77,2.13-1.41,1.76-1.86,3.39-3.87,5.19-5.68,4.31-4.32,9.15-7.25,14.7-8.11.73-.11,1.44-.17,2.12-.17,6.1,0,10.29,4.4,10.52,11.26.14,4.05-.85,8.01-2.2,11.99-1.41,4.17-2.68,8.33-2.39,12.59.24,3.57,1.94,5.4,5.04,5.4.33,0,.68-.02,1.04-.06,4.04-.47,6.69-3.26,8.99-6.75,1.44-2.19,2.57-4.45,3.25-7.01,2.38-8.91,6.47-17.12,12.57-24.34,7.08-8.37,15.52-13.46,25.29-14.86,1.26-.18,2.49-.28,3.69-.28,3.91,0,7.45,1.07,10.25,3.94,4.68,4.79,5.61,11.25,3.89,18.65-2.64,11.35-12.2,20.88-22.78,22.9-2.08.4-4.13.67-6.14.67s-3.93-.27-5.81-.95c-.21-.08-.42-.11-.62-.11-1.04,0-1.84.98-1.85,2.37-.02,1.54.52,2.78,1.52,3.73,1.84,1.73,4.23,2.26,6.75,2.32.31,0,.62.01.93.01,10.43,0,19.78-4.55,28.15-12.94,4.28-4.29,7.4-9.39,9.66-14.95,2.19-5.41,4.11-10.89,6.15-16.35.07-.19.1-.4.18-.71-4.55-.82-5.21-4.52-4.97-8.92.33-6.02,4.6-12.6,9.87-14.39,2.66-.9,5.49-1.1,8.19-1.17.4-.01.8-.02,1.2-.02,6.29,0,12.12,1.42,17.32,4.53.56.34,1.09.72,1.64,1.07,4.95,3.25,5.59,8.5,3.78,14.81-1.29,4.48-2.77,8.92-4.05,13.4-1.25,4.39-2.01,8.81-1.7,13.13.14,1.94.6,3.86,1.23,5.6.73,2.01,2.2,3.43,4.19,3.98,1.4.39,2.8.59,4.19.59,3.5,0,6.92-1.31,10.09-4.39,1.6-1.54,2.71-3.71,3.99-5.63.82-1.23,1.44-2.61,2.31-3.8,1.08-1.47,2.4-2.23,3.72-2.23.8,0,1.61.28,2.35.85,2,1.53,2.98,3.88,3.45,6.46,2.2,12.05-.25,23.78-8.13,34.85-4.63,6.5-10.75,10.5-17.77,12.54-3.38.99-6.69,1.53-9.9,1.53-3.43,0-6.75-.62-9.92-1.97-7.9-3.36-12.33-9.94-13.9-19.05-1.34-7.8.26-15.73,2.74-23.76,1.6-5.19,3-10.43,4.14-15.68,1.2-5.5-1.68-10.46-6.28-11.48-.54,1.34-1.08,2.7-1.64,4.05-2.74,6.64-5.29,13.35-8.28,19.9-6.09,13.35-13.36,25.99-24.12,36.25-5.17,4.93-10.88,8.72-17.25,10.81-3.48,1.14-6.88,1.82-10.16,1.82-3.5,0-6.85-.78-9.99-2.61-5.11-2.99-7.87-8.01-9.41-14.06-.23-.9-.4-1.83-.63-2.91-.23.39-.41.65-.55.94-3.23,6.6-6.81,12.99-11.75,18.51-4.37,4.88-9.36,8.35-15.31,9.45-.98.18-1.91.27-2.79.27-5.41,0-8.92-3.37-9.88-9.51-1.02-6.55.29-13.16,2.39-19.83,1.23-3.93,2.46-7.85,3.64-11.79.24-.81.32-1.66.37-2.48.2-3.54-1.28-5.46-4.06-5.47-.61,0-1.29.09-2.02.28-3.91,1.01-6.66,3.88-8.98,7.34-3.16,4.71-4.86,9.86-5.83,15.21-.91,5-.47,9.82-.67,14.72-.12,2.86-.37,5.82-1.09,8.67-1.71,6.77-6.72,9.81-12.34,10.16-.25.02-.5.02-.73.02-5.59,0-7.94-4.13-8.77-9.45-.13-.86-.21-1.74-.35-2.87-.34.61-.58,1.03-.82,1.46-2.3,4.2-4.84,8.21-8.37,11.47-2.33,2.15-4.92,3.62-7.74,4.47-.76.23-1.48.35-2.15.35-1.73,0-3.17-.79-4.34-2.53-.18.63-.3,1.04-.42,1.45-2.61,9.06-5.5,18.04-9.84,26.64-3.09,6.14-6.8,11.82-12.03,16.3-5.47,4.7-11.52,6.88-17.89,7.56-1.17.12-2.32.19-3.46.19-2.35,0-4.64-.3-6.83-1.02-6.25-2.06-9.84-6.79-11.1-13.68-1.2-6.58-.62-13.32,2.6-20.03,1.02-2.12,2.53-4.05,3.91-6,.49-.68,1.23-1.23,1.92-1.69.46-.31.81-.47,1.08-.47.43,0,.64.41.79,1.25,1.11,6.44,5.16,9.28,11.05,9.76.6.05,1.19.07,1.77.07,7.17,0,13.44-3.62,18.97-9.73,5.7-6.3,9.37-13.52,10.54-21.73.18-1.24.23-2.5.15-3.7-.05-.9-.52-1.4-1.12-1.4-.39,0-.83.21-1.25.67-.78.85-1.42,1.99-1.83,3.08-1.96,5.14-4.63,9.83-8.49,13.81-3.24,3.34-6.84,5.9-11.09,6.7-1.17.22-2.29.33-3.36.33-4.99,0-8.76-2.42-11.25-7.09-1.18-2.22-1.81-4.84-2.69-7.27-.19.35-.5.94-.82,1.53-3.03,5.6-6.38,10.95-11.05,15.32-3.09,2.89-6.49,5-10.29,5.97-1.39.35-2.71.53-3.93.53-5.04,0-8.54-2.99-9.98-8.72-.62-2.48-.87-5.12-1.29-7.71-1.05,1.68-2.11,3.46-3.25,5.19-4.15,6.29-8.93,11.9-15.35,15.5-3.98,2.23-7.99,3.56-11.95,3.56-1.82,0-3.63-.28-5.41-.88-5.01-1.69-7.53-5.86-8.12-11.45-.97-9.13.38-18.44,2.93-27.82.49-1.8.88-3.65,1.03-5.45.16-1.94-.67-3.07-2.3-3.07-.18,0-.36.01-.56.04-3.36.46-6.73,1.13-10.09,1.89-1.37.31-2.45,1.51-3.14,2.87-.84,1.66-1.62,3.37-2.26,5.1-3.36,9.03-6.85,18.01-11.56,26.56-4.83,8.77-10.52,16.83-18.13,23.27-7.91,6.69-16.54,10.47-25.82,11.11-.56.04-1.11.06-1.66.06-10.79,0-18.67-7.51-19.87-19.03-.85-8.19,1.08-16.07,6.24-23.45,3.19-4.56,7.3-7.57,12.26-8.91.47-.13.89-.19,1.26-.19,1.29,0,1.98.79,2.05,2.54.12,3.22,1.88,5.34,4.35,6.68,2.04,1.11,4.22,1.6,6.49,1.6,1.96,0,3.98-.37,6.04-1.03,9.85-3.18,16.57-10.68,21.87-20.04,3.01-5.32,4.8-11.03,6.77-16.68,3.4-9.75,6.91-19.48,10.36-29.22.14-.4.26-.8.39-1.21-.86-.12-1.72-.17-2.59-.17-10.6,0-21.48,8.57-23.37,20.93-.39,2.56-.43,5.07.62,7.25.86,1.78,2.11,2.93,4.21,2.93.03,0,.06,0,.08,0,0,0,0,0,0,0,.35,0,.77.59.86,1.03.65,3.07-.21,6.16-1.73,9.12-3.63,7.06-9.07,11.41-16.03,13.39-1.86.53-3.66.81-5.4.81-2.45,0-4.77-.57-6.92-1.84-4.43-2.62-6.86-6.99-7.73-12.42-1.95-12.26,1.31-24.15,8.59-35.44,8.15-12.63,19.17-20.93,32.04-26.19,6.17-2.52,12.4-4.15,18.7-4.7,1.03-.09,2.05-.14,3.06-.14,2.44,0,4.82.31,7.05,1.18,4.89,1.91,6.89,6.02,6.71,11.8-.13,4.41-1.61,8.7-2.93,12.99-2.08,6.75-4.32,13.48-6.47,20.22-.31.98-.57,1.98-.73,2.97-.35,2.21.46,3.6,2.27,3.6.23,0,.48-.02.74-.07,3.09-.55,6.19-1.33,9.27-2.18,1.78-.5,2.88-2.08,3.49-3.87,1.13-3.29,2.17-6.61,3.22-9.92,3.16-9.94,6.38-19.87,11.03-29.41,2.52-5.16,5.41-10.08,9.6-14.1,3.86-3.71,8.2-5.65,12.93-5.81.14,0,.28,0,.42,0,4.77,0,8,2.9,9.09,8.15,1.22,5.88.55,12.01-1.35,18.16-5.08,16.44-14.33,29.8-28.6,39.27-2.75,1.83-4.18,4.25-4.5,7.42-.44,4.35.4,8.13,3.14,10.87,1.74,1.74,3.78,2.46,5.98,2.46,1.83,0,3.78-.5,5.77-1.31,4.1-1.68,7.53-4.53,10.07-8.58.41-.65.73-1.39.94-2.12,2.21-7.65,4.46-15.28,7.63-22.72,1.77-4.17,3.76-8.23,6.81-11.71,1.49-1.7,3.2-2.99,5.2-3.75.82-.32,1.6-.47,2.3-.47,2.19,0,3.69,1.5,3.99,4.21.4,3.63-.22,7.32-1.26,11-1.3,4.56-2.83,9.09-4.01,13.66-.64,2.49-1.02,5.08-1.06,7.55-.07,4.03,2.08,6.41,5.18,6.41,1.13,0,2.39-.31,3.71-.98,1.33-.66,2.65-1.69,3.71-2.83,2.15-2.3,3.73-4.92,4.59-8.04,2.53-9.18,6.4-17.86,12.39-25.61,4.89-6.32,10.74-11.02,17.81-13.5,3.07-1.08,6.16-1.68,9.22-1.68.24,0,.47,0,.71.01,2.61.08,4.88.97,6.73,2.65.77.7,1.62.99,2.48.99,1.34,0,2.69-.7,3.76-1.67,1.28-1.15,2.45-2.45,3.71-3.63,2.19-2.06,4.64-3.22,7.3-3.22.02,0,.03,0,.05,0,2.36.01,3.58,1.39,3.78,3.9.17,2.15-.25,4.3-1.08,6.41-2.02,5.19-4.22,10.34-6.12,15.56-1.77,4.85-3.39,9.75-4.79,14.68-.54,1.9-.52,3.99-.36,5.89.19,2.3,1.62,3.69,3.48,3.69.77,0,1.6-.23,2.46-.73,1.83-1.07,3.71-2.54,5.03-4.27,2.85-3.73,5.38-7.73,8-11.65.37-.55.51-1.27.71-1.93,4.75-15.18,9.4-30.37,14.26-45.53,2.16-6.75,4.72-13.43,8.43-19.66,1.2-2.01,2.65-3.91,4.19-5.66,1.83-2.1,4.1-3.27,6.62-3.67.41-.06.8-.09,1.16-.09M672.64,236.78c1.37,0,2.85-.31,4.21-.83,3.5-1.32,6.35-5.05,6.84-8.86.44-3.41-1.31-6.32-5.08-6.32-.54,0-1.12.06-1.74.18-4.36.82-7.89,4.09-9.01,8.33-1.11,4.22.78,7.43,4.64,7.49.05,0,.1,0,.14,0M438.04,257.91c.32,0,.73-.13,1.21-.38.76-.41,1.52-.92,2.16-1.54,3.18-3.02,5.4-6.71,6.99-10.74.71-1.82,1.12-3.73,1.67-5.6-.26-1.5-.47-2.83-1.79-3.39-.39-.16-.79-.24-1.19-.24-.97,0-1.93.47-2.75,1.27-1.05,1.03-2.03,2.29-2.72,3.6-1.98,3.73-2.96,7.71-3.9,11.68-.27,1.15-.45,2.32-.58,3.48-.14,1.23.18,1.87.91,1.87M520.41,278.87c1.4,0,2.94-.28,4.32-.85,5.76-2.37,10.28-9.62,10.35-16.39.04-3.99-1.8-6.64-5.03-7.02-.41-.05-.82-.07-1.24-.07-2.12,0-4.22.65-6.24,1.99-5.09,3.38-8.64,11.11-7.73,16.8.57,3.58,2.28,5.49,5.41,5.53.05,0,.1,0,.15,0M605.48,178.69c-.57,0-1.17.05-1.78.14-3.53.55-6.65,2.27-9.02,4.99-1.88,2.15-3.39,4.2-4.61,6.25-4.28,7.18-6.95,14.72-8.8,20.49-3.4,10.6-6.75,21.39-9.99,31.82-1.42,4.58-2.85,9.16-4.28,13.74-.06.19-.11.39-.17.58-.04.14-.09.33-.13.44-.55.82-1.09,1.64-1.63,2.47-1.96,2.97-3.99,6.05-6.13,8.86-.87,1.14-2.23,2.28-3.82,3.22-.09-1.21-.15-2.89.24-4.27,1.29-4.55,2.88-9.39,4.7-14.4,1.18-3.23,2.51-6.53,3.79-9.71.76-1.89,1.55-3.83,2.3-5.77,1.09-2.81,1.54-5.56,1.34-8.18-.37-4.65-3.34-7.56-7.75-7.58h-.01s-.06,0-.06,0c-3.63,0-7,1.45-10.04,4.3-.6.57-1.18,1.14-1.73,1.7-.66.67-1.29,1.3-1.92,1.87-.4.36-.76.55-.97.61-2.53-2.26-5.71-3.5-9.21-3.61-.28,0-.56-.01-.84-.01-3.38,0-6.93.64-10.55,1.91-7.45,2.61-14.06,7.6-19.65,14.82-5.91,7.63-10.19,16.46-13.09,26.99-.65,2.35-1.84,4.44-3.65,6.37-.78.83-1.72,1.56-2.58,1.99-.72.36-1.4.55-1.93.55-.46,0-.6-.14-.66-.2-.26-.27-.54-.97-.52-2.14.03-2.1.36-4.39.93-6.62.68-2.64,1.51-5.35,2.31-7.97.56-1.83,1.14-3.72,1.67-5.6,1.37-4.81,1.81-8.79,1.39-12.54-.53-4.72-3.65-7.77-7.97-7.77-1.2,0-2.46.25-3.73.74-2.52.97-4.79,2.6-6.77,4.85-3.49,3.98-5.66,8.49-7.48,12.78-3.38,7.94-5.82,16.39-7.79,23.17-.11.39-.29.79-.49,1.11-2.04,3.26-4.8,5.62-8.2,7.01-1.64.67-3.07,1.01-4.25,1.01-1.29,0-2.26-.4-3.15-1.29-1.69-1.68-2.34-4.18-1.99-7.63.2-2.01,1.02-3.35,2.73-4.49,14.54-9.65,24.7-23.59,30.21-41.42,2.23-7.23,2.72-14.01,1.44-20.16-1.47-7.1-6.34-11.34-13.01-11.34-.18,0-.37,0-.56,0-5.74.2-10.98,2.53-15.56,6.92-4.97,4.77-8.18,10.65-10.42,15.23-4.94,10.12-8.29,20.66-11.25,29.95l-.4,1.26c-.9,2.82-1.82,5.74-2.79,8.57-.34,1-.71,1.29-.78,1.32-2.69.75-4.91,1.3-6.94,1.72.08-.31.18-.63.29-.97.77-2.43,1.56-4.86,2.35-7.29,1.37-4.24,2.79-8.63,4.13-12.97l.39-1.25c1.27-4.07,2.58-8.28,2.72-12.8.3-9.82-4.87-13.93-9.26-15.64-2.51-.98-5.29-1.46-8.5-1.46-1.07,0-2.19.05-3.41.16-6.45.56-13.13,2.23-19.86,4.98-14.42,5.88-25.82,15.21-33.89,27.72-8.12,12.6-11.21,25.46-9.18,38.23.77,4.87,2.67,8.92,5.55,11.97-.64-.2-1.29-.29-1.92-.29-.73,0-1.48.11-2.3.33-5.86,1.58-10.74,5.11-14.5,10.47-5.57,7.97-7.91,16.77-6.94,26.15,1.4,13.53,10.98,22.62,23.84,22.62.64,0,1.29-.02,1.94-.07,10.03-.7,19.49-4.75,28.12-12.05,7.17-6.06,13.23-13.81,19.05-24.39,4.88-8.86,8.51-18.24,11.8-27.09.54-1.45,1.22-2.98,2.09-4.69.23-.46.46-.71.57-.8,2.92-.65,5.44-1.15,7.77-1.52-.16.97-.39,2.02-.71,3.19-2.99,10.95-3.98,20.54-3.05,29.29.8,7.47,4.64,12.73,10.82,14.82,2.15.73,4.4,1.1,6.69,1.1,4.41,0,9.08-1.37,13.9-4.07,6.5-3.64,11.24-9.06,14.59-13.68,2.19,6.34,6.96,9.94,13.32,9.94,1.56,0,3.21-.22,4.91-.65,2.68-.68,5.29-1.87,7.79-3.54-2.84,6.62-3.6,13.68-2.26,21,1.55,8.5,6.32,14.29,13.78,16.76,2.49.82,5.13,1.22,8.08,1.22,1.23,0,2.54-.07,3.89-.22,7.81-.84,14.38-3.62,20.07-8.5,5-4.29,9.13-9.86,12.99-17.54,3.94-7.83,6.7-15.88,9.01-23.58.72.16,1.41.22,2.02.22,1.05,0,2.16-.17,3.31-.52,3.45-1.04,6.57-2.84,9.3-5.36,1.93-1.78,3.57-3.74,4.99-5.72,2.88,5.23,7.58,6.17,10.59,6.17.32,0,.64,0,.98-.03,8.05-.49,14.03-5.42,15.98-13.17.87-3.45,1.1-6.88,1.21-9.49.07-1.67.07-3.31.06-4.9,0-3.21-.01-6.24.54-9.27,1.01-5.54,2.67-9.9,5.22-13.7,2.23-3.32,4.28-5.08,6.67-5.7.5-.13.83-.16,1.02-.16h0c.05.23.1.64.07,1.24-.03.53-.08,1.13-.21,1.56-1.18,3.93-2.39,7.79-3.62,11.74-1.83,5.84-3.78,13.58-2.52,21.65,1.26,8.07,6.43,12.9,13.83,12.9,1.12,0,2.31-.11,3.51-.34,6.42-1.19,12.17-4.69,17.57-10.71,3.35-3.74,6.07-7.8,8.35-11.78,2.12,4.47,5.09,7.79,8.99,10.07,3.58,2.1,7.62,3.16,12.01,3.16,3.52,0,7.25-.66,11.4-2.02,6.55-2.14,12.86-6.08,18.77-11.72,9.68-9.23,17.39-20.79,25-37.48,2.11-4.62,4.01-9.35,5.85-13.93.75-1.87,1.51-3.74,2.28-5.61.67,1.24.89,2.87.52,4.56-1.08,4.98-2.45,10.14-4.06,15.35-2.17,7.04-4.46,16.3-2.86,25.61,1.86,10.83,7.33,18.25,16.27,22.06,3.57,1.52,7.43,2.29,11.49,2.29,3.47,0,7.18-.57,11.02-1.69,8.28-2.41,14.98-7.14,19.91-14.06,8.31-11.66,11.27-24.41,8.81-37.89-.72-3.95-2.39-6.96-4.96-8.92-1.43-1.09-3.08-1.67-4.78-1.67-2.65,0-5.12,1.37-6.95,3.86-.63.85-1.12,1.73-1.56,2.51-.3.52-.57,1.01-.86,1.44-.36.54-.71,1.1-1.06,1.67-.8,1.29-1.56,2.51-2.38,3.3-2.27,2.2-4.66,3.26-7.31,3.26-.99,0-2.04-.15-3.12-.45-.26-.07-1.06-.29-1.49-1.49-.56-1.55-.9-3.07-1-4.52-.24-3.4.27-7.24,1.56-11.75.64-2.24,1.35-4.53,2.04-6.75.67-2.17,1.37-4.41,2.01-6.65,1.73-6.02,2.19-14.25-5.43-19.26-.16-.11-.32-.21-.48-.32-.39-.26-.83-.56-1.3-.84-5.65-3.38-12.17-5.1-19.38-5.1-.44,0-.88,0-1.32.02-3,.08-6.21.31-9.36,1.38-6.63,2.25-12.15,10.14-12.57,17.96-.29,5.43,1.04,9.23,3.96,11.34-.25.67-.49,1.34-.74,2.01-1.37,3.74-2.79,7.6-4.3,11.33-2.19,5.4-5.14,9.98-8.78,13.63-1.15,1.15-2.3,2.21-3.46,3.19,4.85-4.64,8.48-10.75,10.04-17.46,2.16-9.27.5-16.79-4.93-22.35-3.33-3.41-7.75-5.14-13.12-5.14-1.34,0-2.77.11-4.26.32-10.62,1.53-19.96,6.99-27.78,16.24-6.27,7.42-10.78,16.13-13.38,25.89-.52,1.94-1.38,3.79-2.73,5.84-2.16,3.28-3.93,4.73-6.11,4.98-.21.02-.41.04-.58.04-.5,0-.68-.1-.68-.1-.07-.07-.3-.53-.38-1.57-.24-3.51.9-7.22,2.19-11.04,1.21-3.58,2.58-8.34,2.41-13.41-.3-8.9-6.27-15.12-14.52-15.12-.89,0-1.81.07-2.74.22-5.89.92-11.45,3.9-16.53,8.86.08-.21.17-.43.26-.65,1.53-3.71,3.14-7.48,4.7-11.13,1.21-2.82,2.41-5.65,3.6-8.48,1.55-3.7,2.48-7.03,2.83-10.19.44-3.93-.86-6.32-2.03-7.63-1.5-1.68-3.71-2.61-6.21-2.61h0ZM672.64,232.78h-.08c-.19,0-.66-.03-.81-.23-.16-.21-.37-.95-.03-2.24.73-2.75,3.04-4.88,5.89-5.42h.03s.03-.01.03-.01c.35-.07.66-.11.95-.11.2,0,.7.02.88.23.19.22.34.79.24,1.58-.3,2.36-2.19,4.83-4.29,5.63-.97.37-1.97.57-2.79.57h0ZM443.7,246.02c.33-.89.69-1.76,1.11-2.6-.05.12-.09.25-.14.37-.3.78-.63,1.52-.97,2.23h0ZM375.89,269.72s-.16-.15-.41-.65c-.53-1.1-.61-2.65-.27-4.9,1.16-7.57,7.56-15.68,16.34-17.26-.56,1.57-1.12,3.14-1.68,4.7-2.37,6.65-4.82,13.52-7.19,20.3-.26.75-.52,1.5-.78,2.24-.23.66-.45,1.31-.68,1.96-.04-.73-.14-1.45-.29-2.17-.43-2.04-2.25-4.2-4.77-4.2h-.06s0,0,0,0c-.15,0-.21-.01-.22-.02h0ZM520.41,274.87h-.09c-.69-.01-1.18-.02-1.53-2.17-.66-4.12,2.25-10.35,5.99-12.84,1.35-.89,2.66-1.33,4.03-1.33.25,0,.51.02.77.05.38.04,1.52.18,1.49,3-.06,5.17-3.66,11-7.87,12.73-.85.35-1.88.55-2.8.55h0ZM353.87,302.09c2.05,0,4.24-.33,6.49-.97,4.12-1.17,7.74-3.06,10.83-5.64-4.3,5.42-9.06,8.87-14.6,10.65-1.73.56-3.34.84-4.81.84-1.7,0-3.2-.37-4.59-1.12-1.92-1.04-2.22-2.26-2.26-3.32-.05-1.34-.35-2.44-.8-3.32.25.17.51.33.78.48,2.69,1.59,5.7,2.39,8.95,2.39h0ZM490.01,309.6c.43-.63.84-1.27,1.24-1.9,3.22,5.89,8.29,9.01,14.67,9.01,1.31,0,2.69-.14,4.1-.4,3.61-.68,7.04-2.4,10.41-5.22-.33.39-.67.78-1.02,1.17-5.12,5.66-10.35,8.41-16,8.41-.47,0-.96-.02-1.44-.06-4.56-.37-6.71-2.24-7.43-6.45-.69-4-3.56-4.51-4.52-4.57h0Z"/>
        </g>
        <g>
          <path class="cls-1" d="M482.4,235.41c-.68.05-1.37.08-2.05.08-1.03,0-1.96-.07-2.83-.22-4.66-.79-7.47-4.09-7.72-9.07-.14-2.69.07-5.39.6-7.8,1-4.58,3.78-8.2,8.05-10.47,3.86-2.05,7.76-3.08,11.61-3.08,1.03,0,2.07.07,3.09.22,5.02.73,8.12,4.5,8.29,10.08.09,3.02-.3,5.73-1.21,8.28-2.04,5.73-6.23,9.41-12.8,11.26-.3.09-.6.15-.89.21v.05s-1.04.14-1.04.14l-.68.35-.37-.18-2.09.39.04-.25Z"/>
          <path class="cls-4" d="M490.06,206.85c.93,0,1.87.07,2.8.2,4.13.6,6.44,3.6,6.58,8.17.08,2.52-.2,5.03-1.1,7.54-2.08,5.83-6.33,8.56-11.46,10-.69.19-1.39.27-2.09.4,0,.03,0,.04,0,.04,0,0,0-.02,0-.04,0-.03,0-.04,0-.04,0,0,0,.02,0,.04-1.49.16-2.98.32-4.44.32-.85,0-1.68-.05-2.49-.19-3.68-.62-5.85-3.11-6.06-7.2-.12-2.36.03-4.87.55-7.27.89-4.1,3.41-7.2,7.03-9.13,3.53-1.87,7.11-2.85,10.67-2.85M490.06,202.85c-4.18,0-8.4,1.12-12.55,3.32-4.8,2.55-7.94,6.63-9.07,11.81-.57,2.62-.79,5.42-.64,8.33.3,5.9,3.81,9.99,9.39,10.94.89.15,1.83.23,2.85.25l-.1.62,3.26-.59,4.15,4.88.95-5.87c7.05-2.07,11.57-6.13,13.81-12.42.99-2.79,1.43-5.74,1.33-9.01-.2-6.54-4.03-11.13-10-12-1.11-.16-2.25-.24-3.37-.24h0Z"/>
        </g>
      </g>
    </g>
    <g id="idz9rG-2" data-name="idz9rG">
      <path class="cls-7" d="M484.79,233.17c-2.35.26-4.73.5-6.93.13-3.68-.62-5.85-3.11-6.06-7.2-.12-2.36.03-4.87.55-7.27.89-4.1,3.41-7.2,7.03-9.13,4.45-2.36,8.98-3.3,13.47-2.65,4.13.6,6.44,3.6,6.58,8.17.08,2.52-.2,5.03-1.1,7.54-2.08,5.83-6.33,8.56-11.46,10-.69.19-1.39.27-2.09.4-.02.13.02-.13,0,0Z"/>
    </g>
  </g>
  <g id="Shine">
    <g class="cls-8">
      <path class="cls-3" d="M557.9,127.19c-32.16,99.04-69.02,198.08-101.18,297.12h75.22l91.34-297.12h-65.38Z"/>
      <path class="cls-3" d="M636.48,127.19c-32.16,99.04-64.32,198.08-96.48,297.12h25.3l91.34-297.12h-20.16Z"/>
    </g>
  </g>
  <g id="Mask">
    <path class="cls-7" d="M717.7,210.81c-4.55-.82-5.21-4.52-4.97-8.92.33-6.02,4.6-12.6,9.87-14.39,2.66-.9,5.49-1.1,8.19-1.17,6.75-.19,12.99,1.2,18.53,4.51.56.34,1.09.72,1.64,1.07,4.95,3.25,5.59,8.5,3.78,14.81-1.29,4.48-2.77,8.92-4.05,13.4-1.25,4.39-2.01,8.81-1.7,13.13.14,1.94.6,3.86,1.23,5.6.73,2.01,2.2,3.43,4.19,3.98,4.93,1.36,9.84.5,14.28-3.8,1.6-1.54,2.71-3.71,3.99-5.63.82-1.23,1.44-2.61,2.31-3.8,1.74-2.38,4.11-2.87,6.07-1.38,2,1.53,2.98,3.88,3.45,6.46,2.2,12.05-.25,23.78-8.13,34.85-4.63,6.5-10.75,10.5-17.77,12.54-7,2.04-13.67,2.17-19.82-.44-7.9-3.36-12.33-9.94-13.9-19.05-1.34-7.8.26-15.73,2.74-23.76,1.6-5.19,3-10.43,4.14-15.68,1.2-5.5-1.68-10.46-6.28-11.48-.54,1.34-1.08,2.7-1.64,4.05-2.74,6.64-5.29,13.35-8.28,19.9-6.09,13.35-13.36,25.99-24.12,36.25-5.17,4.93-10.88,8.72-17.25,10.81-7.19,2.35-14.07,2.76-20.14-.79-5.11-2.99-7.87-8.01-9.41-14.06-.23-.9-.4-1.83-.63-2.91-.23.39-.41.65-.55.94-3.23,6.6-6.81,12.99-11.75,18.51-4.37,4.88-9.36,8.35-15.31,9.45-7,1.29-11.55-2.1-12.67-9.24-1.02-6.55.29-13.16,2.39-19.83,1.23-3.93,2.46-7.85,3.64-11.79.24-.81.32-1.66.37-2.48.25-4.33-2.02-6.23-6.08-5.18-3.91,1.01-6.66,3.88-8.98,7.34-3.16,4.71-4.86,9.86-5.83,15.21-.91,5-.47,9.82-.67,14.72-.12,2.86-.37,5.82-1.09,8.67-1.71,6.77-6.72,9.81-12.34,10.16-6.12.37-8.64-3.88-9.5-9.43-.13-.86-.21-1.74-.35-2.87-.34.61-.58,1.03-.82,1.46-2.3,4.2-4.84,8.21-8.37,11.47-2.33,2.15-4.92,3.62-7.74,4.47-2.71.82-4.86.24-6.5-2.18-.18.63-.3,1.04-.42,1.45-2.61,9.06-5.5,18.04-9.84,26.64-3.09,6.14-6.8,11.82-12.03,16.3-5.47,4.7-11.52,6.88-17.89,7.56-3.57.38-7.04.25-10.29-.82-6.25-2.06-9.84-6.79-11.1-13.68-1.2-6.58-.62-13.32,2.6-20.03,1.02-2.12,2.53-4.05,3.91-6,.49-.68,1.23-1.23,1.92-1.69,1.2-.81,1.63-.59,1.87.78,1.11,6.44,5.16,9.28,11.05,9.76,7.91.65,14.76-3.05,20.74-9.66,5.7-6.3,9.37-13.52,10.54-21.73.18-1.24.23-2.5.15-3.7-.09-1.48-1.3-1.89-2.37-.74-.78.85-1.42,1.99-1.83,3.08-1.96,5.14-4.63,9.83-8.49,13.81-3.24,3.34-6.84,5.9-11.09,6.7-6.68,1.26-11.59-1.09-14.61-6.76-1.18-2.22-1.81-4.84-2.69-7.27-.19.35-.5.94-.82,1.53-3.03,5.6-6.38,10.95-11.05,15.32-3.09,2.89-6.49,5-10.29,5.97-7.15,1.82-12.13-1.07-13.91-8.19-.62-2.48-.87-5.12-1.29-7.71-1.05,1.68-2.11,3.46-3.25,5.19-4.15,6.29-8.93,11.91-15.35,15.5-5.81,3.26-11.69,4.59-17.36,2.67-5.01-1.69-7.53-5.86-8.12-11.45-.97-9.13.38-18.44,2.93-27.82.49-1.8.88-3.65,1.03-5.45.18-2.15-.86-3.3-2.86-3.03-3.36.46-6.73,1.13-10.09,1.89-1.37.31-2.45,1.51-3.14,2.87-.84,1.66-1.62,3.37-2.26,5.1-3.36,9.03-6.85,18.01-11.56,26.56-4.83,8.77-10.52,16.83-18.13,23.27-7.91,6.69-16.54,10.47-25.82,11.11-11.64.81-20.27-6.87-21.53-18.97-.85-8.19,1.08-16.07,6.24-23.45,3.19-4.56,7.3-7.57,12.26-8.91,2.11-.57,3.22.1,3.31,2.35.12,3.22,1.88,5.34,4.35,6.68,3.79,2.06,8.08,2.01,12.53.57,9.85-3.18,16.57-10.68,21.87-20.04,3.01-5.32,4.8-11.03,6.77-16.68,3.4-9.75,6.91-19.48,10.36-29.22.14-.4.26-.8.39-1.21-11.34-1.55-23.91,7.39-25.96,20.75-.39,2.56-.43,5.07.62,7.25.87,1.8,2.14,2.97,4.29,2.93.35,0,.77.59.86,1.03.65,3.07-.21,6.16-1.73,9.12-3.63,7.06-9.07,11.41-16.03,13.39-4.47,1.27-8.64,1.15-12.32-1.02-4.43-2.62-6.86-6.99-7.73-12.42-1.95-12.26,1.31-24.15,8.59-35.44,8.15-12.63,19.17-20.93,32.04-26.19,6.17-2.52,12.4-4.15,18.7-4.7,3.52-.3,6.96-.19,10.11,1.04,4.89,1.91,6.89,6.02,6.71,11.8-.13,4.41-1.61,8.7-2.93,12.99-2.08,6.75-4.32,13.48-6.47,20.22-.31.98-.57,1.98-.73,2.97-.4,2.49.69,3.94,3,3.53,3.09-.55,6.19-1.33,9.27-2.19,1.78-.5,2.88-2.08,3.49-3.87,1.13-3.29,2.17-6.61,3.22-9.92,3.16-9.94,6.38-19.87,11.03-29.41,2.52-5.16,5.41-10.08,9.6-14.1,3.86-3.71,8.2-5.65,12.93-5.81,5-.17,8.39,2.74,9.51,8.14,1.22,5.88.55,12.01-1.35,18.16-5.08,16.44-14.33,29.8-28.6,39.27-2.75,1.83-4.18,4.25-4.5,7.42-.44,4.35.4,8.13,3.14,10.87,3.19,3.19,7.36,2.94,11.74,1.14,4.1-1.68,7.53-4.53,10.07-8.58.41-.65.73-1.39.94-2.12,2.21-7.65,4.46-15.28,7.63-22.72,1.77-4.17,3.76-8.23,6.81-11.71,1.49-1.7,3.2-2.99,5.2-3.75,3.4-1.31,5.89.16,6.29,3.74.4,3.63-.22,7.32-1.26,11-1.3,4.56-2.83,9.09-4.01,13.66-.64,2.49-1.02,5.08-1.06,7.55-.09,5.5,3.93,7.91,8.89,5.43,1.33-.66,2.65-1.69,3.71-2.83,2.15-2.3,3.73-4.92,4.59-8.04,2.53-9.18,6.4-17.86,12.39-25.61,4.89-6.32,10.74-11.02,17.81-13.5,3.31-1.16,6.63-1.77,9.93-1.67,2.61.08,4.88.97,6.73,2.65,1.96,1.79,4.48.9,6.24-.68,1.28-1.15,2.45-2.45,3.71-3.63,2.2-2.07,4.67-3.23,7.35-3.22,2.36.01,3.58,1.39,3.78,3.9.17,2.15-.25,4.3-1.08,6.41-2.02,5.19-4.22,10.34-6.12,15.56-1.77,4.85-3.39,9.75-4.79,14.68-.54,1.9-.52,3.99-.36,5.89.27,3.25,3.01,4.67,5.94,2.95,1.83-1.07,3.71-2.54,5.03-4.27,2.85-3.73,5.38-7.73,8-11.65.37-.55.51-1.27.71-1.93,4.75-15.18,9.4-30.37,14.26-45.53,2.16-6.75,4.72-13.43,8.43-19.66,1.2-2.01,2.65-3.91,4.19-5.66,1.83-2.1,4.1-3.27,6.62-3.67,3.79-.59,5.9,1.6,5.43,5.7-.35,3.11-1.31,6.13-2.55,9.1-2.74,6.55-5.6,13.06-8.31,19.62-1.32,3.2-2.4,6.48-2.64,9.84-.07.97-.27,2.16.73,2.53,1.02.38,1.88-.56,2.61-1.32,1.76-1.86,3.39-3.87,5.19-5.68,4.31-4.32,9.15-7.25,14.7-8.11,7.22-1.13,12.39,3.46,12.64,11.09.14,4.05-.86,8.01-2.2,11.99-1.41,4.17-2.68,8.33-2.39,12.59.27,3.95,2.33,5.77,6.09,5.34,4.04-.47,6.69-3.26,8.99-6.75,1.44-2.19,2.57-4.45,3.25-7.01,2.38-8.91,6.47-17.12,12.57-24.34,7.08-8.37,15.52-13.46,25.29-14.86,5.34-.77,10.28-.09,13.94,3.65,4.68,4.79,5.61,11.25,3.89,18.65-2.64,11.35-12.2,20.88-22.78,22.9-4.14.79-8.17,1.09-11.94-.28-1.32-.48-2.46.6-2.48,2.25-.02,1.54.52,2.78,1.52,3.73,1.84,1.73,4.22,2.26,6.75,2.32,10.8.28,20.46-4.29,29.09-12.93,4.28-4.29,7.4-9.39,9.66-14.95,2.19-5.41,4.11-10.89,6.15-16.35.07-.19.1-.4.18-.71ZM535.08,261.64c.04-3.99-1.8-6.64-5.03-7.02-2.54-.3-5.06.31-7.48,1.92-5.09,3.38-8.64,11.11-7.73,16.8.57,3.58,2.28,5.48,5.41,5.53,1.45.02,3.04-.26,4.47-.85,5.76-2.37,10.28-9.62,10.35-16.39ZM676.87,220.95c-4.36.82-7.89,4.09-9.01,8.33-1.11,4.22.78,7.43,4.64,7.49,1.4.02,2.94-.29,4.35-.83,3.5-1.32,6.35-5.05,6.84-8.86.5-3.89-1.85-7.14-6.82-6.14ZM450.06,239.65c-.26-1.5-.47-2.83-1.79-3.39-1.35-.57-2.79-.1-3.94,1.02-1.05,1.03-2.03,2.29-2.72,3.6-1.98,3.73-2.96,7.71-3.9,11.68-.27,1.15-.45,2.32-.58,3.48-.2,1.78.56,2.32,2.12,1.49.76-.41,1.52-.92,2.16-1.54,3.18-3.02,5.4-6.71,6.99-10.74.71-1.82,1.12-3.73,1.67-5.6Z"/>
  </g>
  <g id="Layer_4">
    <g id="Layer_1">
      <g>
        <path class="cls-3" d="M104.02,572.81c-.18,0-.36,0-.54,0l-4.29-.08c-.23,0-.42-.01-.62-.02-16.31-.69-31.87-4.63-46.28-11.71-22.66-11.13-38.89-29.95-46.94-54.42-9.71-29.51-6.04-65.37,9.8-95.93,6.07-11.69,18.53-26.01,34.19-39.31,8.55-7.26,20.21-15.98,32.21-21.38,0-.42,0-.83-.01-1.25-.02-4.63.23-8.58.47-12.4l.09-1.52c.02-.49.04-.98.09-1.47l.32-3.72c.02-.26.05-.53.08-.79,10.26-87.75,48.82-153.88,117.88-202.18,1.67-1.17,3.46-2.37,5.44-3.66,7.09-5.98,14.57-11.74,22.27-17.12,28.88-20.21,59.57-30.45,91.22-30.45.49,0,.98,0,1.47,0,42.19.43,61.49,22.65,70.24,41.21,5.19,11.01,8.1,23.55,8.65,36.63,15.29-7.99,30.78-12.02,46.24-12.02h0c5.47,0,10.97.51,16.38,1.52,14.28,2.67,26.58,10.44,35.56,22.45.02.03.05.07.08.1,7.2-6.31,14.67-11.61,22.34-15.83,22.95-22.19,48.47-33.44,75.87-33.44h0c4.24,0,8.56.28,12.83.84,9.69,1.26,18.48,4.52,26.01,9.53,1.3-3.82,2.56-7.5,3.79-11.07,4.95-14.33,11.18-27.9,17.2-41.03l.06-.13c1.06-2.31,2.12-4.62,3.17-6.93.19-.42,18.89-41.28,31.22-52.63C700.92,5.04,713.03,0,725.55,0h.19c30.22,0,41.01,7.99,47.03,14.95,4.77,5.51,7.52,12.45,7.83,19.68.57,4.17.53,8.57-.13,13.1-1.33,9.18-3.51,17.7-6.47,25.32-1.76,4.52-3.56,9.04-5.38,13.53,5.87-2.31,11.4-3.66,17.06-3.66.11,0,.21,0,.31,0,2.24-.24,4.42-.36,6.51-.36h.01c3.78,0,7.57.35,11.26,1.04,11.42,2.13,21.22,8.01,28.34,16.54.49-.43.99-.85,1.49-1.26,2.39-1.96,11.17-8.67,18.93-14.39,3.24-2.39,6.04-4.42,8.54-6.19.08-.07.16-.13.24-.2,3.57-2.94,7.5-5.47,11.69-7.54,1.65-.88,3.11-1.53,4.63-2.05,1.59-.62,3.1-1.14,4.59-1.57,3.74-1.08,7.48-1.62,11.14-1.62h0c10.81,0,20.75,4.82,27.25,13.22,1.19,1.53,2.24,3.15,3.17,4.85,0,0,0,0,.01,0,.57-.49,1.34-1.16,2.26-1.96,23.9-20.8,35.02-28.07,45.99-29.81,6.01-1.59,12.35-2,18.63-1.22,4.13.52,8.03,1.68,11.6,3.41,14.37-12.91,35.4-20.85,55.42-20.85s36.4,7.13,47.84,20.08c10.96,12.4,16.83,28.43,17.44,47.65h0s0,0,0,0c1.09,34.04-10.83,65.67-36.43,96.69-15.97,19.36-35.22,36.42-58.84,52.16-12.87,10.91-27,20.9-43.18,30.53-5.26,3.13-10.92,6.33-17.51,9.89-6.15,20.13-14.72,45.11-27.49,69.48-3.33,6.35-6.67,12.06-10.19,17.44-.26.53-.52,1.05-.8,1.58-10.97,20.92-22.75,36.26-37.08,48.3-20.96,17.59-62.16,24.35-70.61,25.58l-610.38,99.56c-1.42.23-2.89.35-4.35.35-6.04,0-11.75-1.99-16.36-5.51-9.95,6.07-20.38,11.18-31.16,15.25-18.56,7.01-36.59,10.64-53.61,10.8h-.04s-.96,0-.96,0ZM112.08,335.79l-.02.57-.11,1.82c-.23,3.63-.43,6.76-.41,10.35.02,3.74.16,7.39.4,10.85l.91,12.93-12.66,2.77c-7.52,1.65-19.27,8.79-31.43,19.11-14.86,12.62-23.68,23.9-26.98,30.26-12.21,23.54-15.18,50.73-7.94,72.74,5.47,16.63,16.42,29.38,31.67,36.87,10.65,5.23,22.2,8.15,34.31,8.67l4.21.08c13.68-.03,28.48-3.01,43.99-8.87,13.14-4.96,25.68-11.78,37.29-20.26l22.61-16.53,1.08,24.61,607.3-99.05.14-.02c16.14-2.33,44.3-9.28,55.75-18.89,11.24-9.44,20.71-21.91,29.8-39.24.21-.41.42-.83.62-1.25l.64-1.31.55-.83c3.16-4.77,6.16-9.89,9.18-15.65,12.87-24.57,21.25-50.37,27.11-70.11l1.79-6.03,5.56-2.95c8.61-4.57,15.53-8.42,21.77-12.14,14.99-8.92,27.99-18.13,39.74-28.16l.69-.59.76-.5c21.45-14.21,38.79-29.5,53.02-46.74,20.76-25.15,30.43-50.22,29.58-76.64h0c-.38-12.05-3.73-21.72-9.94-28.74-5.67-6.42-14.68-9.95-25.37-9.95-13.12,0-27.34,5.48-36.22,13.95-1.78,1.69-3.4,3.56-4.82,5.53l-2.58,3.59-4.79,1.89-11.07,4.52-6.88-9.78c-1.03-1.46-2.43-2.26-4.42-2.51-2.62-.33-5.18-.14-7.63.57l-1.17.34-1.21.15c-3.8.46-14.29,8.14-31.17,22.83-1,.88-1.85,1.61-2.47,2.14-6.91,5.9-11.62,13.98-14.95,20.36-1.43,2.73-2.82,5.59-4.26,8.73l-28.2-9.82c2.16-8.82,3.03-15.98,2.74-22.53-.08-1.85-.44-4.41-1.7-6.03-.57-.74-1.5-1.59-3.54-1.59h0c-.83,0-1.8.15-2.82.45-.66.19-1.42.45-2.23.78l-.91.33c-.07.03-.19.09-.35.19l-.61.32c-2.13,1.04-4.19,2.35-5.98,3.81-.19.17-.34.29-.48.42l-.49.41-.52.37c-2.44,1.72-5.35,3.82-8.64,6.25-8.14,6-16.06,12.08-17.66,13.4-4.16,3.43-7.9,7.76-11.41,13.24l-13.07,20.39-12.88,40.97c-1.15,3.64-2.32,7.51-3.59,11.81h0c-.3,1.01-.65,2.04-1.06,3.15l-2.6,6.87-7.01,2.16c-6.63,2.04-13.93,3.42-22.3,4.19-3.88.36-7.31.27-10.51-.27l-49.68-8.34,46.15-20.19c8.97-3.93,18.96-9.74,27.39-15.96l27.52-20.29-5.72-29.76c-1.75-9.1-7.6-15.43-15.64-16.93-1.88-.35-3.81-.53-5.74-.53h0c-1.26,0-2.65.09-4.11.28l-1.26.16-1.64-.08c-4.75.15-15.14,5.88-22.05,9.68-4.74,2.61-7.77,4.25-10.09,5.2-1.72.7-3.57,1.74-5.5,3.08l-41.21,28.6,18.75-46.53c2.65-6.59,5.37-13.16,8.14-19.88,4.18-10.11,8.49-20.56,12.51-30.89,2.14-5.51,3.74-11.82,4.75-18.76.27-1.89.29-3.58.05-5.03l-.2-1.19v-1.21c0-.55-.17-.98-.55-1.41-1.19-1.38-5.95-4.58-24.34-4.58h-.1c-5.09,0-9.91,2.18-14.8,6.67-4.27,3.93-16.33,25.97-24.25,43.04-1.03,2.27-2.11,4.61-3.18,6.95l-.06.13c-5.72,12.47-11.64,25.36-16.11,38.3-3.59,10.41-7.44,21.82-11.77,34.88l-11.23,33.88-16.34-31.73c-.18-.35-.36-.7-.55-1.04-4.66-8.31-12.11-13.18-22.14-14.49-3-.39-6.01-.59-8.96-.59h0c-19.83,0-38.78,8.84-56.32,26.28l-1.61,1.6-2.01,1.05c-9.81,5.14-19.4,12.78-28.51,22.72-.63.69-1.24,1.39-1.85,2.09l-18.38,21.08-7.84-25.96c-1.33-4.41-3.28-8.35-5.81-11.73-4.46-5.97-10.2-9.64-17.05-10.92-3.59-.67-7.24-1.01-10.87-1.01h0c-15.49,0-31.61,6.25-47.91,18.56-2.28,1.72-4.59,3.62-6.88,5.65l-37.79,33.52,13.37-48.71c4.87-17.76,3.82-36.76-2.82-50.83-7.62-16.16-21.41-23.79-43.41-24.01-.39,0-.77,0-1.16,0-25.38,0-50.28,8.42-74.02,25.03-7.2,5.04-14.2,10.44-20.8,16.04l-.76.64-.83.54c-2,1.28-3.74,2.45-5.32,3.56-61.63,43.11-96.07,102.34-105.28,181.08l-.31,3.52ZM887.47,96.85s0,0,0,0c0,0,0,0,0,0ZM272.79,423.75l9.81-23.71c4.4-10.64,8.05-21.3,10.74-29.39l12.04-36.28,15.85,34.79c2.46,5.4,5.56,9.97,9.23,13.59,1.94,1.92,4.09,3.61,6.37,5.04l32.93,20.62,45.78-36c3.37-2.65,6.67-5.5,9.82-8.47l1.3-1.22,1.55-.89c.83-.48,1.66-.96,2.5-1.47,7.55-4.58,14.65-10,21.68-16.57l13.93-13,9.36,16.6c2.01,3.56,4.3,6.67,6.82,9.24h0c1.99,2.03,4.21,3.83,6.6,5.35l32.91,20.92-152.84,25.97h0s-66.17,11.22-66.17,11.22l-30.22,3.66ZM522.35,382.84l46.2-36.42c3.28-2.58,6.58-5.45,9.81-8.51l1.33-1.26,1.59-.9c4-2.26,7.93-4.82,11.69-7.59l16.96-12.5,6.26,20.12c.93,2.98,2.23,5.46,3.89,7.38l17.36,20.13-115.1,19.55ZM641.83,362.54l16.49-28.22,3.29-5.83,6.52-1.42c5.87-1.3,10.79-4.25,14.62-8.77l14.18-16.74,10.45,19.29c1.31,2.41,2.77,4.49,4.35,6.16l18.84,19.94,34.67-33.18c1.12-1.07,2.26-2.22,3.4-3.41l1.91-2.01,2.5-1.2c2.73-1.3,5.39-2.81,7.91-4.49,1.46-.97,2.97-2.06,4.48-3.21l12.4-9.5,8.99,12.77c1.4,1.98,3.06,3.67,4.93,5l29.5,20.96-110.26,18.73h0s-89.17,15.15-89.17,15.15ZM528.23,304.06l60.77-58.23c1.7-1.68,3.29-3.5,4.73-5.41l2.86-3.78,4.84-1.56,46.4-15.87-29.73,39.18c-2.21,2.91-4.51,5.7-6.85,8.3l-2.09,2.33-2.85,1.29c-.54.24-1.07.48-1.61.72l-76.47,33.03ZM250.03,302.43c-17.25,0-30.42-11.04-34.37-28.8-3.4-15.29-1.28-30.87,6.31-46.33,2.4-4.88,5.07-9.45,7.95-13.59l3.13-4.5,5.29-1.42c3.01-.81,6.09-1.4,9.14-1.75,13.6-1.56,22.69,6.24,23.23,19.54.29,6.99-1.01,14.57-3.55,20.79-1.53,3.75-1.82,6.86-.79,8.51.99,1.58,3.21,2.06,4.91,2.18,4.14.29,8.56-.03,12.93-.97l46.99-10.17-32.87,35.08c-12.17,12.99-26.99,19.96-45.32,21.3-1,.07-2,.11-2.98.11Z"/>
        <g>
          <g>
            <g>
              <path class="cls-5" d="M99.64,551.09c-13.36-.57-26.11-3.79-37.89-9.58-17.47-8.58-30.01-23.15-36.25-42.14-7.98-24.26-4.8-54.05,8.5-79.7,10.13-19.5,46.74-51.47,66.21-54.34.35-.05.72-.08,1.07-.08.87,0,1.7.16,2.47.47-.63-5.59-.96-11.5-1-17.78-.02-3.89.2-7.32.42-10.95l.12-1.99c0-.17,0-.35.02-.52,0,0,.33-3.83.34-3.89,9.53-81.44,45.2-142.74,109.06-187.41,25.28-17.69,51.92-26.66,79.18-26.66.42,0,.84,0,1.26,0,25.49.26,42.32,9.8,51.46,29.17,9.43,19.99,8.97,46.8-1.21,69.97-10.18,23.18-28.79,40-52.4,47.37-5.25,1.64-10.95,2.51-16.48,2.51-1.24,0-2.48-.04-3.69-.13-5.35-.38-9.58-2.66-11.91-6.41-2.68-4.31-2.65-9.92.1-16.66,2.04-5,3.12-11.37,2.89-17.03-.3-7.37-3.96-11.11-10.87-11.11-.75,0-1.54.05-2.34.14-19.66,2.25-35.19,14.72-46.17,37.06-6.66,13.57-8.54,27.16-5.6,40.4,3.03,13.62,12.6,21.76,25.58,21.76.76,0,1.54-.03,2.32-.09,2.85-.21,5.72-.33,8.49-.46,15.1-.67,28.15-1.24,37.88-13.72,4.8-6.15,10.93-9.4,17.72-9.4.76,0,1.53.04,2.3.13,1.37.15,2.54.19,3.57.23,2.7.1,6.06.22,8.26,3.33,2.4,3.4,1.19,7.22-.34,12.06-8.71,27.61-17.88,56.07-27.24,84.58-5.68,17.28-12.59,37.29-22.81,56.09-26.27,48.38-59.4,79.58-101.28,95.39-16.54,6.25-32.41,9.43-47.18,9.45h-.01s-4.53-.08-4.58-.09ZM91.47,397.22c-.84,31.48,21.25,44.59,42.3,46.35,2.4.2,4.79.3,7.1.3,16.67,0,31.34-5.12,44.86-15.66,7.92-6.17,14.78-14.08,20.78-23.98-2.82,3.12-5.78,6.15-9.06,8.78-12.51,10.04-26.31,15.36-39.9,15.36-19.66,0-36.64-11.46-45.42-30.67-2.81-6.15-4.98-12.84-6.52-20.16-1.44,2.31-3.6,5.11-6.44,8.82-2.56,3.34-6.76,8.81-7.71,10.87Z"/>
              <path class="cls-5" d="M291.89,122.53c.4,0,.8,0,1.19,0,19.87.2,36.97,6.38,46.09,25.73,16.07,34.07,1.23,93.08-49.97,109.06-4.8,1.5-9.86,2.24-14.69,2.24-1.1,0-2.19-.04-3.26-.11-6.53-.47-10.84-4.63-6.69-14.82,2.49-6.1,3.58-13.31,3.33-19.54-.44-10.77-6.95-16.87-16.86-16.87-.98,0-1.99.06-3.03.18-22.76,2.61-39.44,17.12-50.87,40.38-7.24,14.76-9.32,29.74-6.07,44.35,3.68,16.54,15.84,26.45,31.44,26.45.91,0,1.83-.03,2.76-.1,18.25-1.34,37.19.81,50.67-16.47,3.64-4.66,8.12-7.09,12.99-7.09.54,0,1.09.03,1.64.09,8,.87,9.35-1.41,6.42,7.85-8.9,28.2-17.98,56.38-27.22,84.51-6.17,18.78-12.79,37.46-22.38,55.1-23.7,43.65-55.26,76.46-98.12,92.64-15.39,5.81-30.48,9.04-45.07,9.07l-4.32-.08c-12.25-.52-24.13-3.38-35.5-8.97-40.92-20.11-46.29-72.78-25.08-113.68,9.07-17.46,44.21-48.58,61.76-51.16.07-.01.14-.02.2-.02,3.74,0-15.62,20.66-15.78,25.16-1.16,32.8,20.8,50.88,47.78,53.13,2.54.21,5.08.32,7.6.32,16.64,0,32.96-4.77,48.55-16.93,12.88-10.03,22.07-23.46,29.15-38.64.57-1.22,1.28-2.82,1.05-3.86-.42-1.89-1.14-3.97-2.43-4.97-.06-.05-.15-.07-.26-.07-.86,0-2.97,1.47-4.04,2.59-6.44,6.75-12.16,14.69-19.18,20.33-11.81,9.48-24.43,14.04-36.15,14.04-16.85,0-31.85-9.41-39.96-27.16-6.54-14.3-8.77-30.36-8.87-47.29-.02-4.48.29-8.37.56-12.92h-.01s.32-3.7.32-3.7c9.09-77.69,42.19-138.18,106.54-183.19,24.02-16.8,49.59-25.57,75.74-25.57M291.89,110.53c-28.51,0-56.31,9.33-82.62,27.74-65.35,45.71-101.84,108.39-111.58,191.63-.01.12-.03.24-.04.35l-.32,3.72c-.02.28-.04.56-.04.84-.04.61-.08,1.21-.11,1.8-.24,3.74-.46,7.27-.44,11.37.02,4.08.17,8.02.44,11.82-13.56,2.97-29.42,15.11-37.92,22.33-14.02,11.91-25.46,24.91-30.58,34.78-14.03,27.05-17.35,58.58-8.87,84.34,6.76,20.55,20.35,36.33,39.31,45.65,12.53,6.16,26.09,9.58,40.28,10.19.09,0,.19,0,.28,0l4.32.08c.07,0,.15,0,.22,0,0,0,.02,0,.02,0,15.49-.03,32.07-3.34,49.29-9.84,22.23-8.39,42.53-21.39,60.35-38.62,16.44-15.9,31.27-35.93,44.08-59.52,10.45-19.24,17.47-39.55,23.23-57.08,9.37-28.53,18.54-57.01,27.26-84.65,1.7-5.39,3.63-11.5-.48-17.33-3.91-5.54-9.79-5.75-12.94-5.86-.98-.04-1.98-.07-3.15-.2-.97-.11-1.96-.16-2.94-.16-8.58,0-16.56,4.16-22.45,11.71-7.66,9.82-17.2,10.71-33.41,11.42-2.82.12-5.73.25-8.67.47-.63.05-1.27.07-1.88.07-10.12,0-17.31-6.22-19.73-17.06-2.64-11.87-.92-24.14,5.13-36.46,10.16-20.67,23.72-31.71,41.46-33.74.59-.07,1.14-.1,1.66-.1,2.72,0,4.67.38,4.87,5.36.2,4.85-.72,10.27-2.45,14.51-4.38,10.75-2.22,17.95.36,22.11,3.37,5.43,9.26,8.7,16.58,9.22,1.35.1,2.73.15,4.11.15,6.12,0,12.44-.96,18.27-2.78,25.29-7.89,45.21-25.9,56.1-50.69,10.85-24.71,11.29-53.43,1.14-74.94-10.07-21.36-29.19-32.33-56.82-32.61-.44,0-.88,0-1.32,0h0ZM97.45,398.86c1.22-1.92,3.71-5.22,5.65-7.75,1.06,3.14,2.26,6.17,3.59,9.08,9.78,21.4,28.79,34.17,50.87,34.17,1.85,0,3.7-.09,5.56-.26-7,2.53-14.38,3.77-22.24,3.77-2.15,0-4.37-.09-6.61-.28-10.92-.91-20.46-5.02-26.86-11.55-6.62-6.76-9.97-15.9-9.95-27.18h0Z"/>
            </g>
            <g>
              <path class="cls-5" d="M206.34,530.62c-2.21,0-4.27-1.22-5.31-3.22-1.2-2.29-.79-5.09,1-6.95l12.86-13.29c20.31-22.65,32.45-46.37,45.3-71.48.91-1.78,2.64-2.98,4.62-3.22l9.76-1.18,549.2-93.31c22.65-3.97,44.05-21.17,55.8-44.86l.3-.62c2.98-6.07,5.33-12.54,7.11-19.57-2.83,6.11-6.24,12.49-10.58,18.61-12.44,17.55-31.97,28.88-49.75,28.88-3.32,0-6.53-.41-9.53-1.21-12.53-3.35-20.48-12.33-23.66-26.71-11.52,17.65-22.37,29.35-35.01,37.78-7.47,4.97-15.44,8.39-23.7,10.16-2.92.63-5.75.94-8.42.94-8.5,0-20.21-3.31-27.77-19.05-5.59-11.66-8.12-24.83-10.02-37.32-.52-3.44-.94-6.93-1.35-10.3-.46-3.8-.93-7.73-1.54-11.47-.39-2.4-1.11-4.49-1.98-5.74-.6-.87-.99-.87-1.12-.87-.88,0-2.49.97-3.94,3.11-2.76,4.04-3.44,8.57-3.66,14.55-.15,4.23-.23,8.55-.31,12.72-.15,7.57-.3,15.39-.85,23.21-.5,7.05-1.95,14.2-4.21,20.68-5.62,16.17-18.9,25.91-35.54,26.03h-.27c-9.44,0-25.61-3.77-27.85-29-.21-2.38-.34-4.79-.42-7.2-16.52,21.09-32.75,35.42-50.64,44.81-14.49,7.6-27.82,11.3-40.76,11.3-4.82,0-9.61-.54-14.25-1.59-18.07-4.13-30.62-16.46-37.31-36.66-.43-1.3-.82-2.62-1.19-3.95-17.32,24.89-34.39,41.96-53.49,53.55-15.65,9.49-31.14,14.3-46.04,14.3-2.69,0-5.4-.16-8.05-.47-23.06-2.69-38.64-17.51-45.05-42.86-7.39-29.25-3.65-60.72,11.43-96.21,10.88-25.61,26.02-45.88,45.02-60.23,17.9-13.53,35.84-20.38,53.34-20.38,4.17,0,8.39.39,12.52,1.16,17.83,3.33,30.39,19.35,32.01,40.79,1.24,16.4-4.06,34.79-14.54,50.44-10.83,16.16-25.7,27.66-41.89,32.39-8.13,2.37-15.29,3.52-21.9,3.52-5.66,0-11.05-.87-16.05-2.58-.08,3.02.96,4.88,3.61,6.56,3.45,2.18,7.86,3.24,13.46,3.24.62,0,1.24-.01,1.86-.04,27.06-1.02,50.94-14.59,70.98-40.34,1.05-1.35,2.03-3.68,2.62-6.22,7.49-32.73,20.64-59.02,40.18-80.34,20.56-22.42,43.22-33.79,67.37-33.79,3.34,0,6.75.22,10.13.66,24.1,3.13,37.72,24.11,34.68,53.45-1.75,16.89-7.63,30.08-18,40.32-9.5,9.39-19.83,14.15-30.7,14.15-2.03,0-4.09-.17-6.13-.5-1.72-.28-3.34-.76-4.82-1.43-5.32-2.37-7.41-5.89-8.22-8.43-1.25-3.9-.5-8.21,2.21-12.8.54-.92,1.12-1.8,1.68-2.65,1-1.52,2.04-3.1,2.33-4.2.93-3.57,1.94-8.12,1.55-11.64-.22-2-1.78-3.01-4.63-3.01-1.15,0-2.39.19-3.67.58-5.38,1.61-9.72,5.16-13.25,10.86-10.21,16.46-9.79,40.66.86,49.79,4.92,4.22,10.69,6.27,17.66,6.27,4.13,0,8.74-.74,13.71-2.21,22.4-6.6,40.59-21.9,55.62-46.78.44-.73.83-1.9,1.2-3.03,3.76-11.44,7.49-22.91,11.22-34.37,8.61-26.47,17.51-53.84,26.77-80.67,4.61-13.35,10.62-26.45,16.43-39.11,1.09-2.38,2.18-4.75,3.26-7.13.17-.38,17.98-38.2,26.32-45.87,6.54-6,13.54-9.04,20.81-9.04h.18c16.72,0,26.61,2.44,31.15,7.69,2.21,2.56,3.12,5.67,2.64,9.02-.68,4.71-6.6,12.93-19.95,30.57-5.05,6.67-11.96,15.81-12.88,17.97-4.04,10.4-8.38,20.9-12.57,31.05-3.29,7.97-6.69,16.2-9.92,24.32-6.52,16.38-14.56,38.06-18.93,60.53-.24,1.25-.21,2.02-.15,2.43h.02c.22,0,.47-.02.74-.07,2.6-.41,5.63-1.63,8.38-7.54l2.09-4.5c4.96-10.71,10.09-21.78,16.05-32.28,5.62-9.93,20.54-33.78,37.54-40.71,2.01-.82,5.48-2.73,9.15-4.75,11.48-6.32,20.1-10.8,26.58-10.8.79,0,1.55.07,2.26.2,13.12,2.45,35.78,23.17,38.02,40.39,5.17-10.6,11.21-21.36,20.98-29.41.3-.25,32.21-25.19,38.08-26.89.86-.25,1.67-.37,2.46-.37,2.54,0,4.76,1.28,5.95,3.42,2.41,4.35-.32,8.71-5.76,17.4-2.67,4.27-7.64,12.21-7.77,14.73.57,12.67-2.79,25.19-6.28,36.93-.87,2.92-1.76,5.85-2.64,8.77-2.74,9.04-5.58,18.38-7.72,27.54-1.32,5.65-1.06,11.93-.7,16.77.18,2.41.97,3.18,3.25,3.18.12,0,.24,0,.36,0,10.98-.49,18.9-5.84,24.19-16.37,3.42-6.78,5.97-14.25,8.23-21.3,5.98-18.74,12.17-38.13,21.78-56.52,3.71-7.1,9-16.14,17.08-23.04.61-.52,1.43-1.23,2.41-2.09,21.26-18.5,30.97-25.06,37.13-25.06.37,0,.75.02,1.11.07,2.3.29,4.26,1.59,5.39,3.58,2.52,4.42.35,9.88-4.4,20.83-1.69,3.89-4.51,10.39-4.6,12.34.1,1.41.13,2.85.1,4.31.06-.25.12-.5.19-.74,2.11-8.12,6.41-15.32,12.79-21.41,10.63-10.14,26.89-16.44,42.44-16.44,13.31,0,24.71,4.61,32.11,12.99,7.64,8.63,11.74,20.21,12.19,34.41.92,28.71-9.43,55.75-31.64,82.66-17.73,21.49-40.25,40.2-68.84,57.22-12.12,7.22-24.66,13.71-36.78,20-3.89,2.02-7.78,4.03-11.65,6.07-1.34.71-1.54.94-1.91,2.25-3.09,10.75-3.53,21.55-3.97,32-.62,15.05-1.27,30.6-9.53,46.39-9.65,18.4-19.81,31.74-31.98,41.96-14.78,12.4-48.47,19.29-60.32,20.91l-610.54,99.58c-.32.05-.65.08-.97.08ZM398.18,241.03c-4.05,0-7.95,1.46-11.6,4.33-5.1,4.01-8.03,8.79-8.71,14.21-.44,3.47.05,6.21,1.38,7.71,1.07,1.21,2.85,1.82,5.31,1.82.85,0,1.76-.08,2.72-.23,8.16-1.28,15.44-8.32,17.71-17.12.87-3.36.59-6.41-.75-8.36-.89-1.29-2.24-2.04-4.01-2.25-.69-.08-1.38-.12-2.05-.12ZM814.15,172.05c-15.1,16.88-40.69,30.97-55.98,35.44-2.75.81-5.49,1.48-8.14,2.13-2.69.66-5.24,1.28-7.78,2.03-5.11,1.51-8.69,5.4-9.83,10.69-1.81,8.42,2.47,10.75,3.87,11.52,2.88,1.57,6.29,2.34,10.45,2.34,1.15,0,2.37-.06,3.65-.18,14.68-1.36,25.66-4.6,35.6-10.5,3.44-2.04,6.76-4.91,9.83-7.7,3.45-3.13,5.88-7.23,7.45-12.54,2.86-9.7,6.41-21.18,10.88-33.23ZM973.64,122.67c-.68,3.45-1.67,7.05-2.97,10.84-2.53,7.36-5.16,14.81-7.71,22.02-4.19,11.87-8.53,24.15-12.5,36.27-3.09,9.42-5.79,19.16-8.4,28.59-.08.3-.17.6-.25.9,4.74-3.44,9.15-7.1,13.29-11.04,14.89-14.13,23.99-29.16,27.83-45.93,1.78-7.78,2.04-14.77.77-20.77-.74-3.54-2.08-5.98-3.08-6.83-4.94-4.2-6.7-9.21-6.98-14.04Z"/>
              <path class="cls-5" d="M725.93,26.37c8.32,0,29.2.54,27.85,9.84-.94,6.47-30.05,40.97-32.47,47.21-7.21,18.54-15.13,36.86-22.49,55.35-8.03,20.18-15.16,40.59-19.24,61.6-1.16,5.95,1.06,9.57,5.77,9.57.53,0,1.09-.05,1.68-.14,5.88-.93,9.94-4.6,12.89-10.93,5.7-12.25,11.27-24.63,17.92-36.36,7.56-13.35,21.17-32.64,34.58-38.11,7.18-2.93,25.41-15.11,33.46-15.11.41,0,.8.03,1.15.1,11.95,2.23,34.11,23.88,33.28,37.93-1.33,22.51-43.36,48.44-63.82,54.41-5.3,1.55-10.64,2.6-15.94,4.17-7.3,2.15-12.42,7.84-13.99,15.19-1.78,8.3.61,14.63,6.86,18.05,4.09,2.24,8.62,3.07,13.32,3.07,1.39,0,2.79-.07,4.2-.2,12.89-1.2,25.75-3.98,38.11-11.31,3.8-2.26,7.39-5.32,10.81-8.42,4.5-4.08,7.4-9.27,9.17-15.29,5.8-19.7,12.34-39.22,21.32-58,5.31-11.11,11.12-22.07,20.6-29.88,3.35-2.76,32.09-24.65,35.93-25.76.31-.09.58-.13.79-.13,4.85,0-13.93,22.01-13.58,29.75.52,11.73-2.57,23.37-6.04,35.03-3.62,12.2-7.59,24.38-10.45,36.66-1.43,6.1-1.29,12.58-.84,18.59.44,5.8,4.07,8.72,9.23,8.72.21,0,.42,0,.63-.01,12.27-.55,22.64-6.46,29.28-19.66,3.56-7.06,6.18-14.67,8.58-22.17,6.03-18.88,12.06-37.73,21.38-55.57,4.15-7.95,8.89-15.48,15.66-21.26,5.66-4.84,28.8-25.71,35.65-25.71.13,0,.25,0,.36.02,5.37.68-9.31,24.5-8.85,31.14.53,7.62-1.09,15.27-3.69,22.83-6.7,19.47-13.84,38.83-20.24,58.37-4.45,13.57-7.97,27.36-11.88,41.04-.3,1.06-.38,2.15-.65,3.69,9.84-5.72,18.76-12.21,27.01-20.06,14.26-13.53,25.05-29.27,29.54-48.95,1.83-8.02,2.35-15.97.79-23.35-.8-3.82-2.47-7.95-5.06-10.16-5.56-4.73-5.73-11.07-3.75-18.68,1.9-7.32,5.78-13.48,11.13-18.58,9.66-9.21,24.45-14.78,38.29-14.78,10.73,0,20.89,3.35,27.62,10.96,7.16,8.1,10.3,18.59,10.69,30.63.95,29.56-11.01,55.32-30.27,78.65-19.47,23.6-42.65,41.22-67.28,55.89-15.79,9.39-32.05,17.44-48.16,25.92-2.58,1.36-4,2.8-4.89,5.9-7.75,26.97.22,51.93-13.05,77.26-8,15.27-17.55,29.25-30.52,40.15-12.57,10.55-42.99,17.62-57.35,19.57l-610.62,99.6,12.93-13.37c20.25-22.55,32.44-45.86,46.25-72.84l9.9-1.2,549.34-93.33c24.49-4.3,47.5-22.57,60.17-48.11.11-.21.21-.42.31-.64,5.25-10.69,8.32-21.87,10.05-33.26l.02-.23c.26-3.27.55-6.64-2.72-7.72-.24-.08-.49-.12-.75-.12-1.97,0-4.33,2.31-5.87,6.15-3.92,9.84-8.29,19.39-14.48,28.12-11.35,16.01-29.36,26.35-44.85,26.35-2.76,0-5.44-.33-7.98-1.01-12.07-3.23-18.11-12.72-20.06-26.12-.59-4.04-.64-8.27-.98-13-2.9,4.75-5.42,9.04-8.1,13.23-9.5,14.83-20.21,28.3-34.41,37.77-6.92,4.61-14.12,7.68-21.63,9.29-2.53.54-4.92.81-7.16.81-10.16,0-17.47-5.46-22.36-15.65-5.21-10.86-7.6-23.13-9.5-35.62-1.1-7.23-1.73-14.64-2.91-21.84-.48-2.94-1.43-5.96-2.97-8.18-1.61-2.34-3.76-3.45-6.05-3.45-3.06,0-6.35,1.99-8.9,5.73-3.81,5.58-4.48,11.66-4.7,17.72-.42,11.91-.31,23.77-1.15,35.73-.44,6.29-1.74,12.95-3.89,19.13-5.31,15.28-17.23,21.91-29.92,22-.08,0-.15,0-.22,0-13.1,0-20.5-8.07-21.87-23.54-.71-7.94-.45-16.16-.63-24.56-1.98,2.76-3.94,5.53-5.96,8.25-15.07,20.31-31.98,37.99-53.24,49.15-12.67,6.64-25.36,10.61-37.98,10.61-4.31,0-8.62-.46-12.91-1.44-16.75-3.83-27.24-15.46-32.95-32.7-1.74-5.24-2.79-10.88-4.25-16.7-1.84,2.75-3.64,5.49-5.48,8.19-14.97,22.03-31.92,41.62-53.76,54.86-14.05,8.52-28.43,13.43-42.93,13.43-2.45,0-4.9-.14-7.36-.43-21.43-2.5-34.34-16.27-39.93-38.37-7.61-30.13-2.11-61.23,11.13-92.39,9.79-23.06,23.64-43.08,43.11-57.79,16-12.09,32.62-19.17,49.72-19.17,3.78,0,7.59.35,11.42,1.06,15.57,2.91,25.78,17.51,27.13,35.35,2.37,31.3-21.11,67.57-52.13,76.62-6.87,2-13.64,3.28-20.22,3.28-5.35,0-10.58-.84-15.65-2.82-.67-.26-1.3-.38-1.89-.38-2.51,0-4.26,2.23-4.48,5.81-.36,6.03,2.27,9.84,6.37,12.45,4.97,3.14,10.7,4.18,16.67,4.18.69,0,1.39-.01,2.09-.04,29.38-1.1,54.51-15.69,75.49-42.65,1.82-2.34,3.06-5.63,3.73-8.56,6.61-28.89,18.4-55.43,38.75-77.63,18.81-20.52,39.91-31.85,62.95-31.85,3.08,0,6.2.2,9.35.61,23.29,3.03,31.86,24,29.49,46.88-1.42,13.76-5.91,26.45-16.24,36.67-8.18,8.09-17.04,12.42-26.48,12.42-1.7,0-3.42-.14-5.16-.43-1.16-.19-2.28-.51-3.33-.98-5.72-2.55-6.69-6.97-3.3-12.7,1.63-2.77,3.9-5.49,4.65-8.4,1.18-4.55,2.18-9.51,1.71-13.8-.59-5.41-4.97-8.36-10.6-8.36-1.71,0-3.53.27-5.39.83-6.92,2.07-12.39,6.61-16.63,13.45-11.81,19.05-11,46.32,2.05,57.51,6.35,5.44,13.67,7.71,21.56,7.71,4.94,0,10.11-.89,15.41-2.45,24.97-7.36,44.19-24.82,59.06-49.43.78-1.3,1.28-2.8,1.76-4.24,12.61-38.34,24.79-76.78,37.97-114.98,5.36-15.52,12.62-30.61,19.49-45.71,3.48-7.65,18.77-38.28,24.92-43.94,5.1-4.68,10.64-7.46,16.76-7.46.06,0,.12,0,.18,0M384.56,275.1c1.15,0,2.37-.1,3.65-.3,10.51-1.65,19.73-10.44,22.59-21.55,2.42-9.41-1.73-17.13-9.89-18.06-.91-.1-1.82-.16-2.73-.16-5.26,0-10.43,1.77-15.31,5.61-5.84,4.59-10,10.57-10.96,18.18-1.29,10.26,3.65,16.29,12.64,16.29M725.93,14.37h-.1s-.07,0-.07,0c-8.83,0-17.2,3.58-24.87,10.62-9.47,8.71-27.55,47.42-27.72,47.8-1.08,2.37-2.17,4.74-3.25,7.11-5.87,12.8-11.95,26.03-16.66,39.66-9.27,26.88-18.18,54.28-26.8,80.77-3.67,11.27-7.46,22.93-11.22,34.37-.19.58-.5,1.51-.67,1.84-14.21,23.5-31.27,37.92-52.15,44.07-4.42,1.3-8.46,1.96-12.01,1.96-5.55,0-9.92-1.53-13.75-4.82-3.6-3.09-5.91-9.49-6.17-17.11-.29-8.73,2.08-17.83,6.5-24.97,2.77-4.46,5.9-7.09,9.87-8.28.21-.06.41-.11.59-.16-.24,2.58-.99,5.53-1.33,6.83-.23.52-1.03,1.73-1.57,2.55-.57.87-1.22,1.85-1.85,2.92-4.5,7.61-3.98,13.8-2.75,17.65,1.18,3.71,4.14,8.82,11.51,12.1,1.92.86,4.03,1.49,6.26,1.86,2.38.39,4.77.59,7.12.59,12.51,0,24.26-5.35,34.92-15.89,11.39-11.26,17.85-25.64,19.74-43.97,1.5-14.49-.78-27.63-6.59-37.99-7-12.49-18.51-20.1-33.29-22.02-3.63-.47-7.3-.71-10.9-.71-25.9,0-50.05,12.02-71.8,35.74-11.25,12.28-20.45,26.12-27.74,41.79,0-1.62-.07-3.23-.19-4.83-.85-11.2-4.51-21.42-10.58-29.55-6.69-8.95-15.79-14.72-26.3-16.69-4.5-.84-9.08-1.27-13.62-1.27-18.83,0-37.99,7.27-56.96,21.6-19.84,15-35.63,36.08-46.92,62.67-15.61,36.74-19.44,69.46-11.72,100.02,3.38,13.38,9.18,24.2,17.23,32.14,8.67,8.56,19.75,13.67,32.94,15.21,2.88.34,5.83.51,8.75.51,16.02,0,32.55-5.11,49.15-15.17,17.33-10.51,32.97-25.27,48.52-45.88,3.25,7.49,7.44,13.88,12.5,19.04,7.17,7.32,16.09,12.24,26.51,14.62,5.07,1.16,10.32,1.75,15.58,1.75,13.93,0,28.18-3.92,43.55-11.98,15.31-8.03,29.38-19.46,43.36-35.31,1.55,7.15,4.44,13.05,8.63,17.57,4.15,4.48,11.7,9.82,24.14,9.82h.31c19.29-.14,34.68-11.38,41.17-30.07,2.43-6.97,3.99-14.65,4.52-22.22.56-7.97.71-15.88.86-23.52.08-4.15.16-8.44.31-12.62.01-.39.03-.77.05-1.14.08.68.17,1.37.25,2.06.41,3.42.84,6.96,1.38,10.49,1.97,12.94,4.61,26.63,10.54,39,8.9,18.56,22.96,22.46,33.18,22.46,3.09,0,6.35-.36,9.68-1.08,9.01-1.93,17.68-5.65,25.77-11.03,10.82-7.21,20.33-16.61,29.93-29.68,6.03,12.04,15.72,17.22,23.86,19.41,3.51.94,7.24,1.42,11.08,1.42,6.25,0,12.68-1.25,18.98-3.56-7.19,4.62-14.96,7.8-22.9,9.2l-549.03,93.28-9.61,1.16c-3.96.48-7.42,2.9-9.24,6.45-12.65,24.73-24.6,48.08-44.35,70.13l-12.77,13.2c-3.6,3.72-4.41,9.32-2.01,13.9,2.09,4,6.22,6.44,10.63,6.44.64,0,1.29-.05,1.94-.16l610.51-99.58c3.21-.46,44.75-6.72,63.25-22.24,12.79-10.74,23.42-24.65,33.44-43.77,8.89-16.98,9.57-33.22,10.22-48.92.42-10.21.82-19.88,3.46-29.6,3.6-1.89,7.27-3.8,10.83-5.64,12.2-6.33,24.81-12.87,37.09-20.17,29.2-17.38,52.23-36.53,70.4-58.56,23.18-28.09,33.98-56.44,33.01-86.67-.5-15.63-5.1-28.48-13.69-38.19-8.56-9.68-21.56-15.01-36.61-15.01-13.88,0-28.31,4.61-39.51,12.36.19-2.91-.31-5.61-1.79-8.22-2.07-3.64-5.66-6.03-9.85-6.56-.62-.08-1.24-.12-1.87-.12-8.01,0-17.99,6.45-41.07,26.53-.97.84-1.77,1.54-2.37,2.05-8.86,7.57-14.54,17.24-18.5,24.83-9.84,18.85-16.11,38.49-22.17,57.48-2.18,6.82-4.64,14.02-7.87,20.42-3.88,7.7-9.2,11.83-16.63,12.85-.21-3.92-.2-8.42.72-12.36,2.09-8.97,4.77-17.8,7.61-27.15.89-2.94,1.79-5.88,2.66-8.82,3.55-11.95,6.97-24.72,6.55-38.05.88-2.61,4.72-8.75,6.83-12.13,1.79-2.86,3.48-5.57,4.74-7.93,1.31-2.47,4.8-9.02,1.18-15.56-2.23-4.02-6.52-6.52-11.19-6.52-1.34,0-2.73.2-4.12.6-2.23.65-4.54,1.31-21.93,14.13-8.09,5.96-16.36,12.31-18.29,13.89-6.83,5.62-11.92,12.32-16.12,19.34-3.1-5.55-7.01-10.26-9.95-13.43-3.41-3.67-15.52-15.82-28.01-18.15-1.07-.2-2.2-.3-3.36-.3-7.91,0-17.21,4.78-29.48,11.54-3.36,1.85-6.83,3.76-8.51,4.45-18.74,7.64-34.56,32.83-40.49,43.31-2.71,4.78-5.24,9.66-7.66,14.55,3.35-10.25,6.99-19.77,10.25-27.94,3.22-8.09,6.61-16.31,9.9-24.26,4.17-10.08,8.47-20.51,12.51-30.89,1.33-2.45,7.58-10.72,12.17-16.79,15.84-20.93,20.25-27.44,21.1-33.33.73-5.05-.7-9.95-4.04-13.8-5.84-6.75-16.85-9.76-35.69-9.76h0ZM952.94,203.99c1.03-3.47,2.1-6.92,3.21-10.32,3.95-12.05,8.27-24.29,12.46-36.13,2.08-5.88,4.21-11.92,6.3-17.94.51.51,1.04,1.01,1.6,1.5.3.45.92,1.76,1.32,3.69,1.09,5.15.83,11.27-.75,18.2-3.39,14.84-11.3,28.28-24.13,41h0ZM746.74,230.2c-3.13,0-5.6-.52-7.56-1.6-.75-.41-1.76-.96-.89-5.01.67-3.11,2.68-5.31,5.66-6.19,2.41-.71,4.88-1.32,7.51-1.96,2.72-.67,5.53-1.35,8.41-2.2,12.04-3.52,28.06-11.96,41.31-21.73-1.34,4.25-2.55,8.3-3.67,12.08-1.25,4.22-3.12,7.42-5.72,9.79-2.71,2.46-5.88,5.21-8.86,6.99-9.14,5.42-19.35,8.41-33.1,9.68-1.08.1-2.12.15-3.09.15h0ZM383.79,263.06c-.08-.52-.14-1.43.03-2.74.48-3.85,2.6-7.2,6.47-10.24,2.61-2.05,5.19-3.04,7.89-3.04.4,0,.8.02,1.21.06.12.52.19,1.58-.21,3.16-1.66,6.45-7.06,11.79-12.83,12.69-.66.1-1.26.16-1.79.16-.32,0-.58-.02-.77-.04h0Z"/>
            </g>
          </g>
          <g>
            <g>
              <path class="cls-6" d="M127.35,530.31c-13.36-.57-26.11-3.79-37.89-9.58-17.47-8.58-30.01-23.15-36.25-42.14-7.98-24.26-4.8-54.05,8.5-79.7,10.54-20.29,25.38-31.98,44.13-34.74.94-.14,1.84-.21,2.68-.21,4.03,0,6.46,1.65,7.79,3.03,2.06,2.13,3.03,5.12,2.9,8.88-1.13,31.91,21.1,45.17,42.28,46.94,2.4.2,4.79.3,7.1.3,16.67,0,31.34-5.12,44.86-15.66,7.92-6.17,14.78-14.08,20.78-23.98-2.82,3.12-5.78,6.15-9.06,8.78-12.51,10.04-26.31,15.36-39.9,15.36-19.66,0-36.64-11.46-45.42-30.67-6.21-13.6-9.29-29.87-9.41-49.75-.02-3.89.2-7.32.42-10.95l.12-1.99c0-.17,0-.35.02-.52,0,0,.33-3.83.34-3.89,9.53-81.44,45.2-142.74,109.06-187.41,25.28-17.69,51.92-26.66,79.18-26.66.42,0,.84,0,1.26,0,25.49.26,42.32,9.8,51.46,29.17,9.43,19.99,8.97,46.8-1.21,69.97-10.18,23.18-28.79,40-52.4,47.38-5.25,1.64-10.95,2.51-16.48,2.51-1.24,0-2.48-.04-3.69-.13-5.35-.38-9.58-2.66-11.91-6.41-2.68-4.31-2.65-9.92.1-16.66,2.04-5,3.12-11.37,2.89-17.03-.3-7.37-3.96-11.11-10.87-11.11-.75,0-1.54.05-2.34.14-19.66,2.25-35.19,14.72-46.17,37.06-6.66,13.57-8.54,27.17-5.6,40.4,3.03,13.62,12.6,21.76,25.58,21.76.76,0,1.54-.03,2.32-.09,18.36-1.34,32.27-8.84,43.76-23.58,4.8-6.15,10.93-9.4,17.72-9.4.76,0,1.53.04,2.3.13,5.34.58,9.79,3.2,12.52,7.38,3.11,4.76,3.67,11.03,1.58,17.65-8.72,27.62-17.88,56.07-27.24,84.58-5.68,17.28-12.59,37.29-22.81,56.09-26.27,48.38-59.4,79.58-101.27,95.39-16.54,6.25-32.41,9.43-47.18,9.45h-.01s-4.53-.08-4.58-.09Z"/>
              <path class="cls-5" d="M319.6,101.75c.4,0,.8,0,1.2,0,19.87.2,36.97,6.38,46.09,25.73,16.07,34.07,1.23,93.08-49.97,109.06-4.8,1.5-9.86,2.24-14.69,2.24-1.1,0-2.19-.04-3.26-.11-6.53-.47-10.84-4.63-6.69-14.82,2.49-6.1,3.58-13.31,3.33-19.54-.44-10.77-6.95-16.87-16.86-16.87-.98,0-1.99.06-3.03.18-22.76,2.61-39.44,17.12-50.87,40.38-7.24,14.76-9.32,29.74-6.07,44.35,3.68,16.54,15.84,26.45,31.44,26.45.91,0,1.83-.03,2.76-.1,18.25-1.34,34.58-8.6,48.06-25.88,3.64-4.66,8.12-7.09,12.99-7.09.54,0,1.09.03,1.64.09,8,.87,11.96,7.99,9.04,17.26-8.9,28.2-17.98,56.38-27.22,84.51-6.17,18.78-12.79,37.46-22.38,55.1-23.7,43.65-55.26,76.46-98.12,92.64-15.39,5.81-30.48,9.04-45.07,9.07l-4.32-.08c-12.25-.52-24.13-3.38-35.5-8.97-40.92-20.11-46.29-72.78-25.08-113.68,9.07-17.46,22.13-28.98,39.68-31.57.65-.1,1.25-.15,1.8-.15,3.31,0,4.84,1.77,4.7,5.69-1.16,32.8,20.8,50.88,47.78,53.13,2.54.21,5.08.32,7.6.32,16.64,0,32.96-4.77,48.55-16.93,12.88-10.03,22.07-23.46,29.15-38.64.57-1.22,1.28-2.82,1.05-3.86-.42-1.89-1.14-3.97-2.43-4.97-.06-.05-.15-.07-.26-.07-.86,0-2.97,1.47-4.04,2.59-6.44,6.75-12.16,14.69-19.18,20.33-11.81,9.48-24.43,14.04-36.15,14.04-16.85,0-31.85-9.41-39.96-27.16-6.54-14.3-8.77-30.36-8.87-47.29-.02-4.48.29-8.37.56-12.92h-.01s.32-3.7.32-3.7c9.09-77.69,42.19-138.18,106.54-183.19,24.02-16.8,49.59-25.57,75.74-25.57M319.6,89.75c-28.51,0-56.31,9.33-82.62,27.74-65.35,45.71-101.84,108.39-111.58,191.63-.01.12-.03.24-.04.35l-.32,3.72c-.02.28-.04.56-.04.84-.04.61-.08,1.21-.11,1.81-.24,3.74-.46,7.27-.44,11.36.12,20.75,3.38,37.83,9.95,52.22,9.78,21.4,28.79,34.17,50.87,34.17,1.85,0,3.7-.09,5.56-.26-7,2.53-14.38,3.77-22.24,3.77-2.15,0-4.37-.09-6.61-.28-10.92-.91-20.46-5.02-26.86-11.55-7.01-7.16-10.35-16.98-9.92-29.2.24-6.79-2.36-10.96-4.58-13.26-2.14-2.22-5.98-4.86-12.11-4.86-1.13,0-2.33.09-3.57.28-20.45,3.01-37.25,16.12-48.56,37.91-14.03,27.06-17.35,58.58-8.87,84.34,6.76,20.55,20.35,36.33,39.31,45.65,12.53,6.16,26.09,9.58,40.28,10.19.09,0,.19,0,.28,0l4.32.08c.07,0,.15,0,.22,0,0,0,.02,0,.02,0,15.49-.03,32.07-3.34,49.29-9.84,22.23-8.39,42.53-21.39,60.35-38.62,16.44-15.9,31.27-35.93,44.08-59.52,10.45-19.24,17.47-39.55,23.23-57.08,9.36-28.53,18.54-57.01,27.26-84.65,2.64-8.36,1.83-16.44-2.28-22.73-3.73-5.71-9.73-9.28-16.9-10.06-.97-.11-1.96-.16-2.94-.16-8.58,0-16.56,4.16-22.45,11.71-10.38,13.32-22.93,20.08-39.47,21.29-.63.05-1.27.07-1.88.07-10.12,0-17.31-6.22-19.73-17.06-2.64-11.87-.92-24.14,5.13-36.46,10.16-20.67,23.72-31.71,41.46-33.74.59-.07,1.14-.1,1.66-.1,2.72,0,4.67.38,4.87,5.36.2,4.85-.72,10.27-2.45,14.51-4.38,10.75-2.22,17.95.36,22.11,3.37,5.43,9.26,8.7,16.58,9.22,1.35.1,2.73.14,4.11.14,6.12,0,12.44-.96,18.27-2.78,25.29-7.89,45.21-25.9,56.1-50.69,10.85-24.71,11.29-53.43,1.14-74.94-10.07-21.36-29.19-32.33-56.82-32.61-.44,0-.88,0-1.32,0h0Z"/>
            </g>
            <g>
              <path class="cls-6" d="M234.05,509.85c-2.21,0-4.27-1.22-5.31-3.22-1.2-2.29-.79-5.09,1-6.95l12.86-13.29c20.31-22.64,32.45-46.37,45.3-71.48.91-1.78,2.64-2.98,4.62-3.22l9.76-1.18,549.2-93.31c22.65-3.97,44.05-21.17,55.8-44.86l.3-.61c2.98-6.08,5.34-12.55,7.11-19.57-2.83,6.11-6.24,12.49-10.58,18.61-12.44,17.55-31.97,28.88-49.75,28.88-3.32,0-6.53-.41-9.53-1.21-12.54-3.36-20.48-12.33-23.66-26.71-11.52,17.65-22.37,29.35-35.01,37.78-7.46,4.97-15.44,8.39-23.7,10.16-2.92.63-5.75.94-8.42.94-8.5,0-20.21-3.31-27.77-19.05-5.59-11.66-8.12-24.83-10.02-37.31-.52-3.44-.94-6.93-1.35-10.3-.46-3.8-.93-7.73-1.54-11.47-.39-2.4-1.11-4.49-1.98-5.74-.6-.87-.99-.87-1.12-.87-.88,0-2.49.97-3.95,3.11-2.76,4.04-3.44,8.57-3.66,14.55-.15,4.23-.23,8.54-.31,12.71-.15,7.57-.3,15.4-.85,23.22-.5,7.05-1.95,14.2-4.21,20.68-5.62,16.17-18.9,25.91-35.54,26.03h-.27c-9.44,0-25.61-3.77-27.85-29-.21-2.38-.34-4.79-.42-7.2-16.52,21.09-32.75,35.42-50.64,44.81-14.49,7.6-27.82,11.3-40.76,11.3-4.82,0-9.61-.54-14.25-1.59-18.07-4.13-30.62-16.46-37.31-36.66-.43-1.3-.82-2.62-1.19-3.95-17.32,24.89-34.39,41.96-53.5,53.55-15.65,9.49-31.14,14.3-46.04,14.3-2.69,0-5.4-.16-8.05-.47-23.06-2.69-38.64-17.51-45.05-42.86-7.39-29.25-3.65-60.72,11.43-96.21,10.87-25.61,26.02-45.88,45.02-60.23,17.9-13.53,35.84-20.38,53.34-20.38,4.17,0,8.39.39,12.52,1.16,17.83,3.33,30.39,19.35,32.01,40.79,1.24,16.4-4.06,34.79-14.54,50.44-10.83,16.16-25.7,27.66-41.89,32.38-8.12,2.37-15.29,3.52-21.9,3.52-5.66,0-11.05-.87-16.05-2.58-.08,3.02.96,4.88,3.61,6.56,3.45,2.18,7.86,3.24,13.46,3.24.62,0,1.24-.01,1.86-.04,27.06-1.02,50.94-14.59,70.98-40.34,1.05-1.35,2.03-3.68,2.62-6.23,7.49-32.73,20.64-59.02,40.18-80.34,20.56-22.42,43.23-33.79,67.37-33.79,3.34,0,6.75.22,10.12.66,24.11,3.13,37.72,24.11,34.68,53.45-1.75,16.89-7.63,30.08-18,40.32-9.5,9.39-19.83,14.15-30.7,14.15-2.03,0-4.09-.17-6.13-.5-1.72-.28-3.34-.76-4.82-1.43-5.32-2.37-7.41-5.9-8.22-8.43-1.25-3.9-.5-8.21,2.21-12.79.54-.92,1.12-1.8,1.68-2.65,1-1.52,2.04-3.1,2.33-4.2.93-3.57,1.94-8.13,1.55-11.64-.22-2-1.78-3.01-4.63-3.01-1.15,0-2.39.19-3.67.58-5.38,1.61-9.72,5.16-13.25,10.86-10.21,16.46-9.79,40.66.86,49.79,4.92,4.22,10.69,6.27,17.66,6.27,4.13,0,8.74-.74,13.71-2.21,22.4-6.6,40.59-21.9,55.62-46.78.44-.72.83-1.9,1.2-3.03,3.76-11.44,7.49-22.9,11.22-34.37,8.61-26.47,17.52-53.84,26.77-80.67,4.61-13.35,10.62-26.45,16.43-39.11,1.09-2.38,2.18-4.75,3.26-7.13,3.84-8.43,9.23-15.86,16-22.1,6.54-6,13.54-9.04,20.82-9.04,5.83,0,10.3,1.77,13.33,5.27,3.2,3.7,4.35,8.9,3.4,15.46-1.11,7.61-2.88,14.58-5.26,20.73-4.05,10.42-8.39,20.92-12.58,31.06-3.29,7.97-6.7,16.21-9.93,24.33-6.52,16.38-14.56,38.06-18.93,60.53-.24,1.25-.21,2.02-.15,2.43h.02c.22,0,.47-.02.74-.07,2.6-.41,5.63-1.63,8.38-7.54l2.1-4.51c4.96-10.7,10.09-21.77,16.04-32.27,8.84-15.61,20.32-26.38,34.1-32,6.24-2.54,12.39-3.83,18.28-3.83,2.49,0,4.98.23,7.4.68,14.81,2.77,24.46,16.73,23.45,33.96-1.47,25.02-14.85,42.47-37.66,49.13-2.75.81-5.49,1.48-8.15,2.13-2.69.66-5.24,1.28-7.78,2.03-5.11,1.51-8.69,5.4-9.83,10.69-1.81,8.42,2.47,10.75,3.87,11.52,2.87,1.57,6.29,2.34,10.45,2.34,1.15,0,2.37-.06,3.65-.18,14.68-1.36,25.66-4.6,35.6-10.5,3.45-2.05,6.9-5.04,9.83-7.7,3.45-3.13,5.88-7.23,7.45-12.54,4.85-16.48,11.7-38.06,21.67-58.89,5.44-11.39,11.64-23.24,22.19-31.92,4.01-3.3,8.77-5.85,13.39-7.19,1.85-.53,3.63-.8,5.32-.8,6.53,0,13.7,4.26,14.24,16.22.57,12.74-2.79,25.27-6.28,37.01-.87,2.92-1.76,5.85-2.64,8.77-2.74,9.04-5.58,18.38-7.72,27.54-1.32,5.65-1.06,11.93-.7,16.77.18,2.41.97,3.18,3.25,3.18.12,0,.24,0,.36,0,10.98-.49,18.9-5.84,24.19-16.36,3.41-6.78,5.97-14.24,8.23-21.3,5.98-18.74,12.17-38.13,21.78-56.52,3.71-7.1,9-16.14,17.08-23.04,5.88-5.02,12.38-7.57,19.31-7.57,1.18,0,2.39.08,3.59.23,8.19,1.04,13.47,7.37,14.14,16.94.1,1.44.14,2.9.1,4.38.06-.25.12-.5.19-.74,2.11-8.12,6.41-15.32,12.79-21.41,10.63-10.14,26.89-16.44,42.44-16.44,13.31,0,24.71,4.61,32.11,12.99,7.64,8.63,11.74,20.21,12.19,34.41.92,28.71-9.43,55.75-31.64,82.66-17.73,21.49-40.25,40.2-68.84,57.22-12.12,7.22-24.66,13.71-36.78,20-3.89,2.02-7.77,4.03-11.65,6.07-1.34.71-1.54.94-1.91,2.25-7.05,24.56-16.16,53.28-30.23,80.13-9.65,18.41-19.81,31.74-31.98,41.96-12.64,10.61-26.9,16.88-43.59,19.17l-610.55,99.58c-.32.05-.65.08-.97.08ZM425.9,220.25c-4.05,0-7.95,1.46-11.6,4.33-5.1,4.01-8.03,8.79-8.71,14.21-.44,3.47.05,6.21,1.38,7.71,1.07,1.21,2.85,1.82,5.31,1.82.85,0,1.76-.08,2.72-.23,8.16-1.28,15.44-8.32,17.71-17.12.87-3.36.59-6.41-.75-8.36-.89-1.29-2.24-2.04-4.01-2.25-.69-.08-1.38-.12-2.05-.12ZM1001.35,101.89c-.68,3.45-1.67,7.05-2.97,10.84-2.53,7.37-5.17,14.82-7.71,22.04-4.19,11.87-8.53,24.14-12.5,36.25-3.09,9.41-5.78,19.16-8.39,28.58-.08.3-.17.61-.25.91,4.74-3.44,9.14-7.1,13.29-11.04,14.89-14.13,23.99-29.16,27.83-45.93,1.78-7.79,2.04-14.77.77-20.77-.74-3.54-2.08-5.98-3.08-6.83-4.94-4.2-6.7-9.21-6.98-14.04Z"/>
              <path class="cls-5" d="M743.17,29.36c8.18,0,12.12,4.51,10.77,13.86-.94,6.47-2.49,13.17-4.92,19.41-7.21,18.54-15.13,36.86-22.49,55.35-8.03,20.18-15.16,40.59-19.24,61.6-1.16,5.95,1.06,9.57,5.77,9.57.53,0,1.09-.05,1.68-.14,5.88-.93,9.94-4.6,12.89-10.93,5.7-12.25,11.27-24.63,17.92-36.36,7.56-13.35,17.73-23.93,31.15-29.41,5.39-2.2,10.74-3.39,16.01-3.39,2.11,0,4.21.19,6.29.58,11.95,2.23,19.38,13.66,18.56,27.71-1.33,22.51-12.9,37.75-33.35,43.73-5.3,1.55-10.64,2.6-15.94,4.17-7.3,2.15-12.42,7.84-13.99,15.19-1.78,8.3.61,14.63,6.86,18.05,4.08,2.24,8.62,3.07,13.32,3.07,1.39,0,2.79-.07,4.2-.2,12.89-1.2,25.75-3.98,38.11-11.31,3.8-2.26,7.39-5.32,10.81-8.42,4.5-4.08,7.4-9.27,9.17-15.29,5.8-19.7,12.34-39.22,21.32-58,5.31-11.11,11.12-22.07,20.6-29.88,3.35-2.76,7.41-4.95,11.24-6.06,1.32-.38,2.54-.57,3.65-.57,5.08,0,7.94,3.85,8.24,10.49.52,11.73-2.57,23.37-6.04,35.03-3.62,12.2-7.59,24.38-10.45,36.66-1.43,6.1-1.29,12.58-.84,18.59.44,5.8,4.07,8.72,9.23,8.72.21,0,.42,0,.63-.01,12.27-.55,22.64-6.46,29.28-19.66,3.56-7.06,6.18-14.67,8.58-22.17,6.03-18.88,12.06-37.73,21.38-55.57,4.15-7.95,8.89-15.48,15.66-21.26,4.9-4.19,10.07-6.13,15.42-6.13.94,0,1.89.06,2.84.18,5.37.68,8.44,4.77,8.9,11.4.53,7.62-1.09,15.27-3.69,22.83-6.7,19.47-13.84,38.83-20.24,58.37-4.45,13.57-7.97,27.36-11.88,41.04-.3,1.06-.38,2.15-.65,3.69,9.84-5.72,18.76-12.21,27.01-20.06,14.26-13.53,25.05-29.27,29.54-48.95,1.83-8.02,2.35-15.97.79-23.35-.8-3.82-2.47-7.95-5.06-10.16-5.56-4.73-5.73-11.07-3.75-18.68,1.9-7.32,5.78-13.48,11.13-18.58,9.66-9.21,24.45-14.78,38.29-14.78,10.73,0,20.89,3.35,27.62,10.96,7.16,8.1,10.3,18.59,10.69,30.63.95,29.56-11.01,55.32-30.27,78.65-19.47,23.6-42.65,41.22-67.28,55.89-15.79,9.39-32.05,17.44-48.16,25.92-2.58,1.36-4,2.8-4.89,5.9-7.75,26.97-16.5,53.67-29.77,79-8,15.27-17.55,29.25-30.52,40.15-12.57,10.55-26.27,15.87-40.63,17.83l-610.62,99.6,12.93-13.37c20.25-22.55,32.44-45.86,46.25-72.84l9.9-1.2,549.34-93.33c24.49-4.3,47.5-22.57,60.17-48.11.11-.21.21-.42.31-.64,5.25-10.69,8.32-21.87,10.05-33.26l.02-.23c.26-3.27.55-6.64-2.72-7.72-.24-.08-.49-.12-.75-.12-1.97,0-4.33,2.31-5.87,6.15-3.92,9.84-8.29,19.38-14.48,28.12-11.35,16.01-29.36,26.35-44.85,26.35-2.76,0-5.44-.33-7.98-1.01-12.07-3.23-18.11-12.72-20.06-26.12-.59-4.04-.64-8.27-.98-13-2.9,4.75-5.42,9.04-8.1,13.23-9.5,14.83-20.21,28.3-34.41,37.77-6.92,4.61-14.12,7.68-21.63,9.29-2.53.54-4.92.81-7.16.81-10.16,0-17.47-5.46-22.36-15.65-5.21-10.86-7.6-23.13-9.5-35.62-1.1-7.23-1.73-14.64-2.91-21.84-.48-2.94-1.43-5.96-2.97-8.18-1.61-2.34-3.77-3.45-6.05-3.45-3.06,0-6.35,1.99-8.9,5.73-3.81,5.58-4.48,11.66-4.7,17.72-.42,11.91-.31,23.77-1.15,35.73-.44,6.29-1.74,12.95-3.89,19.13-5.31,15.28-17.23,21.91-29.92,22-.08,0-.15,0-.22,0-13.1,0-20.5-8.07-21.87-23.54-.71-7.94-.45-16.16-.63-24.56-1.98,2.76-3.94,5.53-5.96,8.25-15.07,20.31-31.98,37.99-53.24,49.15-12.67,6.64-25.36,10.61-37.98,10.61-4.31,0-8.62-.46-12.91-1.44-16.75-3.83-27.24-15.46-32.95-32.7-1.74-5.24-2.79-10.88-4.25-16.7-1.84,2.75-3.64,5.49-5.48,8.19-14.97,22.03-31.92,41.62-53.76,54.86-14.05,8.52-28.43,13.43-42.93,13.43-2.45,0-4.9-.14-7.36-.43-21.43-2.5-34.34-16.27-39.93-38.37-7.61-30.13-2.11-61.23,11.13-92.39,9.79-23.06,23.64-43.08,43.11-57.79,16-12.09,32.62-19.17,49.72-19.17,3.78,0,7.59.35,11.42,1.06,15.57,2.91,25.78,17.51,27.13,35.35,2.37,31.3-21.11,67.57-52.13,76.62-6.87,2-13.64,3.28-20.22,3.28-5.35,0-10.58-.84-15.65-2.82-.67-.26-1.3-.38-1.89-.38-2.51,0-4.26,2.23-4.48,5.81-.36,6.03,2.27,9.84,6.36,12.45,4.97,3.14,10.7,4.18,16.67,4.18.69,0,1.39-.01,2.09-.04,29.38-1.1,54.51-15.69,75.49-42.65,1.82-2.34,3.06-5.63,3.73-8.56,6.61-28.89,18.4-55.43,38.75-77.63,18.81-20.52,39.91-31.85,62.95-31.85,3.08,0,6.2.2,9.35.61,23.29,3.03,31.86,24,29.49,46.88-1.42,13.76-5.91,26.45-16.24,36.67-8.18,8.09-17.04,12.42-26.48,12.42-1.7,0-3.42-.14-5.16-.43-1.16-.19-2.28-.51-3.33-.98-5.72-2.55-6.69-6.97-3.3-12.7,1.63-2.77,3.9-5.49,4.65-8.4,1.18-4.55,2.18-9.51,1.71-13.8-.59-5.41-4.97-8.36-10.6-8.36-1.71,0-3.53.27-5.39.83-6.92,2.07-12.39,6.61-16.63,13.45-11.81,19.05-11,46.32,2.05,57.51,6.35,5.44,13.67,7.71,21.56,7.71,4.94,0,10.11-.89,15.41-2.45,24.97-7.36,44.19-24.82,59.06-49.43.78-1.3,1.28-2.8,1.76-4.24,12.61-38.34,24.79-76.78,37.97-114.98,5.36-15.52,12.62-30.61,19.49-45.71,3.48-7.65,8.46-14.52,14.6-20.17,5.1-4.68,10.64-7.46,16.76-7.46h.02M412.27,254.32c1.15,0,2.37-.1,3.65-.3,10.51-1.65,19.73-10.44,22.59-21.55,2.42-9.41-1.73-17.13-9.89-18.06-.91-.1-1.82-.16-2.73-.16-5.26,0-10.43,1.77-15.31,5.61-5.84,4.59-10,10.57-10.96,18.18-1.29,10.26,3.65,16.29,12.64,16.29M743.17,17.36h-.02c-8.83,0-17.2,3.58-24.87,10.62-7.38,6.79-13.24,14.87-17.41,24.03-1.08,2.37-2.17,4.74-3.25,7.11-5.87,12.8-11.95,26.03-16.66,39.66-9.27,26.88-18.18,54.28-26.8,80.77-3.67,11.27-7.46,22.93-11.22,34.37-.19.58-.5,1.51-.67,1.84-14.21,23.5-31.27,37.92-52.15,44.07-4.42,1.3-8.46,1.96-12.01,1.96-5.55,0-9.92-1.53-13.75-4.82-3.6-3.09-5.91-9.49-6.17-17.11-.29-8.73,2.08-17.83,6.5-24.97,2.77-4.46,5.9-7.09,9.87-8.28.21-.06.41-.11.59-.16-.24,2.58-.99,5.53-1.33,6.83-.23.52-1.03,1.74-1.57,2.55-.57.87-1.22,1.85-1.85,2.92-4.5,7.61-3.98,13.8-2.75,17.65,1.18,3.71,4.14,8.82,11.51,12.1,1.92.86,4.03,1.49,6.26,1.86,2.38.39,4.77.59,7.12.59,12.51,0,24.26-5.35,34.92-15.89,11.39-11.26,17.85-25.64,19.74-43.97,1.5-14.49-.78-27.63-6.59-37.99-7-12.49-18.51-20.1-33.29-22.02-3.63-.47-7.3-.71-10.9-.71-25.9,0-50.06,12.02-71.8,35.74-11.25,12.28-20.45,26.12-27.74,41.79,0-1.62-.07-3.23-.19-4.83-.85-11.2-4.51-21.42-10.58-29.55-6.69-8.95-15.79-14.72-26.3-16.69-4.5-.84-9.08-1.27-13.62-1.27-18.83,0-37.99,7.27-56.96,21.6-19.84,15-35.63,36.08-46.92,62.67-15.61,36.74-19.44,69.46-11.72,100.02,3.38,13.38,9.18,24.2,17.23,32.14,8.67,8.56,19.75,13.67,32.94,15.21,2.88.34,5.83.51,8.75.51,16.02,0,32.55-5.11,49.15-15.17,17.33-10.51,32.97-25.27,48.52-45.88,3.25,7.49,7.44,13.88,12.5,19.04,7.17,7.32,16.09,12.24,26.51,14.62,5.07,1.16,10.32,1.75,15.58,1.75,13.93,0,28.18-3.92,43.55-11.98,15.31-8.03,29.38-19.46,43.36-35.31,1.55,7.15,4.44,13.05,8.63,17.57,4.15,4.48,11.7,9.81,24.14,9.81h.31c19.29-.14,34.68-11.38,41.17-30.07,2.43-6.97,3.99-14.65,4.52-22.22.56-7.97.71-15.88.86-23.52.08-4.15.16-8.44.31-12.62.01-.39.03-.77.05-1.14.08.68.17,1.37.25,2.06.41,3.42.84,6.96,1.38,10.49,1.97,12.94,4.61,26.63,10.54,39,8.9,18.56,22.96,22.46,33.18,22.46,3.09,0,6.35-.36,9.68-1.08,9.01-1.93,17.68-5.65,25.77-11.03,10.81-7.21,20.33-16.61,29.93-29.68,6.03,12.04,15.72,17.22,23.86,19.41,3.51.94,7.24,1.42,11.08,1.42,6.25,0,12.68-1.25,18.98-3.56-7.19,4.62-14.96,7.8-22.9,9.2l-549.03,93.28-9.61,1.16c-3.96.48-7.42,2.9-9.24,6.45-12.65,24.72-24.6,48.08-44.35,70.12l-12.78,13.21c-3.6,3.72-4.41,9.32-2.01,13.9,2.09,4,6.22,6.44,10.63,6.44.64,0,1.29-.05,1.94-.16l610.47-99.57c17.82-2.46,33.05-9.17,46.56-20.51,12.79-10.74,23.42-24.65,33.44-43.77,14.12-26.96,23.29-55.63,30.39-80.26,3.61-1.89,7.28-3.8,10.84-5.65,12.2-6.33,24.81-12.87,37.09-20.17,29.2-17.38,52.23-36.53,70.4-58.56,23.18-28.09,33.98-56.44,33.01-86.67-.5-15.63-5.1-28.48-13.69-38.19-8.56-9.68-21.56-15.01-36.61-15.01-17.03,0-34.87,6.94-46.58,18.1-2.75,2.62-5.15,5.43-7.21,8.41-3.4-5.08-8.63-8.37-15.11-9.19-1.46-.18-2.92-.27-4.35-.27-8.41,0-16.22,3.03-23.21,9.01-8.86,7.57-14.54,17.24-18.5,24.83-9.84,18.85-16.11,38.49-22.17,57.48-2.18,6.82-4.64,14.02-7.87,20.42-3.88,7.7-9.2,11.83-16.63,12.85-.21-3.92-.2-8.42.72-12.36,2.09-8.97,4.77-17.8,7.61-27.15.89-2.94,1.79-5.88,2.66-8.82,3.63-12.22,7.13-25.31,6.52-38.98-.26-5.85-1.89-10.75-4.83-14.55-3.7-4.78-9.17-7.41-15.4-7.41-2.25,0-4.59.35-6.98,1.04-5.4,1.56-10.91,4.51-15.54,8.32-11.5,9.47-18.06,21.97-23.8,33.97-10.15,21.21-17.09,43.09-22.01,59.79-1.25,4.22-3.12,7.42-5.72,9.79-2.71,2.46-5.88,5.21-8.86,6.99-9.14,5.42-19.35,8.41-33.1,9.68-1.08.1-2.13.15-3.09.15-3.12,0-5.6-.52-7.56-1.6-.75-.41-1.76-.96-.89-5.01.67-3.11,2.68-5.31,5.66-6.19,2.41-.71,4.89-1.32,7.51-1.96,2.72-.67,5.53-1.35,8.41-2.2,12.67-3.7,22.78-10.4,30.02-19.9,7.12-9.34,11.13-20.99,11.94-34.63,1.19-20.34-10.46-36.87-28.34-40.21-2.78-.52-5.64-.78-8.5-.78-6.67,0-13.59,1.44-20.54,4.27-15.07,6.14-27.53,17.79-37.06,34.6-2.71,4.78-5.24,9.66-7.66,14.55,3.35-10.25,6.99-19.77,10.25-27.94,3.22-8.09,6.61-16.31,9.9-24.26,4.2-10.18,8.55-20.7,12.62-31.18,2.55-6.57,4.44-13.98,5.61-22.04,1.51-10.41-1.77-16.75-4.8-20.24-2.9-3.35-8.35-7.34-17.84-7.34h0ZM980.65,183.21c1.03-3.47,2.1-6.92,3.21-10.32,3.95-12.05,8.27-24.29,12.46-36.13,2.08-5.88,4.21-11.92,6.3-17.94.51.51,1.04,1.01,1.6,1.5.3.45.92,1.76,1.32,3.69,1.09,5.15.83,11.27-.75,18.2-3.39,14.84-11.3,28.28-24.13,41h0ZM411.5,242.28c-.09-.52-.14-1.43.03-2.74.48-3.85,2.6-7.2,6.47-10.24,2.61-2.05,5.19-3.04,7.89-3.04.4,0,.8.02,1.21.06.12.52.19,1.58-.21,3.16-1.66,6.45-7.06,11.79-12.83,12.69-.66.1-1.26.16-1.79.16-.32,0-.58-.02-.77-.04h0Z"/>
            </g>
          </g>
          <g>
            <g>
              <path class="cls-5" d="M501.75,391.08l12.08-2.03c2.55-.4,4.83-.71,6.84-.92,5.48-.71,9.01.14,10.57,2.53,1.56,2.4,1.13,6.19-1.32,11.39-1.7,3.61-4.06,6.83-7.08,9.67-3.02,2.84-6.74,5.51-11.14,7.99,4.59,1.14,5.64,5.52,3.15,13.12-.53,1.66-1.22,3.57-2.09,5.74-.87,2.17-1.43,3.62-1.68,4.35l-.66,2.15c-.82,2.53-1.35,4.35-1.6,5.46l-.21.15c-4.39.99-8.34,1.76-11.85,2.32-3.51.56-6.57.97-9.2,1.26l-.22.04c-.77.12.4-4,3.53-12.38l.69-1.83c1.39-3.16,1.92-5.22,1.57-6.18-.35-.96-1.58-1.27-3.7-.94l-.51.12-1.98.31-6.19,13.16-.61,1.38-3.72,7.92c-.21.3-.48.5-.81.61-2.8.55-6.7,1.22-11.71,2.01-5,.79-8.31,1.33-9.92,1.61l-.18-.05-.1.06c-.05,0-.1-.02-.16-.09l1.91-3.91.57-1.29,8.59-17.99,1.49-3.16,1.56-3.25,5.31-11.22.73-1.48,4.51-9.81,6.64-13.83c.11-.23.87-.46,2.3-.68l2.38-.34,2.28-.36,4.73-.71,5.21-.9ZM508.96,403c-1.14-.51-2.97-.57-5.46-.18l-2.17.34c-.49.51-1.77,2.96-3.84,7.36s-3.39,7.34-3.97,8.82c7.91-1.44,13.28-5.17,16.11-11.2,1.21-2.57.99-4.28-.67-5.14ZM508.86,450.54l-.02.04s-.03,0-.02-.04h.04ZM509.11,450.38l-.25.16.04-.09s.08-.05.21-.07Z"/>
              <path class="cls-5" d="M580.76,438.76c-.2.38-.97.68-2.32.9l-3.44.57-2.34.42-2.28.38-3.65.64c-3.62.59-6.58.99-8.88,1.18-.06-.02-.07-.18-.02-.48l.24-.88c1.16-2.94,1.91-5.72,2.25-8.34l-16.11,2.81c-.33.51-1.33,2.02-3.01,4.54-1.68,2.52-2.94,4.42-3.8,5.71-.38.33-1.64.67-3.76,1.02l-.92.11-2.17.36-9.86,1.86-1.12.18-1.07.22-2.62.43c-.08-.17-.15-.4-.2-.69,7.14-10.41,16.29-23.37,27.44-38.88l2.29-3.22h-.04s2.68-3.76,2.68-3.76c.86-1.21,3.28-4.57,7.26-10.09,3.98-5.51,6.52-9.07,7.62-10.67,1.1-1.6,1.7-2.43,1.8-2.5l6.22-1.02,13.39-2.4,3.49-.37,3.06-.7c1.5-.25,2.09-.02,1.76.67-1.25,7.66-3.32,18.72-6.19,33.18-2.87,14.47-4.48,22.6-4.83,24.39l-.48,2.08c-.19.75-.32,1.53-.4,2.35ZM554.7,421.17l1.51-.21,8.97-1.51c1.22-3.38,2.11-5.86,2.67-7.45l2.02-7.18c2.06-7.42,3.1-11.19,3.12-11.33.02-.14.04-.27.06-.39s.03-.21.03-.24c0-.04,0-.11.02-.22.02-.11.02-.18,0-.22s-.03-.1-.04-.17c-.01-.32-.23-.56-.66-.73-.75.28-6.81,9.32-18.16,27.1l-1.74,2.93,2.21-.36Z"/>
              <path class="cls-5" d="M598.68,403.49c3.66-6.69,6.97-11.81,9.91-15.37,5.65-6.86,11.75-12.07,18.29-15.62,5.83-3.17,11.52-5.22,17.06-6.13,9.29-1.53,14.69.31,16.22,5.51.94,3.08.41,7.18-1.61,12.32l-1.56,4.02c-.64.53-3.43,1.2-8.37,2.02l-5.91.89-.49.08-3.22.45-.92.19-.75.12c-.7.11-.68-.98.06-3.29.74-2.31.92-3.79.54-4.43-.38-.64-1.06-.89-2.03-.73s-1.92.5-2.85,1.03c-.92.53-1.76,1.11-2.49,1.75-.74.64-1.51,1.51-2.32,2.6-1.43,1.89-2.68,3.85-3.74,5.88-1.06,2.03-2.17,4.29-3.32,6.77l-.48,1.04-2.19,4.4c-3.71,7.98-3.66,11.74.16,11.27,1-.16,1.79-.48,2.38-.95,1.58-1.27,3.55-3.64,5.89-7.1.5-.72.97-1.32,1.42-1.8l1.42-.23,1.7-.24,6.07-1,1.85-.34,3.54-.54,2.17-.36,2.19-.32,1.5-.25c.29-.02.36.25.21.81l-.78,1.45c-1.81,3.45-3.93,6.66-6.37,9.62-4.49,5.44-9.58,9.77-15.29,12.99-5.7,3.22-11.28,5.28-16.72,6.17-9.51,1.56-15.14-.52-16.88-6.24-1.74-5.72.15-14.54,5.69-26.45Z"/>
              <path class="cls-5" d="M652.74,422.27c2.73-5.87,4.76-9.97,6.1-12.3,5.84-12.58,11.89-25.28,18.13-38.11.77-1.81,1.59-3.64,2.45-5.49l.67-1.43c.32-.88.64-1.67.96-2.36s.59-1.15.81-1.38c5.17-.5,9.76-1.08,13.78-1.74s6.82-1.2,8.4-1.62c0,.08-.07.32-.23.72l-.26.04-7.3,15.7-16.14,35.26c-.12.26-.18.47-.19.63l-.04.09c0,.16-.06.34-.15.55l-5.57,12.57c-.27.34-.61.62-1.02.85l-1.27.21-21.15,3.83c-.18-.1-.41-.27-.67-.49l.38-.74,2.33-4.79Z"/>
              <path class="cls-5" d="M759.07,381.07l-1.39,2.91-7.46,16.05-3.47,7.62-1.01,2.17-.91,2.03c-.26.26-.92.47-2,.65l-.97.16-11.84,2.1c-4.99.82-8.71,1.42-11.14,1.79-.16-.4.43-4.38,1.78-11.95l3.07-20.81-1.45.44-2.09,4.43-5.46,11.75-5.31,11.73-2.26,4.86c-.6,1.3-1.17,2.02-1.7,2.16-2.43.32-4.77.66-7.02,1.03l-1.16.19-5.73,1.1-.75.12-2.74.53-.07-.07c-.41-.76-.52-1.34-.33-1.75l.36-.78.44-.87,8.05-16.94c8.63-18.56,15.3-32.62,20.02-42.19l1.75-3.61c.12-.26,8.83-1.9,26.12-4.93.1.09.02.69-.21,1.8l.06-.13-.18.83c-1,5.83-2.02,12.49-3.07,19.99-1.04,7.5-1.58,11.34-1.61,11.5l1.31-.3,16.58-35.37c.11-.23,1.98-.65,5.63-1.24l9.3-1.33,2.77-.46c-4.27,9.54-9.58,21.14-15.92,34.78Z"/>
              <path class="cls-5" d="M816.05,397.45s-.03.08-.04.17l-.27.37h.04s-.04.08-.04.08c-.03.06-.06.1-.1.14-1.66,1.23-4.96,2.66-9.92,4.27-4.96,1.62-8.29,2.56-10,2.84s-2.66.42-2.84.43l-1.97.44c-2.06.47-3.25.73-3.55.78-10.48,1.72-17.05-.02-19.69-5.22-2.64-5.2-1.36-13.42,3.86-24.65s12.13-20.24,20.74-27.02c8.6-6.78,17.95-11,28.03-12.66,1.85-.3,4.03-.47,6.55-.52,2.52-.04,4.62.16,6.31.61,1.94.78,3.29,2.14,4.03,4.08.74,1.95.76,4.24.04,6.86-.25.74-.68,1.89-1.29,3.48-.61,1.58-1.04,2.74-1.29,3.48-.35.46-.99.76-1.91.92l-18.84,2.73c-.07-.04-.02-.41.17-1.11l-.06.13c.64-2.27.42-3.55-.66-3.86-.48-.16-1.2-.16-2.18,0s-1.98.5-3.01,1.02c-1.04.52-2,1.16-2.88,1.91-.88.76-1.75,1.62-2.61,2.57-.86.96-1.64,1.96-2.33,3.01-.7,1.05-1.38,2.12-2.05,3.22-.67,1.1-1.27,2.17-1.79,3.22s-1.02,2.05-1.5,3.01-.85,1.75-1.12,2.37c-.26.62-.44,1.03-.54,1.23l-1.39,2.99c-.87,1.88-1.41,3.18-1.6,3.89s-.39,1.49-.6,2.34c-.21.85-.29,1.48-.23,1.9.23,1.43.77,2.36,1.62,2.8.85.44,2.47.45,4.88.06s4.89-1.19,7.46-2.39l3.37-6.88-2.57.18-.48.28-3.89.64-.47.12-.41-.97c.18-.48.52-1.26,1.01-2.33l4.51-9.71c.23-.49.76-1.03,1.58-1.62l2.51-.41c2.17-.36,4.59-.73,7.26-1.11l.37-.06c2.42-.34,4.27-.62,5.54-.83l2.25-.37.88-.18c4.44-.73,6.82-.81,7.14-.25l-15.75,32.99-.28.61Z"/>
            </g>
            <polygon class="cls-5" points="460.54 414.69 471 395.71 309.29 422.97 299.18 441.89 460.54 414.69"/>
            <path class="cls-5" d="M448.58,439.28l9.51-18.81-161.71,27.26h0c-2.71,6.17-6.03,12.08-9.89,17.6l-1.01,1.44,163.1-27.49Z"/>
            <path class="cls-5" d="M438.06,462.58l9.51-18.81-165.52,27.9-2.95,4.25c-2.02,2.91-4.18,5.7-6.47,8.36l-6.25,7.24,171.68-28.94Z"/>
          </g>
          <g>
            <line class="cls-6" x1="285.92" y1="458.48" x2="456.22" y2="429.26"/>
            <rect class="cls-6" x="284.68" y="441.87" width="172.78" height="4" transform="translate(-69.75 69.18) rotate(-9.74)"/>
          </g>
          <g>
            <line class="cls-6" x1="264.4" y1="483.03" x2="446.77" y2="451.75"/>
            <rect class="cls-6" x="263.07" y="465.39" width="185.04" height="4" transform="translate(-73.95 66.9) rotate(-9.74)"/>
          </g>
          <g>
            <line class="cls-6" x1="299.84" y1="432.73" x2="470.34" y2="404.77"/>
            <rect class="cls-6" x="298.7" y="416.75" width="172.78" height="4" transform="translate(-62.7 67.85) rotate(-9.32)"/>
          </g>
        </g>
      </g>
    </g>
  </g>
</svg>