<?xml version="1.0" encoding="UTF-8"?>
<svg id="Layer_2" data-name="Layer 2" xmlns="http://www.w3.org/2000/svg" viewBox="0 0 100.63 172.74">
  <defs>
    <style>
      .cls-1 {
        fill: #000;
        stroke-width: 0px;
      }
    </style>
  </defs>
  <g id="Layer_1-2" data-name="Layer 1">
    <g>
      <path class="cls-1" d="M100.12,81.4c-.99,1.63-1.59,3.46-2.84,4.53-7,6.03-14.12,11.93-21.28,17.78-5.05,4.12-10.22,8.09-15.33,12.14-1.14.9-2.26,1.82-3.37,2.75-3.49,2.94-6.6,3.21-11.24,1.2-8.23-3.56-14.99-8.63-21.22-14.82-6.19-6.15-13.15-11.2-21.46-14.27-3.37-1.24-3.82-5.07-1.32-7.82,1.17-1.29,2.29-2.79,2.9-4.4C14.45,53.3,27.08,29.64,40.43,6.34c.81-1.41,1.58-2.88,2.61-4.13,2.52-3.04,5.34-2.93,7.58.23,2.83,3.99,5.76,7.92,8.36,12.05,8.21,13.04,16.28,26.16,24.42,39.24,4.5,7.23,9.06,14.42,13.53,21.67,1.12,1.82,2.02,3.78,3.19,6ZM11.87,79c2.81-1.26,4.55-2.02,6.28-2.81,5.93-2.7,11.86-5.39,17.77-8.12,2.3-1.06,4.51-2.33,6.82-3.35,2.5-1.1,3.23-2.83,3.15-5.57-.36-13.05-.47-26.11-.69-39.16-.03-1.71-.22-3.42-.34-5.13-12.84,20.22-23.37,41.28-33,64.14ZM53.96,21.86c-.52.2-1.05.4-1.57.6.2,12.97-.53,25.97,1.02,39.26,11.02,2.62,20.19,9.55,31.04,11.99.27-.35.53-.71.8-1.06-10.43-16.93-20.86-33.86-31.28-50.79ZM14.51,86.91c8.59,4.5,14.38,10.48,20.35,16.28,2.69,2.61,5.97,4.65,9.13,6.71,1.36.88,3.1,1.18,5.41,2.01-.86-13.61-1.65-26.19-2.5-39.64-10.89,4.93-21.02,9.51-32.39,14.65ZM54.2,71.33c.79,12.26,1.56,24.06,2.39,36.93,9.75-9.17,21.42-14.28,29.48-23.99-10.75-4.37-21.08-8.56-31.87-12.94Z"/>
      <path class="cls-1" d="M54.91,172.74c-1.49-1.02-2.94-1.58-3.75-2.63-7.61-9.91-17.23-18-24.27-28.56-7.11-10.66-16.02-20.12-24.14-30.11-.57-.7-1.24-1.34-1.71-2.1-1.22-2-1.58-4.1.06-6.05,1.87-2.22,3.89-1.32,5.8-.04,1.81,1.21,3.72,2.34,5.29,3.82,9.67,9.1,21.86,13.31,33.96,17.69,1.02.37,2.11.56,3.11.95,2.36.92,4.26.44,6.5-.91,12.71-7.68,25.58-15.11,38.38-22.65,1.68-.99,3.3-1.55,4.99-.08,1.82,1.58,1.84,3.63.83,5.45-1.84,3.32-3.97,6.49-6.03,9.68-3.73,5.78-7.43,11.58-11.29,17.27-7.94,11.7-15.94,23.34-24.01,34.95-.87,1.25-2.31,2.09-3.72,3.32ZM79.96,120.69c-5.73,3.07-11.39,6.28-17.21,9.17-2.76,1.37-4.36,3.61-4.63,6.24-.59,5.8-.06,11.61,1.19,18.1,8.38-10.83,15.44-21.43,20.65-33.51ZM26.65,126.48c7.81,9.55,12.13,21.85,23.57,29.8-.47-7.66-.88-14.38-1.28-20.89-7.64-3.05-14.97-5.98-22.29-8.91Z"/>
    </g>
  </g>
</svg>